<svg width="30" height="20" viewBox="0 0 30 20" fill="none" xmlns="http://www.w3.org/2000/svg">
<path d="M30 0H0V20H30V0Z" fill="#F0F0F0"/>
<path d="M30 0H0V2.85712H30V0Z" fill="#6DA544"/>
<path d="M30 5.71387H0V8.57098H30V5.71387Z" fill="#6DA544"/>
<path d="M30 11.4287H0V14.2858H30V11.4287Z" fill="#6DA544"/>
<path d="M30 17.1426H0V19.9997H30V17.1426Z" fill="#6DA544"/>
<path d="M15 0H0V8.57141H15V0Z" fill="#D80027"/>
<path d="M6.84693 6.70574L6.41211 5.83622V4.09706L7.49908 3.22754L8.58605 4.09706V5.4014L9.02082 4.96664V5.83622L8.15123 6.70574H6.84693Z" fill="#F0F0F0"/>
<path d="M4.50904 4.03906L4.62418 4.39337H4.99666L4.69531 4.61228L4.81051 4.96659L4.50904 4.74763L4.2077 4.96659L4.32277 4.61228L4.02148 4.39337H4.39396L4.50904 4.03906Z" fill="#F0F0F0"/>
<path d="M5.37824 3.16992L5.49338 3.52429H5.86592L5.56451 3.7432L5.67965 4.09745L5.37824 3.87855L5.07689 4.09745L5.19203 3.7432L4.89062 3.52429H5.26316L5.37824 3.16992Z" fill="#F0F0F0"/>
<path d="M6.24939 2.2998L6.36447 2.65412H6.73701L6.43566 2.87314L6.55074 3.22739L6.24939 3.00843L5.94799 3.22739L6.06312 2.87314L5.76172 2.65412H6.13426L6.24939 2.2998Z" fill="#F0F0F0"/>
<path d="M10.4915 4.03906L10.3764 4.39337H10.0039L10.3053 4.61228L10.1901 4.96659L10.4915 4.74763L10.7929 4.96659L10.6778 4.61228L10.9791 4.39337H10.6066L10.4915 4.03906Z" fill="#F0F0F0"/>
<path d="M9.62037 3.16992L9.50529 3.52429H9.13281L9.43416 3.7432L9.31902 4.09745L9.62037 3.87855L9.92184 4.09745L9.80664 3.7432L10.108 3.52429H9.73551L9.62037 3.16992Z" fill="#F0F0F0"/>
<path d="M8.75129 2.2998L8.63621 2.65412H8.26367L8.56502 2.87314L8.44994 3.22739L8.75129 3.00843L9.0527 3.22739L8.93756 2.87314L9.23897 2.65412H8.86643L8.75129 2.2998Z" fill="#F0F0F0"/>
<path d="M7.49934 1.86523L7.3842 2.21961H7.01172L7.31307 2.43851L7.19799 2.79276L7.49934 2.57386L7.80068 2.79276L7.68561 2.43851L7.98695 2.21961H7.61453L7.49934 1.86523Z" fill="#F0F0F0"/>
</svg>
