<svg width="30" height="20" viewBox="0 0 30 20" fill="none" xmlns="http://www.w3.org/2000/svg">
<path d="M30 0H0V19.9994H30V0Z" fill="#D80027"/>
<path d="M29.9996 0H19.3477V20H29.9996V0Z" fill="#496E2D"/>
<path d="M10.6519 0H0V20H10.6519V0Z" fill="black"/>
<path d="M14.9997 6.52148C13.0787 6.52148 11.5215 8.07871 11.5215 9.99969C11.5215 11.9207 13.0787 13.4779 14.9997 13.4779C16.9207 13.4779 18.478 11.9207 18.478 9.99969C18.478 8.07871 16.9207 6.52148 14.9997 6.52148ZM14.9997 12.1736C13.7991 12.1736 12.8258 11.2003 12.8258 9.99969C12.8258 8.79912 13.7991 7.82583 14.9997 7.82583C16.2004 7.82583 17.1736 8.79906 17.1736 9.99969C17.1736 11.2003 16.2004 12.1736 14.9997 12.1736Z" fill="#FFDA44"/>
<path d="M15.0004 8.69531C14.5202 8.69531 14.1309 9.08461 14.1309 9.56484V10.8692H15.87V9.56484C15.8699 9.08455 15.4806 8.69531 15.0004 8.69531Z" fill="#FFDA44"/>
</svg>
