<svg width="30" height="20" viewBox="0 0 30 20" fill="none" xmlns="http://www.w3.org/2000/svg">
<path d="M30 0H0V20H30V0Z" fill="#D80027"/>
<path d="M20.652 7.4216H17.0299C17.2536 7.18746 17.3912 6.87053 17.3912 6.52114C17.3912 5.80074 16.8072 5.2168 16.0868 5.2168C15.633 5.2168 15.2335 5.44865 14.9998 5.80027C14.7662 5.44871 14.3667 5.2168 13.9129 5.2168C13.1925 5.2168 12.6085 5.80074 12.6085 6.52114C12.6085 6.87053 12.7462 7.18746 12.9697 7.4216H9.34766C9.34766 8.38211 10.1843 9.16064 11.1447 9.16064H11.0868C11.0868 10.1212 11.8655 10.8998 12.826 10.8998C12.826 11.2109 12.908 11.5025 13.0511 11.755L11.6086 13.1976L12.7153 14.3043L14.2853 12.7344C14.3468 12.7569 14.4104 12.7749 14.4761 12.7873L13.5274 14.9292L14.9998 16.5211L16.4723 14.9292L15.5236 12.7873C15.5894 12.775 15.6529 12.7569 15.7145 12.7344L17.2844 14.3043L18.3911 13.1976L16.9485 11.755C17.0916 11.5025 17.1736 11.2109 17.1736 10.8998C18.1341 10.8998 18.9128 10.1212 18.9128 9.16064H18.8549C19.8154 9.1607 20.652 8.38211 20.652 7.4216Z" fill="black"/>
</svg>
