<svg width="30" height="20" viewBox="0 0 30 20" fill="none" xmlns="http://www.w3.org/2000/svg">
<path d="M30 0H0V19.9994H30V0Z" fill="#496E2D"/>
<path d="M30 0H15V20H30V0Z" fill="#F0F0F0"/>
<path d="M17.1492 8.08203L16.3287 9.21259L15 8.78175L15.8217 9.91143L15.0013 11.042L16.3297 10.6096L17.1514 11.7392L17.1506 10.3423L18.4789 9.90984L17.1501 9.47895L17.1492 8.08203Z" fill="#D80027"/>
<path d="M15.8289 12.8258C14.2681 12.8258 13.0028 11.5605 13.0028 9.99969C13.0028 8.43889 14.2681 7.17363 15.8289 7.17363C16.3156 7.17363 16.7734 7.29667 17.1732 7.51329C16.546 6.9 15.6883 6.52148 14.7419 6.52148C12.8209 6.52148 11.2637 8.07871 11.2637 9.99969C11.2637 11.9207 12.8209 13.4779 14.7419 13.4779C15.6883 13.4779 16.546 13.0993 17.1732 12.4861C16.7734 12.7028 16.3155 12.8258 15.8289 12.8258Z" fill="#D80027"/>
</svg>
