<svg width="30" height="20" viewBox="0 0 30 20" fill="none" xmlns="http://www.w3.org/2000/svg">
<path d="M30 0H0V19.8356H30V0Z" fill="#0052B4"/>
<path d="M30 1.43108L3.49799 10.1334L30 18.8356V20.0001L0 10.1334L30 0.266602V1.43108Z" fill="#D80027"/>
<path d="M30 16.8688V18.8352L3.49805 10.133L30 1.43066V3.39711" fill="#F0F0F0"/>
<path d="M28.9052 9.85456H27.1899C27.6359 9.32346 27.6083 8.53329 27.106 8.03503C27.6382 7.50724 27.6382 6.65134 27.106 6.12338L27.074 6.15529C27.6061 5.6275 27.6382 4.7397 27.106 4.21191L19.3965 11.8582C19.9287 12.3862 20.7765 12.3798 21.3086 11.8519L21.457 11.7174L25.1486 11.3846V12.9593H26.4007V11.2717L28.279 11.1024L28.9052 9.85456Z" fill="#A2001D"/>
<path d="M19.5143 13.4919L18.2617 12.8709L19.5143 12.25H27.6535V13.4919H19.5143Z" fill="#FFDA44"/>
</svg>
