<svg width="30" height="20" viewBox="0 0 30 20" fill="none" xmlns="http://www.w3.org/2000/svg">
<path d="M30 0H0V20H30V0Z" fill="#FFDA44"/>
<path d="M9.99977 0H0V20H9.99977V0Z" fill="#0052B4"/>
<path d="M29.9998 0H20V20H29.9998V0Z" fill="#D80027"/>
<path d="M15 13.4782C15 11.8825 15 10 15 10H17.6087V11.3043C17.6087 11.531 17.1739 12.3612 16.1008 13.0435C15.6943 13.302 15.2736 13.385 15 13.4782Z" fill="#D80027"/>
<path d="M14.9993 7.39062H12.3906V9.99931H14.9993V7.39062Z" fill="#D80027"/>
<path d="M16.3041 6.52187C16.3041 6.04164 15.9147 5.65234 15.4345 5.65234C15.2759 5.65234 15.1277 5.69547 14.9997 5.76959C14.8717 5.69541 14.7235 5.65234 14.5649 5.65234C14.0847 5.65234 13.6954 6.04164 13.6954 6.52187H11.5215V10.8696C11.5215 12.4882 12.8069 13.4242 13.8148 13.9094C13.7394 14.0382 13.6954 14.1877 13.6954 14.3479C13.6954 14.8281 14.0847 15.2174 14.5649 15.2174C14.7235 15.2174 14.8717 15.1743 14.9997 15.1001C15.1277 15.1743 15.2759 15.2174 15.4345 15.2174C15.9147 15.2174 16.3041 14.8281 16.3041 14.3479C16.3041 14.1877 16.2601 14.0382 16.1845 13.9094C17.1925 13.4242 18.478 12.4881 18.478 10.8696V6.52187H16.3041ZM17.1736 10.8696C17.1736 11.0963 17.1736 11.7858 16.1005 12.468C15.6941 12.7265 15.2733 12.894 14.9997 12.9872C14.7261 12.894 14.3054 12.7265 13.8989 12.468C12.8258 11.7858 12.8258 11.0963 12.8258 10.8697V7.82632H17.1737V10.8697L17.1736 10.8696Z" fill="#FF9811"/>
</svg>
