<svg width="30" height="20" viewBox="0 0 30 20" fill="none" xmlns="http://www.w3.org/2000/svg">
<path d="M30 0H0V20H30V0Z" fill="black"/>
<path d="M30 0H0V9.99968H30V0Z" fill="#D80027"/>
<path d="M13.6289 7.95313L14.4767 8.56836L14.1537 9.56474L15.0007 8.94857L15.8486 9.56374L15.5242 8.56772L16.3713 7.95143L15.3238 7.95214L14.9995 6.95605L14.6764 7.95249L13.6289 7.95313Z" fill="#FFDA44"/>
<path d="M17.5 5.66918C16.7119 5.2142 15.8504 4.99946 15 5.00098V6.30497C15.6286 6.30386 16.2653 6.46247 16.8478 6.79874C18.6126 7.81761 19.2195 10.0822 18.2005 11.847C17.1817 13.6118 14.9169 14.2186 13.1522 13.1997C12.6381 12.903 12.223 12.4999 11.917 12.0348L10.8281 12.7537C11.2421 13.383 11.8044 13.9278 12.5 14.3294C14.8877 15.7078 17.9515 14.8869 19.3301 12.4993C20.7086 10.1116 19.8877 7.04764 17.5 5.66918Z" fill="#FFDA44"/>
<path d="M12.1173 9.12988C11.7716 9.76187 12.0037 10.5545 12.6356 10.9002L16.8719 13.215C16.5838 13.7416 16.7368 14.3826 17.2634 14.6706L18.4078 15.2966C18.9344 15.5847 19.595 15.3913 19.8831 14.8646L20.509 13.7204L12.1173 9.12988Z" fill="#FFDA44"/>
</svg>
