<svg width="30" height="20" viewBox="0 0 30 20" fill="none" xmlns="http://www.w3.org/2000/svg">
<path d="M30 0H0V19.9997H30V0Z" fill="#0052B4"/>
<path d="M25.0645 12.333C25.352 11.9374 25.5441 11.4543 25.5441 10.8693V6.52155C25.1807 6.79453 24.7292 6.95636 24.2397 6.95636C23.5285 6.95636 22.8972 6.61483 22.5006 6.08691C22.1039 6.61483 21.4726 6.95636 20.7614 6.95636C20.272 6.95636 19.8204 6.79459 19.457 6.52173V10.8693C19.457 11.4544 19.6491 11.9376 19.9366 12.3331H25.0645V12.333Z" fill="#F3F3F3"/>
<path d="M24.1603 10.0632C24.2987 9.72557 24.4064 9.23193 24.4064 8.98619C24.4064 8.59146 23.8918 8.27148 23.8918 8.27148C23.8918 8.27148 23.3771 8.59146 23.3771 8.98619C23.3771 9.23193 23.4848 9.72557 23.6232 10.0632L23.3262 10.734C23.5008 10.805 23.6916 10.8444 23.8918 10.8444C24.0919 10.8444 24.2828 10.805 24.4574 10.734L24.1603 10.0632Z" fill="#FF9811"/>
<path d="M22.1479 7.89045C21.7863 7.93944 21.305 8.09312 21.0922 8.21599C20.7503 8.41339 20.7305 9.01894 20.7305 9.01894C20.7305 9.01894 21.2649 9.30458 21.6067 9.10724C21.8196 8.98437 22.1931 8.64436 22.4163 8.35562L23.1458 8.27751C23.12 8.09084 23.0586 7.90586 22.9587 7.73249C22.8585 7.55917 22.729 7.41351 22.5802 7.29785L22.1479 7.89045Z" fill="#FF9811"/>
<path d="M21.2725 10.719C21.4956 11.0076 21.8694 11.3476 22.0821 11.4704C22.424 11.6677 22.9584 11.3821 22.9584 11.3821C22.9584 11.3821 22.9385 10.7765 22.5967 10.5791C22.3838 10.4562 21.9026 10.3027 21.5409 10.2538L21.1086 9.66113C20.9598 9.77685 20.8303 9.92251 20.7301 10.0957C20.6301 10.2691 20.5688 10.454 20.543 10.6408L21.2725 10.719Z" fill="#FF9811"/>
<path d="M19.8281 12.1738C20.6402 13.4767 22.4995 13.9128 22.4995 13.9128C22.4995 13.9128 24.3589 13.4767 25.1709 12.1738H19.8281Z" fill="#338AF3"/>
<path d="M14.9996 5.9375H8.4375V9.99976H9.37465V7.13354L13.6738 9.99976H14.9996L10.3118 6.87462H11.6377L14.9996 9.11613V8.67464L12.3003 6.87468H14.9996V5.9375Z" fill="#F0F0F0"/>
<path d="M10.3118 3.12449L14.9996 0H13.6738L9.37465 2.86557V0H8.4375V4.06226H14.9996V3.12449H12.3003L14.9996 1.32518V0.883689L11.6377 3.12449H10.3118Z" fill="#F0F0F0"/>
<path d="M5.625 0V2.86557L1.32586 0H0L4.68785 3.12449H3.36193L0 0.88363V1.32518L2.69936 3.12449H0V4.06232H6.56215V0H5.625Z" fill="#F0F0F0"/>
<path d="M0 5.9375V6.87462H2.69936L0 8.67464V9.11613L3.36193 6.87468H4.68779L0 9.99982H1.32586L5.625 7.13354V9.99976H6.56215V5.9375H0Z" fill="#F0F0F0"/>
<path d="M8.4375 0H6.5625V4.06244H0V5.93739H6.5625V9.99982H8.4375V5.93739H15V4.06244H8.4375V0Z" fill="#D80027"/>
<path d="M4.6875 3.12496L0 0V0.883747L3.36193 3.12496H4.6875Z" fill="#D80027"/>
<path d="M10.3125 3.12496H11.6381L15 0.883747V0L10.3125 3.12496Z" fill="#D80027"/>
<path d="M3.36193 6.875L0 9.11627V9.99996L4.6875 6.875H3.36193Z" fill="#D80027"/>
<path d="M10.3125 6.875L15 9.99996V9.11627L11.6381 6.875H10.3125Z" fill="#D80027"/>
</svg>
