<svg width="30" height="20" viewBox="0 0 30 20" fill="none" xmlns="http://www.w3.org/2000/svg">
<path d="M29.9999 0H0V19.9998H29.9999V0Z" fill="black"/>
<path d="M5.20021 8.00012C5.06902 8.64635 5 9.31515 5 10.0002C5 10.6851 5.06908 11.354 5.20021 12.0002L14.9999 12.6088L24.7997 12.0001C24.9309 11.3539 24.9999 10.6851 24.9999 10.0001C24.9999 9.31503 24.9308 8.64624 24.7997 8" fill="#0052B4"/>
<path d="M24.8006 12H5.20117C6.12771 16.5645 10.1631 20.0001 15.0009 20.0001C19.8387 20.0001 23.8741 16.5645 24.8006 12Z" fill="#F0F0F0"/>
<path d="M19.348 7.9994H10.6523L12.4289 7.16372L11.4828 5.4431L13.4119 5.81213L13.6565 3.86328L15.0002 5.29662L16.3439 3.86328L16.5883 5.81213L18.5175 5.4431L17.5715 7.16378L19.348 7.9994Z" fill="#FFDA44"/>
<path d="M14.9998 19.9998L0 0V19.9998H14.9998Z" fill="#A2001D"/>
<path d="M29.9998 19.9998V0L15 19.9998H29.9998Z" fill="#A2001D"/>
</svg>
