<svg width="30" height="20" viewBox="0 0 30 20" fill="none" xmlns="http://www.w3.org/2000/svg">
<path d="M30 0H0V20H30V0Z" fill="#F0F0F0"/>
<path d="M30 0H0V6.66665H30V0Z" fill="#338AF3"/>
<path d="M30 13.333H0V19.9997H30V13.333Z" fill="#338AF3"/>
<path d="M17.3917 10.0002L16.4146 10.4599L16.9349 11.4061L15.8739 11.2031L15.7395 12.2749L15.0005 11.4866L14.2615 12.2749L14.1271 11.2031L13.0662 11.4061L13.5864 10.4597L12.6094 10.0002L13.5865 9.54063L13.0662 8.59443L14.1271 8.79735L14.2615 7.72559L15.0005 8.51386L15.7395 7.72559L15.8739 8.79735L16.9349 8.59443L16.4146 9.54068L17.3917 10.0002Z" fill="#FFDA44"/>
</svg>
