<svg width="30" height="20" viewBox="0 0 30 20" fill="none" xmlns="http://www.w3.org/2000/svg">
<path d="M30 0H0V19.9998H30V0Z" fill="#0052B4"/>
<path d="M13.0903 9.99996C13.1063 9.98215 13.1221 9.96428 13.1379 9.94629C13.1221 9.96434 13.1059 9.98203 13.0898 9.99996H13.0903Z" fill="#F0F0F0"/>
<path d="M11.0872 12.4561L11.7292 13.7986L13.1793 13.4636L12.5299 14.8026L13.6959 15.7272L12.2442 16.0545L12.2482 17.5426L11.0872 16.6116L9.92619 17.5426L9.93023 16.0545L8.47852 15.7272L9.64453 14.8026L8.99514 13.4636L10.4451 13.7986L11.0872 12.4561Z" fill="#F0F0F0"/>
<path d="M22.6798 14.124L22.9861 14.7644L23.6776 14.6045L23.3679 15.2432L23.9241 15.6843L23.2316 15.8403L23.2335 16.5501L22.6798 16.1061L22.1261 16.5501L22.1279 15.8403L21.4355 15.6843L21.9917 15.2432L21.682 14.6045L22.3736 14.7644L22.6798 14.124Z" fill="#F0F0F0"/>
<path d="M19.8322 7.33105L20.1385 7.97147L20.83 7.81157L20.5203 8.45029L21.0764 8.89138L20.384 9.04741L20.3859 9.75726L19.8322 9.31313L19.2784 9.75726L19.2804 9.04741L18.5879 8.89138L19.144 8.45029L18.8344 7.81157L19.5259 7.97147L19.8322 7.33105Z" fill="#F0F0F0"/>
<path d="M22.6798 3.44922L22.9861 4.08964L23.6776 3.92968L23.3679 4.56845L23.924 5.00948L23.2316 5.16557L23.2335 5.87536L22.6798 5.43123L22.1261 5.87536L22.1279 5.16557L21.4355 5.00948L21.9917 4.56845L21.682 3.92968L22.3736 4.08964L22.6798 3.44922Z" fill="#F0F0F0"/>
<path d="M25.1681 6.36035L25.4743 7.00071L26.1659 6.84087L25.8562 7.47953L26.4124 7.92056L25.7199 8.07665L25.7218 8.78644L25.1681 8.34242L24.6144 8.78644L24.6162 8.07665L23.9238 7.92056L24.4799 7.47953L24.1702 6.84087L24.8618 7.00071L25.1681 6.36035Z" fill="#F0F0F0"/>
<path d="M23.3896 9.75684L23.6304 10.4981H24.41L23.7793 10.9563L24.0203 11.6977L23.3896 11.2395L22.7588 11.6977L22.9998 10.9563L22.3691 10.4981H23.1487L23.3896 9.75684Z" fill="#F0F0F0"/>
<path d="M15 0V1.79018L12.3535 3.2608H15V6.73879H11.5369L15 8.66268V9.99959H13.4367L9.13043 7.60749V9.99959H5.86957V7.15357L0.746719 9.99959H0V8.20941L2.6465 6.73879H0V3.2608H3.46307L0 1.33626V0H1.56328L5.86957 2.39216V0H9.13043V2.84602L14.2533 0H15Z" fill="#F0F0F0"/>
<path d="M8.4375 0H6.5625V4.06234H0V5.93731H6.5625V9.99976H8.4375V5.93731H15V4.06234H8.4375V0Z" fill="#D80027"/>
<path d="M9.13086 6.73926L15.0004 10.0001V9.07798L10.7906 6.73926H9.13086Z" fill="#0052B4"/>
<path d="M9.13086 6.73926L15.0004 10.0001V9.07798L10.7906 6.73926H9.13086Z" fill="#F0F0F0"/>
<path d="M9.13086 6.73926L15.0004 10.0001V9.07798L10.7906 6.73926H9.13086Z" fill="#D80027"/>
<path d="M4.20973 6.73926L0 9.07798V10.0001L5.86957 6.73926H4.20973Z" fill="#D80027"/>
<path d="M5.86957 3.26079L0 0V0.922072L4.20979 3.26079H5.86957Z" fill="#0052B4"/>
<path d="M5.86957 3.26079L0 0V0.922072L4.20979 3.26079H5.86957Z" fill="#F0F0F0"/>
<path d="M5.86957 3.26079L0 0V0.922072L4.20979 3.26079H5.86957Z" fill="#D80027"/>
<path d="M10.7907 3.26079L15.0004 0.922072V0L9.13086 3.26079H10.7907Z" fill="#D80027"/>
</svg>
