<svg width="30" height="20" viewBox="0 0 30 20" fill="none" xmlns="http://www.w3.org/2000/svg">
<path d="M30 0H0V20H30V0Z" fill="#D80027"/>
<path d="M30 0H0V6.66665H30V0Z" fill="#338AF3"/>
<path d="M30 13.333H0V19.9997H30V13.333Z" fill="#6DA544"/>
<path d="M15.1875 12.4376C13.8413 12.4376 12.75 11.3463 12.75 10.0001C12.75 8.65384 13.8413 7.56251 15.1875 7.56251C15.6073 7.56251 16.0022 7.66863 16.347 7.85549C15.8061 7.32655 15.0663 7 14.25 7C12.5931 7 11.25 8.34317 11.25 10.0001C11.25 11.657 12.5931 13.0001 14.25 13.0001C15.0663 13.0001 15.8061 12.6736 16.347 12.1446C16.0022 12.3315 15.6073 12.4376 15.1875 12.4376Z" fill="#F0F0F0"/>
<path d="M17.0625 8.3125L17.3854 9.22055L18.2558 8.80675L17.842 9.67712L18.75 10L17.842 10.323L18.2558 11.1933L17.3854 10.7795L17.0625 11.6876L16.7396 10.7795L15.8692 11.1933L16.283 10.323L15.375 10L16.283 9.67712L15.8692 8.80675L16.7396 9.22055L17.0625 8.3125Z" fill="#F0F0F0"/>
</svg>
