<svg width="30" height="20" viewBox="0 0 30 20" fill="none" xmlns="http://www.w3.org/2000/svg">
<path d="M30 0H0V20H30V0Z" fill="#F0F0F0"/>
<path d="M13.8463 0H0V20H13.8463V0Z" fill="#0052B4"/>
<path d="M10.041 3.47852V5.10898C10.041 5.91941 10.698 6.57638 11.5084 6.57638C12.3187 6.57638 12.9757 5.91935 12.9757 5.10898V3.47852H10.041Z" fill="#D80027"/>
<path d="M11.5099 5.70642C11.1803 5.70642 10.9121 5.43823 10.9121 5.10857V4.34766H12.1077V5.10857C12.1078 5.43823 11.8396 5.70642 11.5099 5.70642Z" fill="#F0F0F0"/>
<path d="M17.3237 10.435H14.715C14.715 9.95479 14.3256 9.56543 13.8454 9.56543C13.3653 9.56543 12.9759 9.95479 12.9759 10.435H10.3672C10.3672 10.9152 10.7855 11.3045 11.2657 11.3045H11.2367C11.2367 11.7848 11.626 12.1741 12.1063 12.1741C12.1063 12.6543 12.4955 13.0436 12.9758 13.0436H14.715C15.1951 13.0436 15.5845 12.6543 15.5845 12.1741C16.0647 12.1741 16.454 11.7848 16.454 11.3045H16.4251C16.9054 11.3045 17.3237 10.9152 17.3237 10.435Z" fill="#FFDA44"/>
<path d="M17.6828 9.04375L17.4545 9.40921L17.7314 9.73922L17.3133 9.63515L17.0849 10.0005L17.0548 9.57064L16.6367 9.46634L17.0363 9.30491L17.0063 8.875L17.2833 9.20524L17.6828 9.04375Z" fill="#FFDA44"/>
<path d="M16.3501 7.92578L16.2606 8.34731L16.6337 8.56277L16.2051 8.60789L16.1156 9.02936L15.9403 8.63572L15.5117 8.68072L15.8321 8.39232L15.6568 7.99873L16.0299 8.21419L16.3501 7.92578Z" fill="#FFDA44"/>
<path d="M14.7165 7.33105L14.7765 7.7578L15.2008 7.83263L14.8137 8.0216L14.8735 8.44828L14.5742 8.13826L14.1869 8.32723L14.3892 7.94665L14.0898 7.63674L14.5143 7.71157L14.7165 7.33105Z" fill="#FFDA44"/>
<path d="M12.9764 7.33105L13.1788 7.71157L13.6031 7.63669L13.3038 7.94671L13.506 8.32723L13.1188 8.13826L12.8194 8.44823L12.8794 8.0216L12.4922 7.83274L12.9165 7.7578L12.9764 7.33105Z" fill="#FFDA44"/>
<path d="M11.3422 7.92578L11.6624 8.21419L12.0355 7.99873L11.8603 8.39249L12.1805 8.68078L11.7519 8.63572L11.5766 9.02936L11.4872 8.60783L11.0586 8.56283L11.4317 8.34737L11.3422 7.92578Z" fill="#FFDA44"/>
<path d="M10.0115 9.04369L10.411 9.20518L10.6879 8.875L10.658 9.30503L11.0575 9.4664L10.6393 9.57064L10.6092 10.0004L10.381 9.63509L9.96289 9.73922L10.2399 9.40915L10.0115 9.04369Z" fill="#FFDA44"/>
</svg>
