<svg width="30" height="20" viewBox="0 0 30 20" fill="none" xmlns="http://www.w3.org/2000/svg">
<path d="M30 0H0V20H30V0Z" fill="#D80027"/>
<path d="M30 4.44434H0V6.66625H30V4.44434Z" fill="#FFDA44"/>
<path d="M30 8.88867H0V11.1106H30V8.88867Z" fill="#FFDA44"/>
<path d="M30 13.333H0V15.5549H30V13.333Z" fill="#FFDA44"/>
<path d="M30 17.7773H0V19.9993H30V17.7773Z" fill="#FFDA44"/>
<path d="M30 0H0V2.22191H30V0Z" fill="#FFDA44"/>
<path d="M15 0H0V9.99968H15V0Z" fill="#4A1F63"/>
<path d="M10.1084 4.13032V4.9999H9.67361V4.13032H8.80408V4.9999H8.36926V3.26074H6.6302V4.9999H6.19537V4.13032H5.32584V4.9999H4.89102V4.13032H4.02148V6.73901H10.978V4.13032H10.1084Z" fill="#F0F0F0"/>
</svg>
