<svg width="30" height="20" viewBox="0 0 30 20" fill="none" xmlns="http://www.w3.org/2000/svg">
<path d="M30 0H0V20H30V0Z" fill="#FFDA44"/>
<path d="M9.99977 0H0V20H9.99977V0Z" fill="#0052B4"/>
<path d="M29.9998 0H20V20H29.9998V0Z" fill="#0052B4"/>
<path d="M18.0433 6.08632L17.46 5.79464C17.4248 5.86501 16.6632 7.41468 16.5387 9.7819H15.652V6.08626L14.9998 5.2168L14.3477 6.08632V9.78196H13.461C13.3365 7.41474 12.5749 5.86507 12.5397 5.7947L11.373 6.378C11.3811 6.39399 12.1738 8.00753 12.1738 10.4342V11.0863H14.3477V14.7819H15.652V11.0863H17.8259V10.4342C17.8259 9.17951 18.043 8.14505 18.2251 7.49812C18.4237 6.79266 18.6254 6.38063 18.6274 6.37659L18.0433 6.08632Z" fill="black"/>
</svg>
