<svg width="30" height="20" viewBox="0 0 30 20" fill="none" xmlns="http://www.w3.org/2000/svg">
<path d="M30.0006 0H0.0332031V19.9995H30.0006V0Z" fill="#6DA544"/>
<path d="M0 13.4781H29.9674V0H0" fill="#A2001D"/>
<path d="M5.86318 13.4781V12.6086V0H0V19.9999H29.9674H5.86318V13.4781Z" fill="#F0F0F0"/>
<path d="M4.01744 9.27533L2.93164 7.30333L4.01744 5.3623L5.10312 7.30333L4.01744 9.27533Z" fill="#A2001D"/>
<path d="M1.84551 9.27533L0.759766 7.30333L1.84551 5.3623L2.93131 7.30333L1.84551 9.27533Z" fill="#A2001D"/>
<path d="M4.01744 14.6376L2.93164 12.6657L4.01744 10.7246L5.10312 12.6657L4.01744 14.6376Z" fill="#A2001D"/>
<path d="M1.84551 14.6376L0.759766 12.6657L1.84551 10.7246L2.93131 12.6657L1.84551 14.6376Z" fill="#A2001D"/>
<path d="M4.01744 20L2.93164 18.028L4.01744 16.0869L5.10312 18.028L4.01744 20Z" fill="#A2001D"/>
<path d="M1.84551 20L0.759766 18.028L1.84551 16.0869L2.93131 18.028L1.84551 20Z" fill="#A2001D"/>
<path d="M4.01744 3.91314L2.93164 1.94114L4.01744 0L5.10312 1.94114L4.01744 3.91314Z" fill="#A2001D"/>
<path d="M1.84551 3.91314L0.759766 1.94114L1.84551 0L2.93131 1.94114L1.84551 3.91314Z" fill="#A2001D"/>
</svg>
