<svg width="30" height="20" viewBox="0 0 30 20" fill="none" xmlns="http://www.w3.org/2000/svg">
<path d="M30 0H0V20H30V0Z" fill="#0052B4"/>
<path d="M14.9992 14.7824C17.6404 14.7824 19.7815 12.6413 19.7815 10.0001C19.7815 7.35889 17.6404 5.21777 14.9992 5.21777C12.3579 5.21777 10.2168 7.35889 10.2168 10.0001C10.2168 12.6413 12.3579 14.7824 14.9992 14.7824Z" fill="#F0F0F0"/>
<path d="M15.001 13.913C17.1621 13.913 18.914 12.161 18.914 9.99994C18.914 7.83884 17.1621 6.08691 15.001 6.08691C12.8398 6.08691 11.0879 7.83884 11.0879 9.99994C11.0879 12.161 12.8398 13.913 15.001 13.913Z" fill="#6DA544"/>
<path d="M14.9993 12.608C16.4401 12.608 17.608 11.44 17.608 9.99931C17.608 8.55857 16.4401 7.39062 14.9993 7.39062C13.5586 7.39062 12.3906 8.55857 12.3906 9.99931C12.3906 11.44 13.5586 12.608 14.9993 12.608Z" fill="#F0F0F0"/>
<path d="M15.0009 9.34766L13.5879 9.9998V11.0867L15.0009 11.9563L16.414 11.0867V9.9998L15.0009 9.34766Z" fill="#0052B4"/>
<path d="M16.4118 8.69531H13.5859V9.99965H16.4118V8.69531Z" fill="#FFDA44"/>
<path d="M30 0H0V1.73904H30V0Z" fill="#A2001D"/>
<path d="M30 18.2607H0V19.9999H30V18.2607Z" fill="#A2001D"/>
</svg>
