<svg width="30" height="20" viewBox="0 0 30 20" fill="none" xmlns="http://www.w3.org/2000/svg">
<path d="M30 0H0V19.9997H30V0Z" fill="#D80027"/>
<path d="M15 0H0V9.99953H15V0Z" fill="#F0F0F0"/>
<path d="M8.4375 0H6.5625V4.06238H0V5.93733H6.5625V9.99977H8.4375V5.93733H15V4.06238H8.4375V0Z" fill="#D80027"/>
<path d="M0 0V0.883747L3.36193 3.12496H4.6875L0 0Z" fill="#D80027"/>
<path d="M0 1.3252V3.12468H2.69936L0 1.3252Z" fill="#2E52B2"/>
<path d="M5.62531 0V2.86592L1.32617 0H5.62531Z" fill="#2E52B2"/>
<path d="M15 0V0.883747L11.6381 3.12496H10.3125L15 0Z" fill="#D80027"/>
<path d="M15.0001 1.3252V3.12468H12.3008L15.0001 1.3252Z" fill="#2E52B2"/>
<path d="M9.375 0V2.86592L13.6741 0H9.375Z" fill="#2E52B2"/>
<path d="M0 0V0.883747L3.36193 3.12496H4.6875L0 0Z" fill="#D80027"/>
<path d="M0 1.3252V3.12468H2.69936L0 1.3252Z" fill="#2E52B2"/>
<path d="M5.62531 0V2.86592L1.32617 0H5.62531Z" fill="#2E52B2"/>
<path d="M15 0V0.883747L11.6381 3.12496H10.3125L15 0Z" fill="#D80027"/>
<path d="M15.0001 1.3252V3.12468H12.3008L15.0001 1.3252Z" fill="#2E52B2"/>
<path d="M9.375 0V2.86592L13.6741 0H9.375Z" fill="#2E52B2"/>
<path d="M0 9.99996V9.11627L3.36193 6.875H4.6875L0 9.99996Z" fill="#D80027"/>
<path d="M0 8.67455V6.875H2.69936L0 8.67455Z" fill="#2E52B2"/>
<path d="M5.62531 9.99965V7.13379L1.32617 9.99965H5.62531Z" fill="#2E52B2"/>
<path d="M15 9.99996V9.11627L11.6381 6.875H10.3125L15 9.99996Z" fill="#D80027"/>
<path d="M15.0001 8.67455V6.875H12.3008L15.0001 8.67455Z" fill="#2E52B2"/>
<path d="M9.375 9.99965V7.13379L13.6741 9.99965H9.375Z" fill="#2E52B2"/>
<path d="M19.457 6.08691V10.8694C19.457 13.199 25.544 13.199 25.544 10.8694V6.08691H19.457Z" fill="#F3F3F3"/>
<path d="M19.457 10.8691C19.457 13.1988 22.5005 13.9125 22.5005 13.9125C22.5005 13.9125 25.544 13.1988 25.544 10.8691V10.8692H19.457V10.8691Z" fill="#6DA544"/>
<path d="M22.5009 8.95605L21.0879 9.56471V10.869L22.5009 11.7386L23.914 10.869V9.56471L22.5009 8.95605Z" fill="#A2001D"/>
<path d="M23.9118 8.26074H21.0859V9.56506H23.9118V8.26074Z" fill="#338AF3"/>
</svg>
