<svg width="30" height="20" viewBox="0 0 30 20" fill="none" xmlns="http://www.w3.org/2000/svg">
<path d="M30 0H0V19.9998H30V0Z" fill="#FF9811"/>
<path d="M30 0H0V19.9995" fill="#FFDA44"/>
<path d="M20.6576 5.65223V3.91309H17.3242L17.0695 4.16773C16.1637 5.07351 16.3161 6.13023 16.4273 6.90178C16.5305 7.61754 16.5429 7.89164 16.2767 8.15783C16.0106 8.42395 15.7363 8.41159 15.0207 8.30841C14.2492 8.1972 13.1924 8.0448 12.2866 8.95053C11.3809 9.85631 11.5333 10.913 11.6446 11.6845C11.7479 12.4 11.7602 12.6743 11.4941 12.9403C11.228 13.2063 10.9537 13.194 10.2382 13.0908C9.95922 13.0505 9.6707 13.0089 9.36285 13.0055L9.34375 14.7445C9.53646 14.7467 9.75678 14.7784 9.98998 14.812C10.2661 14.8519 10.5786 14.897 10.9077 14.897C11.2488 14.897 11.6076 14.8483 11.962 14.6953V16.0867H14.5707V14.7824H13.2664V13.9129H14.1359V12.6085H13.4409C13.4738 12.1866 13.4159 11.7825 13.3659 11.4361C13.2626 10.7205 13.2503 10.4463 13.5163 10.1803C13.7825 9.91414 14.0567 9.92644 14.7724 10.0297C15.3346 10.1108 16.0482 10.2131 16.7446 9.91256V11.3042H19.3533V9.99986H18.0489V9.13035H18.9184V7.82602H18.2235C18.2564 7.40403 18.1986 7.00004 18.1486 6.65352C18.0765 6.15349 18.0487 5.86897 18.1293 5.65211H20.6576V5.65223Z" fill="#F0F0F0"/>
</svg>
