<svg width="30" height="20" viewBox="0 0 30 20" fill="none" xmlns="http://www.w3.org/2000/svg">
<path d="M30 0H0V20H30V0Z" fill="#F0F0F0"/>
<path d="M0 20H30V0L0 20Z" fill="#0052B4"/>
<path d="M14.6739 0H0V9.78214L14.6739 0Z" fill="#FFDA44"/>
<path d="M11.0179 9.66267L11.8797 9.19585L11.0179 8.72902C10.8167 7.42188 9.78397 6.38908 8.47697 6.18799L8.01016 5.32617L7.54334 6.18799C6.23623 6.3892 5.20352 7.422 5.00236 8.72902L4.14062 9.1959L5.00242 9.66273C5.20363 10.9699 6.23641 12.0027 7.5434 12.2038L8.01016 13.0655L8.47697 12.2037C9.78402 12.0026 10.8167 10.9698 11.0179 9.66267ZM8.0101 10.935C7.04957 10.935 6.27092 10.1563 6.27092 9.19579C6.27092 8.23524 7.04957 7.45669 8.0101 7.45669C8.97062 7.45669 9.74928 8.23536 9.74928 9.1959C9.74928 10.1565 8.97062 10.935 8.0101 10.935Z" fill="black"/>
<path d="M8.01037 7.8916L8.38695 8.54376H9.14L8.76348 9.19599L9.14 9.84815H8.38695L8.01037 10.5004L7.63391 9.84815H6.88086L7.25732 9.19599L6.88086 8.54376H7.63391L8.01037 7.8916Z" fill="#D80027"/>
</svg>
