<svg width="30" height="20" viewBox="0 0 30 20" fill="none" xmlns="http://www.w3.org/2000/svg">
<path d="M30 0H0V19.9997H30V0Z" fill="#0052B4"/>
<path d="M5.85352 0H25.8535V19.9995" fill="#FFDA44"/>
<path d="M2.14258 0.89734L3.01229 0.264134L3.8834 0.896579L3.59166 0H2.43344L2.14258 0.89734Z" fill="#F0F0F0"/>
<path d="M5.175 1.07255L4.84201 0.0488281L4.50967 1.07255L3.43359 1.07325L4.30471 1.70582L3.97301 2.7289L4.84272 2.09575L5.71377 2.72825L5.38072 1.70441L6.25107 1.07191L5.175 1.07255Z" fill="#F0F0F0"/>
<path d="M7.00715 2.90372L6.6741 1.87988L6.3417 2.90372L5.26562 2.90437L6.13674 3.53687L5.80504 4.56001L6.6748 3.9268L7.54586 4.55937L7.21275 3.53552L8.08322 2.90308L7.00715 2.90372Z" fill="#F0F0F0"/>
<path d="M8.83906 4.7357L8.50607 3.71191L8.17367 4.7357L7.09766 4.73634L7.96871 5.3689L7.63701 6.39198L8.50672 5.75883L9.37777 6.39134L9.04478 5.3675L9.9152 4.73505L8.83906 4.7357Z" fill="#F0F0F0"/>
<path d="M10.6692 6.56681L10.3362 5.54297L10.0039 6.56681L8.92773 6.56745L9.79879 7.19996L9.46715 8.2231L10.3369 7.58989L11.2079 8.22245L10.8749 7.19867L11.7453 6.56617L10.6692 6.56681Z" fill="#F0F0F0"/>
<path d="M12.5012 8.39775L12.1682 7.37402L11.8358 8.39775L10.7598 8.39845L11.6308 9.03095L11.2992 10.0541L12.1688 9.42094L13.0399 10.0534L12.7069 9.02961L13.5773 8.3971L12.5012 8.39775Z" fill="#F0F0F0"/>
<path d="M14.3333 10.2298L14.0003 9.20605L13.6679 10.2298L12.5918 10.2305L13.4629 10.863L13.1312 11.8862L14.001 11.253L14.872 11.8854L14.5389 10.8617L15.4093 10.2293L14.3333 10.2298Z" fill="#F0F0F0"/>
<path d="M16.1652 12.0609L15.8323 11.0371L15.4999 12.0609L14.4238 12.0615L15.2949 12.6941L14.9632 13.7172L15.8329 13.084L16.704 13.7165L16.371 12.6927L17.2413 12.0602L16.1652 12.0609Z" fill="#F0F0F0"/>
<path d="M17.9954 13.892L17.6624 12.8682L17.3299 13.892L16.2539 13.8927L17.125 14.5252L16.7933 15.5483L17.663 14.9151L18.5341 15.5476L18.201 14.5238L19.0714 13.8914L17.9954 13.892Z" fill="#F0F0F0"/>
<path d="M19.8273 15.7239L19.4944 14.7002L19.162 15.7239L18.0859 15.7246L18.957 16.3571L18.6253 17.3803L19.495 16.7471L20.3661 17.3796L20.0331 16.3558L20.9035 15.7233L19.8273 15.7239Z" fill="#F0F0F0"/>
<path d="M21.6594 17.555L21.3264 16.5312L20.9941 17.555L19.918 17.5557L20.789 18.1882L20.4574 19.2114L21.3271 18.5782L22.1981 19.2107L21.8651 18.1869L22.7355 17.5544L21.6594 17.555Z" fill="#F0F0F0"/>
<path d="M23.1565 18.3623L22.8241 19.386L21.748 19.3867L22.5914 19.9992H23.721L24.5656 19.3854L23.4895 19.386L23.1565 18.3623Z" fill="#F0F0F0"/>
</svg>
