<svg width="30" height="20" viewBox="0 0 30 20" fill="none" xmlns="http://www.w3.org/2000/svg">
<path d="M30 0H0V20H30V0Z" fill="#6DA544"/>
<path d="M15 4.47363L22.5 9.9999L15 15.5262L7.5 9.9999L15 4.47363Z" fill="#FFDA44"/>
<path d="M14.9996 13.1574C16.7437 13.1574 18.1575 11.7436 18.1575 9.99961C18.1575 8.2556 16.7437 6.8418 14.9996 6.8418C13.2556 6.8418 11.8418 8.2556 11.8418 9.99961C11.8418 11.7436 13.2556 13.1574 14.9996 13.1574Z" fill="#F0F0F0"/>
<path d="M13.4217 9.80273C12.8725 9.80273 12.3426 9.88629 11.8438 10.0412C11.8658 11.7662 13.2704 13.158 15.0006 13.158C16.0705 13.158 17.0154 12.6254 17.5866 11.8114C16.6095 10.5881 15.1057 9.80273 13.4217 9.80273Z" fill="#0052B4"/>
<path d="M18.0989 10.6047C18.137 10.4088 18.1575 10.2067 18.1575 9.99967C18.1575 8.25565 16.7437 6.8418 14.9996 6.8418C13.6983 6.8418 12.5812 7.62917 12.0977 8.75328C12.525 8.6648 12.9675 8.61811 13.4206 8.61811C15.2549 8.61816 16.9141 9.38052 18.0989 10.6047Z" fill="#0052B4"/>
</svg>
