<svg width="30" height="20" viewBox="0 0 30 20" fill="none" xmlns="http://www.w3.org/2000/svg">
<path d="M29.9998 0H0V19.9998H29.9998V0Z" fill="#F0F0F0"/>
<path d="M29.9998 0H0V9.99953H29.9998V0Z" fill="#F0F0F0"/>
<path d="M29.9998 4.0625H0V5.93748H29.9998V4.0625Z" fill="#D80027"/>
<path d="M22.3047 6.73926L30.001 8.66325V6.73926H22.3047Z" fill="#0052B4"/>
<path d="M16.957 6.73926L30.0004 10V9.07789L20.6454 6.73926H16.957Z" fill="#0052B4"/>
<path d="M26.5261 9.99989L16.957 7.60742V9.99989H26.5261Z" fill="#0052B4"/>
<path d="M16.957 6.73926L30.0004 10V9.07789L20.6454 6.73926H16.957Z" fill="#F0F0F0"/>
<path d="M16.957 6.73926L30.0004 10V9.07789L20.6454 6.73926H16.957Z" fill="#D80027"/>
<path d="M5.88151 6.73828L0 8.20856V6.73828H5.88151Z" fill="#0052B4"/>
<path d="M13.0439 7.15332V9.99944H1.66016L13.0439 7.15332Z" fill="#0052B4"/>
<path d="M9.35491 6.73926L0 9.07789V10L13.0434 6.73926H9.35491Z" fill="#D80027"/>
<path d="M7.69626 3.26091L0 1.33691V3.26091H7.69626Z" fill="#0052B4"/>
<path d="M13.0434 3.26077L0 0V0.922073L9.35497 3.26077H13.0434Z" fill="#0052B4"/>
<path d="M3.47461 0L13.0437 2.39241V0H3.47461Z" fill="#0052B4"/>
<path d="M13.0434 3.26077L0 0V0.922073L9.35497 3.26077H13.0434Z" fill="#F0F0F0"/>
<path d="M13.0434 3.26077L0 0V0.922073L9.35497 3.26077H13.0434Z" fill="#D80027"/>
<path d="M24.1191 3.26038L30.0006 1.79004V3.26038H24.1191Z" fill="#0052B4"/>
<path d="M16.957 2.84601V0H28.3408L16.957 2.84601Z" fill="#0052B4"/>
<path d="M20.6455 3.26077L30.0004 0.922132V0L16.957 3.26077H20.6455Z" fill="#D80027"/>
<path d="M15.9369 0H14.0625V9.99953H15.9369V0Z" fill="#D80027"/>
<path d="M29.9998 10.9277V12.236C29.7402 12.2797 29.2465 12.5594 28.8787 12.7688C28.237 13.1333 27.6304 13.4776 27.0506 13.4776C26.4702 13.4776 25.8643 13.1333 25.2219 12.7688C24.8215 12.5412 24.273 12.2301 24.0376 12.2301C23.8022 12.2301 23.2537 12.5412 22.8532 12.7688C22.2115 13.1333 21.605 13.4776 21.0252 13.4776C20.4454 13.4776 19.8389 13.1333 19.1965 12.7688C18.7961 12.5412 18.2476 12.2301 18.0122 12.2301C17.7774 12.2301 17.2289 12.5412 16.8285 12.7688C16.1861 13.1333 15.5796 13.4776 14.9998 13.4776C14.42 13.4776 13.8135 13.1333 13.1711 12.7688C12.7707 12.5412 12.2221 12.2301 11.9874 12.2301C11.752 12.2301 11.2034 12.5412 10.803 12.7688C10.1607 13.1333 9.55415 13.4776 8.97433 13.4776C8.39458 13.4776 7.78805 13.1333 7.14628 12.7688C6.74587 12.5412 6.19736 12.2301 5.96194 12.2301C5.72652 12.2301 5.17801 12.5412 4.7776 12.7688C4.13524 13.1333 3.52936 13.4776 2.9489 13.4776C2.36915 13.4776 1.76262 13.1333 1.12085 12.7688C0.753274 12.5595 0.259545 12.2797 0 12.236V10.9277C0.560219 10.9506 1.1465 11.2832 1.76545 11.6347C2.16586 11.8616 2.71437 12.1734 2.94914 12.1734C3.18456 12.1734 3.73307 11.8616 4.13348 11.6347C4.77584 11.2701 5.38236 10.9258 5.96218 10.9258C6.54199 10.9258 7.14846 11.2701 7.79023 11.6347C8.19064 11.8616 8.73915 12.1734 8.97457 12.1734C9.20999 12.1734 9.7585 11.8616 10.1589 11.6347C10.8013 11.2701 11.4071 10.9258 11.9876 10.9258C12.5674 10.9258 13.1739 11.2701 13.8157 11.6347C14.2161 11.8616 14.7646 12.1734 15 12.1734C15.2354 12.1734 15.7839 11.8616 16.1843 11.6347C16.8261 11.2701 17.4326 10.9258 18.0124 10.9258C18.5928 10.9258 19.1987 11.2701 19.8411 11.6347C20.2415 11.8616 20.79 12.1734 21.0254 12.1734C21.2609 12.1734 21.8094 11.8616 22.2098 11.6347C22.8515 11.2701 23.458 10.9258 24.0378 10.9258C24.6176 10.9258 25.2241 11.2701 25.8665 11.6347C26.2669 11.8616 26.8154 12.1734 27.0509 12.1734C27.2856 12.1734 27.8341 11.8616 28.2346 11.6347C28.8533 11.2832 29.4395 10.9506 29.9998 10.9277Z" fill="#0052B4"/>
<path d="M30 14.1885V15.4967C29.7405 15.5404 29.2467 15.8201 28.8789 16.0295C28.2372 16.3941 27.6307 16.7384 27.0509 16.7384C26.4705 16.7384 25.8646 16.3941 25.2222 16.0295C24.8218 15.8019 24.2732 15.4908 24.0378 15.4908C23.8024 15.4908 23.2539 15.8019 22.8535 16.0295C22.2118 16.3941 21.6052 16.7384 21.0254 16.7384C20.4456 16.7384 19.8391 16.3941 19.1967 16.0295C18.7963 15.8019 18.2478 15.4908 18.0124 15.4908C17.7776 15.4908 17.2291 15.8019 16.8287 16.0295C16.1863 16.3941 15.5798 16.7384 15 16.7384C14.4202 16.7384 13.8137 16.3941 13.1713 16.0295C12.7709 15.8019 12.2224 15.4908 11.9876 15.4908C11.7522 15.4908 11.2037 15.8019 10.8033 16.0295C10.1609 16.3941 9.55438 16.7384 8.97457 16.7384C8.39481 16.7384 7.78829 16.3941 7.14652 16.0295C6.74611 15.8019 6.1976 15.4908 5.96218 15.4908C5.72676 15.4908 5.17825 15.8019 4.77784 16.0295C4.13548 16.3941 3.5296 16.7384 2.94914 16.7384C2.36938 16.7384 1.76286 16.3941 1.12109 16.0295C0.753274 15.8201 0.259545 15.5404 0 15.4967V14.1885C0.560219 14.2113 1.1465 14.5439 1.76545 14.8954C2.16586 15.1224 2.71437 15.4341 2.94914 15.4341C3.18456 15.4341 3.73307 15.1224 4.13348 14.8954C4.77584 14.5309 5.38236 14.1865 5.96218 14.1865C6.54199 14.1865 7.14846 14.5309 7.79023 14.8954C8.19064 15.1224 8.73915 15.4341 8.97457 15.4341C9.20999 15.4341 9.7585 15.1224 10.1589 14.8954C10.8013 14.5309 11.4071 14.1865 11.9876 14.1865C12.5674 14.1865 13.1739 14.5309 13.8157 14.8954C14.2161 15.1224 14.7646 15.4341 15 15.4341C15.2354 15.4341 15.7839 15.1224 16.1843 14.8954C16.8261 14.5309 17.4326 14.1865 18.0124 14.1865C18.5928 14.1865 19.1987 14.5309 19.8411 14.8954C20.2415 15.1224 20.79 15.4341 21.0254 15.4341C21.2608 15.4341 21.8094 15.1224 22.2098 14.8954C22.8515 14.5309 23.458 14.1865 24.0378 14.1865C24.6176 14.1865 25.2241 14.5309 25.8665 14.8954C26.2669 15.1224 26.8154 15.4341 27.0509 15.4341C27.2856 15.4341 27.8341 15.1224 28.2346 14.8954C28.8535 14.5439 29.4398 14.2112 30 14.1885Z" fill="#0052B4"/>
<path d="M30 17.4492V18.7574C29.7405 18.8012 29.2467 19.0809 28.8789 19.2902C28.2372 19.6548 27.6307 19.9991 27.0509 19.9991C26.4705 19.9991 25.8646 19.6548 25.2222 19.2902C24.8218 19.0626 24.2732 18.7516 24.0378 18.7516C23.8024 18.7516 23.2539 19.0626 22.8535 19.2902C22.2118 19.6548 21.6052 19.9991 21.0254 19.9991C20.4456 19.9991 19.8391 19.6548 19.1967 19.2902C18.7963 19.0626 18.2478 18.7516 18.0124 18.7516C17.7776 18.7516 17.2291 19.0626 16.8287 19.2902C16.1863 19.6548 15.5798 19.9991 15 19.9991C14.4202 19.9991 13.8137 19.6548 13.1713 19.2902C12.7709 19.0626 12.2224 18.7516 11.9876 18.7516C11.7522 18.7516 11.2037 19.0626 10.8033 19.2902C10.1609 19.6548 9.55438 19.9991 8.97457 19.9991C8.39481 19.9991 7.78829 19.6548 7.14652 19.2902C6.74611 19.0626 6.1976 18.7516 5.96218 18.7516C5.72676 18.7516 5.17825 19.0626 4.77784 19.2902C4.13548 19.6548 3.5296 19.9991 2.94914 19.9991C2.36938 19.9991 1.76286 19.6548 1.12109 19.2902C0.753274 19.0809 0.259545 18.8011 0 18.7574V17.4492C0.560219 17.472 1.1465 17.8047 1.76545 18.1562C2.16586 18.3831 2.71437 18.6948 2.94914 18.6948C3.18456 18.6948 3.73307 18.3831 4.13348 18.1562C4.77584 17.7916 5.38236 17.4473 5.96218 17.4473C6.54199 17.4473 7.14846 17.7916 7.79023 18.1562C8.19064 18.3831 8.73915 18.6948 8.97457 18.6948C9.20999 18.6948 9.7585 18.3831 10.1589 18.1562C10.8013 17.7916 11.4071 17.4473 11.9876 17.4473C12.5674 17.4473 13.1739 17.7916 13.8157 18.1562C14.2161 18.3831 14.7646 18.6948 15 18.6948C15.2354 18.6948 15.7839 18.3831 16.1843 18.1562C16.8261 17.7916 17.4326 17.4473 18.0124 17.4473C18.5928 17.4473 19.1987 17.7916 19.8411 18.1562C20.2415 18.3831 20.79 18.6948 21.0254 18.6948C21.2608 18.6948 21.8094 18.3831 22.2098 18.1562C22.8515 17.7916 23.458 17.4473 24.0378 17.4473C24.6176 17.4473 25.2241 17.7916 25.8665 18.1562C26.2669 18.3831 26.8154 18.6948 27.0509 18.6948C27.2856 18.6948 27.8341 18.3831 28.2346 18.1562C28.8535 17.8047 29.4398 17.472 30 17.4492Z" fill="#0052B4"/>
<path d="M18.0331 17.8336L19.1488 15.8046L16.8736 16.2397L16.5853 13.9414L15.0006 15.6317L13.416 13.9414L13.1276 16.2397L10.8526 15.8046L11.9682 17.8336L9.87305 18.8191L11.9682 19.8045L11.8609 19.9999H18.1404L18.033 19.8046L20.1282 18.8191L18.0331 17.8336Z" fill="#FFDA44"/>
</svg>
