<svg width="30" height="20" viewBox="0 0 30 20" fill="none" xmlns="http://www.w3.org/2000/svg">
<path d="M30 0H0V19.9997H30V0Z" fill="#F0F0F0"/>
<path d="M27.0506 11.6023C26.8153 11.6023 26.2668 11.2909 25.8663 11.0635C25.2243 10.6988 24.6178 10.3545 24.038 10.3545C23.4581 10.3545 22.8517 10.6988 22.2096 11.0635C21.8091 11.2909 21.2606 11.6023 21.0253 11.6023C20.79 11.6023 20.2414 11.2909 19.8411 11.0635C19.199 10.6988 18.5926 10.3545 18.0127 10.3545C17.4329 10.3545 16.8264 10.6988 16.1844 11.0635C15.7839 11.2909 15.2354 11.6023 15.0001 11.6023C14.7647 11.6023 14.2162 11.2909 13.8158 11.0635C13.1737 10.6988 12.5672 10.3545 11.9874 10.3545C11.4076 10.3545 10.8011 10.6988 10.159 11.0635C9.75861 11.2909 9.21012 11.6023 8.9748 11.6023C8.73949 11.6023 8.19094 11.2909 7.79051 11.0635C7.14844 10.6988 6.54199 10.3545 5.96215 10.3545C5.3823 10.3545 4.77586 10.6988 4.13379 11.0635C3.7333 11.2909 3.1848 11.6023 2.94949 11.6023C2.71418 11.6023 2.16563 11.2909 1.76525 11.0635C1.14639 10.7121 0.560742 10.3804 0 10.3568V11.6653C0.25998 11.709 0.752754 11.9885 1.12096 12.1976C1.76303 12.5622 2.36947 12.9066 2.94932 12.9066C3.52916 12.9066 4.13561 12.5622 4.77768 12.1976C5.17816 11.9702 5.72666 11.6588 5.96197 11.6588C6.19729 11.6588 6.74584 11.9702 7.14627 12.1976C7.78834 12.5622 8.39479 12.9066 8.97463 12.9066C9.55447 12.9066 10.1609 12.5622 10.803 12.1976C11.2034 11.9702 11.7519 11.6588 11.9872 11.6588C12.2225 11.6588 12.7711 11.9702 13.1715 12.1976C13.8136 12.5622 14.42 12.9066 14.9999 12.9066C15.5797 12.9066 16.1862 12.5622 16.8282 12.1976C17.2287 11.9702 17.7772 11.6588 18.0125 11.6588C18.2479 11.6588 18.7964 11.9702 19.1968 12.1976C19.8388 12.5622 20.4453 12.9066 21.0251 12.9066C21.605 12.9066 22.2114 12.5622 22.8535 12.1976C23.254 11.9702 23.8025 11.6588 24.0378 11.6588C24.2731 11.6588 24.8217 11.9702 25.2221 12.1976C25.8642 12.5622 26.4706 12.9066 27.0504 12.9066C27.6303 12.9066 28.2367 12.5622 28.8788 12.1976C29.247 11.9885 29.7398 11.709 29.9998 11.6653V10.3568C29.439 10.3804 28.8534 10.7121 28.2346 11.0635C27.8344 11.2909 27.286 11.6023 27.0506 11.6023Z" fill="#0052B4"/>
<path d="M0 1.88212C0.25998 1.92583 0.752754 2.20531 1.12096 2.41448C1.76303 2.7791 2.36947 3.12345 2.94932 3.12345C3.52916 3.12345 4.13561 2.7791 4.77768 2.41448C5.17816 2.18709 5.72666 1.87561 5.96197 1.87561C6.19729 1.87561 6.74584 2.18703 7.14627 2.41448C7.78834 2.7791 8.39479 3.12345 8.97463 3.12345C9.55447 3.12345 10.1609 2.7791 10.803 2.41448C11.2034 2.18709 11.7519 1.87561 11.9872 1.87561C12.2225 1.87561 12.7711 2.18703 13.1715 2.41448C13.8136 2.7791 14.42 3.12345 14.9999 3.12345C15.5797 3.12345 16.1862 2.7791 16.8282 2.41448C17.2287 2.18709 17.7772 1.87561 18.0125 1.87561C18.2479 1.87561 18.7964 2.18703 19.1968 2.41448C19.8388 2.7791 20.4453 3.12345 21.0251 3.12345C21.605 3.12345 22.2114 2.7791 22.8535 2.41448C23.254 2.18709 23.8025 1.87561 24.0378 1.87561C24.2731 1.87561 24.8217 2.18703 25.2221 2.41448C25.8642 2.7791 26.4706 3.12345 27.0504 3.12345C27.6303 3.12345 28.2367 2.7791 28.8788 2.41448C29.247 2.20531 29.7398 1.92583 29.9998 1.88212V0.573574C29.439 0.597246 28.8534 0.928878 28.2346 1.28026C27.8342 1.50765 27.2857 1.81913 27.0504 1.81913C26.8151 1.81913 26.2665 1.50771 25.8661 1.28026C25.224 0.915636 24.6176 0.571289 24.0377 0.571289C23.4579 0.571289 22.8514 0.915636 22.2094 1.28026C21.8089 1.50765 21.2604 1.81913 21.0251 1.81913C20.7898 1.81913 20.2412 1.50771 19.8408 1.28026C19.1988 0.915636 18.5923 0.571289 18.0125 0.571289C17.4326 0.571289 16.8262 0.915636 16.1841 1.28026C15.7836 1.50765 15.2351 1.81913 14.9998 1.81913C14.7645 1.81913 14.216 1.50771 13.8155 1.28026C13.1735 0.915636 12.567 0.571289 11.9872 0.571289C11.4073 0.571289 10.8009 0.915636 10.1588 1.28026C9.75838 1.50765 9.20988 1.81913 8.97457 1.81913C8.73926 1.81913 8.1907 1.50771 7.79027 1.28026C7.1482 0.915636 6.54176 0.571289 5.96191 0.571289C5.38207 0.571289 4.77562 0.915636 4.13355 1.28026C3.73307 1.50765 3.18457 1.81913 2.94926 1.81913C2.71395 1.81913 2.16539 1.50771 1.76502 1.28026C1.14639 0.928878 0.560742 0.597246 0 0.573574V1.88212Z" fill="#0052B4"/>
<path d="M27.0506 5.08085C26.8153 5.08085 26.2668 4.76943 25.8663 4.54197C25.2243 4.17735 24.6178 3.83301 24.038 3.83301C23.4581 3.83301 22.8517 4.17735 22.2096 4.54197C21.8091 4.76937 21.2606 5.08085 21.0253 5.08085C20.79 5.08085 20.2414 4.76943 19.8411 4.54197C19.199 4.17735 18.5926 3.83301 18.0127 3.83301C17.4329 3.83301 16.8264 4.17735 16.1844 4.54197C15.7839 4.76937 15.2354 5.08085 15.0001 5.08085C14.7647 5.08085 14.2162 4.76943 13.8158 4.54197C13.1737 4.17735 12.5672 3.83301 11.9874 3.83301C11.4076 3.83301 10.8011 4.17735 10.159 4.54197C9.75861 4.76937 9.21012 5.08085 8.9748 5.08085C8.73949 5.08085 8.19094 4.76943 7.79051 4.54197C7.14844 4.17735 6.54199 3.83301 5.96215 3.83301C5.3823 3.83301 4.77586 4.17735 4.13379 4.54197C3.7333 4.76937 3.1848 5.08085 2.94949 5.08085C2.71418 5.08085 2.16563 4.76943 1.76525 4.54197C1.14639 4.1906 0.560742 3.85896 0 3.83529V5.14378C0.25998 5.18749 0.752754 5.46697 1.12096 5.67614C1.76303 6.04076 2.36947 6.38511 2.94932 6.38511C3.52916 6.38511 4.13561 6.04076 4.77768 5.67614C5.17816 5.44875 5.72666 5.13727 5.96197 5.13727C6.19729 5.13727 6.74584 5.44869 7.14627 5.67614C7.78834 6.04076 8.39479 6.38511 8.97463 6.38511C9.55447 6.38511 10.1609 6.04076 10.803 5.67614C11.2034 5.44875 11.7519 5.13727 11.9872 5.13727C12.2225 5.13727 12.7711 5.44869 13.1715 5.67614C13.8136 6.04076 14.42 6.38511 14.9999 6.38511C15.5797 6.38511 16.1862 6.04076 16.8282 5.67614C17.2287 5.44875 17.7772 5.13727 18.0125 5.13727C18.2479 5.13727 18.7964 5.44869 19.1968 5.67614C19.8388 6.04076 20.4453 6.38511 21.0251 6.38511C21.605 6.38511 22.2114 6.04076 22.8535 5.67614C23.254 5.44875 23.8025 5.13727 24.0378 5.13727C24.2731 5.13727 24.8217 5.44869 25.2221 5.67614C25.8642 6.04076 26.4706 6.38511 27.0504 6.38511C27.6303 6.38511 28.2367 6.04076 28.8788 5.67614C29.247 5.46697 29.7398 5.18749 29.9998 5.14378V3.83529C29.439 3.85896 28.8534 4.1906 28.2346 4.54197C27.8344 4.76943 27.286 5.08085 27.0506 5.08085Z" fill="#0052B4"/>
<path d="M30 7.09604C29.4393 7.11971 28.8536 7.45134 28.2349 7.80272C27.8344 8.03011 27.2859 8.34159 27.0506 8.34159C26.8153 8.34159 26.2668 8.03017 25.8663 7.80272C25.2243 7.4381 24.6178 7.09375 24.038 7.09375C23.4581 7.09375 22.8517 7.4381 22.2096 7.80272C21.8091 8.03011 21.2606 8.34159 21.0253 8.34159C20.79 8.34159 20.2414 8.03017 19.8411 7.80272C19.199 7.4381 18.5926 7.09375 18.0127 7.09375C17.4329 7.09375 16.8264 7.4381 16.1844 7.80272C15.7839 8.03011 15.2354 8.34159 15.0001 8.34159C14.7647 8.34159 14.2162 8.03017 13.8158 7.80272C13.1737 7.4381 12.5672 7.09375 11.9874 7.09375C11.4076 7.09375 10.8011 7.4381 10.159 7.80272C9.75861 8.03011 9.21012 8.34159 8.9748 8.34159C8.73949 8.34159 8.19094 8.03017 7.79051 7.80272C7.14844 7.4381 6.54199 7.09375 5.96215 7.09375C5.3823 7.09375 4.77586 7.4381 4.13379 7.80272C3.7333 8.03011 3.1848 8.34159 2.94949 8.34159C2.71418 8.34159 2.16563 8.03017 1.76525 7.80272C1.14639 7.45128 0.560742 7.11971 0 7.09604V8.40452C0.25998 8.44823 0.752754 8.72771 1.12096 8.93689C1.76303 9.30151 2.36947 9.64585 2.94932 9.64585C3.52916 9.64585 4.13561 9.30151 4.77768 8.93689C5.17816 8.70949 5.72666 8.39801 5.96197 8.39801C6.19729 8.39801 6.74584 8.70943 7.14627 8.93689C7.78834 9.30151 8.39479 9.64585 8.97463 9.64585C9.55447 9.64585 10.1609 9.30151 10.803 8.93689C11.2034 8.70949 11.7519 8.39801 11.9872 8.39801C12.2225 8.39801 12.7711 8.70943 13.1715 8.93689C13.8136 9.30151 14.42 9.64585 14.9999 9.64585C15.5797 9.64585 16.1862 9.30151 16.8282 8.93689C17.2287 8.70949 17.7772 8.39801 18.0125 8.39801C18.2479 8.39801 18.7964 8.70943 19.1968 8.93689C19.8388 9.30151 20.4453 9.64585 21.0251 9.64585C21.605 9.64585 22.2114 9.30151 22.8535 8.93689C23.254 8.70949 23.8025 8.39801 24.0378 8.39801C24.2731 8.39801 24.8217 8.70943 25.2221 8.93689C25.8642 9.30151 26.4706 9.64585 27.0504 9.64585C27.6303 9.64585 28.2367 9.30151 28.8788 8.93689C29.247 8.72771 29.7398 8.44823 29.9998 8.40452V7.09604H30Z" fill="#0052B4"/>
<path d="M27.0506 14.8631C26.8153 14.8631 26.2668 14.5517 25.8663 14.3242C25.2243 13.9596 24.6178 13.6152 24.038 13.6152C23.4581 13.6152 22.8517 13.9596 22.2096 14.3242C21.8091 14.5516 21.2606 14.8631 21.0253 14.8631C20.79 14.8631 20.2414 14.5517 19.8411 14.3242C19.199 13.9596 18.5926 13.6152 18.0127 13.6152C17.4329 13.6152 16.8264 13.9596 16.1844 14.3242C15.7839 14.5516 15.2354 14.8631 15.0001 14.8631C14.7647 14.8631 14.2162 14.5517 13.8158 14.3242C13.1737 13.9596 12.5672 13.6152 11.9874 13.6152C11.4076 13.6152 10.8011 13.9596 10.159 14.3242C9.75861 14.5516 9.21012 14.8631 8.9748 14.8631C8.73949 14.8631 8.19094 14.5517 7.79051 14.3242C7.14844 13.9596 6.54199 13.6152 5.96215 13.6152C5.3823 13.6152 4.77586 13.9596 4.13379 14.3242C3.7333 14.5516 3.1848 14.8631 2.94949 14.8631C2.71418 14.8631 2.16563 14.5517 1.76525 14.3242C1.14639 13.9728 0.560742 13.6412 0 13.6175V14.926C0.25998 14.9697 0.752754 15.2492 1.12096 15.4584C1.76303 15.823 2.36947 16.1673 2.94932 16.1673C3.52916 16.1673 4.13561 15.823 4.77768 15.4584C5.17816 15.231 5.72666 14.9195 5.96197 14.9195C6.19729 14.9195 6.74584 15.2309 7.14627 15.4584C7.78834 15.823 8.39479 16.1673 8.97463 16.1673C9.55447 16.1673 10.1609 15.823 10.803 15.4584C11.2034 15.231 11.7519 14.9195 11.9872 14.9195C12.2225 14.9195 12.7711 15.2309 13.1715 15.4584C13.8136 15.823 14.42 16.1673 14.9999 16.1673C15.5797 16.1673 16.1862 15.823 16.8282 15.4584C17.2287 15.231 17.7772 14.9195 18.0125 14.9195C18.2479 14.9195 18.7964 15.2309 19.1968 15.4584C19.8388 15.823 20.4453 16.1673 21.0251 16.1673C21.605 16.1673 22.2114 15.823 22.8535 15.4584C23.254 15.231 23.8025 14.9195 24.0378 14.9195C24.2731 14.9195 24.8217 15.2309 25.2221 15.4584C25.8642 15.823 26.4706 16.1673 27.0504 16.1673C27.6303 16.1673 28.2367 15.823 28.8788 15.4584C29.247 15.2492 29.7398 14.9697 29.9998 14.926V13.6175C29.439 13.6412 28.8534 13.9728 28.2346 14.3242C27.8344 14.5516 27.286 14.8631 27.0506 14.8631Z" fill="#0052B4"/>
<path d="M30 16.8783C29.4393 16.9019 28.8536 17.2336 28.2349 17.5849C27.8344 17.8123 27.2859 18.1238 27.0506 18.1238C26.8153 18.1238 26.2668 17.8124 25.8663 17.5849C25.2243 17.2203 24.6178 16.876 24.038 16.876C23.4581 16.876 22.8517 17.2203 22.2096 17.5849C21.8091 17.8123 21.2606 18.1238 21.0253 18.1238C20.79 18.1238 20.2414 17.8124 19.8411 17.5849C19.199 17.2203 18.5926 16.876 18.0127 16.876C17.4329 16.876 16.8264 17.2203 16.1844 17.5849C15.7839 17.8123 15.2354 18.1238 15.0001 18.1238C14.7647 18.1238 14.2162 17.8124 13.8158 17.5849C13.1737 17.2203 12.5672 16.876 11.9874 16.876C11.4076 16.876 10.8011 17.2203 10.159 17.5849C9.75861 17.8123 9.21012 18.1238 8.9748 18.1238C8.73949 18.1238 8.19094 17.8124 7.79051 17.5849C7.14844 17.2203 6.54199 16.876 5.96215 16.876C5.3823 16.876 4.77586 17.2203 4.13379 17.5849C3.7333 17.8123 3.1848 18.1238 2.94949 18.1238C2.71418 18.1238 2.16563 17.8124 1.76525 17.5849C1.14639 17.2336 0.560742 16.9019 0 16.8783V18.1867C0.25998 18.2305 0.752754 18.5099 1.12096 18.7191C1.76303 19.0837 2.36947 19.4281 2.94932 19.4281C3.52916 19.4281 4.13561 19.0837 4.77768 18.7191C5.17816 18.4917 5.72666 18.1802 5.96197 18.1802C6.19729 18.1802 6.74584 18.4917 7.14627 18.7191C7.78834 19.0837 8.39479 19.4281 8.97463 19.4281C9.55447 19.4281 10.1609 19.0837 10.803 18.7191C11.2034 18.4917 11.7519 18.1802 11.9872 18.1802C12.2225 18.1802 12.7711 18.4917 13.1715 18.7191C13.8136 19.0837 14.42 19.4281 14.9999 19.4281C15.5797 19.4281 16.1862 19.0837 16.8282 18.7191C17.2287 18.4917 17.7772 18.1802 18.0125 18.1802C18.2479 18.1802 18.7964 18.4917 19.1968 18.7191C19.8388 19.0837 20.4453 19.4281 21.0251 19.4281C21.605 19.4281 22.2114 19.0837 22.8535 18.7191C23.254 18.4917 23.8025 18.1802 24.0378 18.1802C24.2731 18.1802 24.8217 18.4917 25.2221 18.7191C25.8642 19.0837 26.4706 19.4281 27.0504 19.4281C27.6303 19.4281 28.2367 19.0837 28.8788 18.7191C29.247 18.5099 29.7398 18.2305 29.9998 18.1867V16.8783H30Z" fill="#0052B4"/>
<path d="M14.9727 9.99937H14.9994C14.9994 9.99035 14.9994 9.98162 14.9994 9.97266C14.9905 9.9815 14.9816 9.99041 14.9727 9.99937Z" fill="#F0F0F0"/>
<path d="M20.543 4.8916H24.456L22.4995 6.84806L20.543 4.8916Z" fill="#6DA544"/>
<path d="M22.934 6.41309H22.0645V8.80435H22.934V6.41309Z" fill="#A2001D"/>
<path d="M22.934 12.7178H22.0645V15.109H22.934V12.7178Z" fill="#A2001D"/>
<path d="M25.1079 11.4126C25.1079 10.6922 24.524 10.1083 23.8036 10.1083C23.4694 10.1083 23.1648 10.234 22.934 10.4406V9.67346H23.3689V8.80395H22.934V8.36914H22.0645V8.80395H21.6297V9.67346H22.0645V10.4406C21.8337 10.234 21.5291 10.1083 21.195 10.1083C20.4746 10.1083 19.8906 10.6922 19.8906 11.4126C19.8906 11.7988 20.0586 12.1457 20.3254 12.3846V13.1517H24.6733V12.3845C24.9399 12.1457 25.1079 11.7988 25.1079 11.4126Z" fill="#FFDA44"/>
<path d="M23.8052 10.9775C23.668 10.9775 23.572 11.0377 23.5156 11.0882L22.9356 11.6074H22.0661L21.4861 11.0882C21.4297 11.0378 21.3337 10.9775 21.1965 10.9775C20.9568 10.9775 20.7617 11.1726 20.7617 11.4124C20.7617 11.5812 20.8528 11.6879 20.907 11.7365L21.1965 11.9958V12.2819H23.8053V11.9957L24.0948 11.7365C24.149 11.6879 24.2401 11.5812 24.2401 11.4123C24.24 11.1726 24.0449 10.9775 23.8052 10.9775Z" fill="#D80027"/>
<path d="M15 0H0V9.99953H15V0Z" fill="#F0F0F0"/>
<path d="M8.4375 0H6.5625V4.06244H0V5.93739H6.5625V9.99983H8.4375V5.93739H15V4.06244H8.4375V0Z" fill="#D80027"/>
<path d="M0 0V0.883689L3.36193 3.12496H4.6875L0 0Z" fill="#D80027"/>
<path d="M0 1.3252V3.12468H2.69936L0 1.3252Z" fill="#2E52B2"/>
<path d="M5.62531 0V2.86592L1.32617 0H5.62531Z" fill="#2E52B2"/>
<path d="M15 0V0.883689L11.6381 3.12496H10.3125L15 0Z" fill="#D80027"/>
<path d="M15.0001 1.3252V3.12468H12.3008L15.0001 1.3252Z" fill="#2E52B2"/>
<path d="M9.375 0V2.86592L13.6741 0H9.375Z" fill="#2E52B2"/>
<path d="M0 0V0.883689L3.36193 3.12496H4.6875L0 0Z" fill="#D80027"/>
<path d="M0 1.3252V3.12468H2.69936L0 1.3252Z" fill="#2E52B2"/>
<path d="M5.62531 0V2.86592L1.32617 0H5.62531Z" fill="#2E52B2"/>
<path d="M15 0V0.883689L11.6381 3.12496H10.3125L15 0Z" fill="#D80027"/>
<path d="M15.0001 1.3252V3.12468H12.3008L15.0001 1.3252Z" fill="#2E52B2"/>
<path d="M9.375 0V2.86592L13.6741 0H9.375Z" fill="#2E52B2"/>
<path d="M0 9.99996V9.11627L3.36193 6.875H4.6875L0 9.99996Z" fill="#D80027"/>
<path d="M0 8.67455V6.875H2.69936L0 8.67455Z" fill="#2E52B2"/>
<path d="M5.62531 9.99965V7.13379L1.32617 9.99965H5.62531Z" fill="#2E52B2"/>
<path d="M15 9.99996V9.11627L11.6381 6.875H10.3125L15 9.99996Z" fill="#D80027"/>
<path d="M15.0001 8.67455V6.875H12.3008L15.0001 8.67455Z" fill="#2E52B2"/>
<path d="M9.375 9.99965V7.13379L13.6741 9.99965H9.375Z" fill="#2E52B2"/>
</svg>
