<svg width="30" height="20" viewBox="0 0 30 20" fill="none" xmlns="http://www.w3.org/2000/svg">
<path d="M30 0H0V19.9997H30V0Z" fill="#0052B4"/>
<path d="M15 0V6.8744H12.3006L15 8.67435V9.99953H13.6741L9.375 7.13326V9.99953H5.625V7.13326L1.32586 9.99953H0V8.67435L2.69936 6.8744H0V3.12449H2.69936L0 1.32518V0H1.32586L5.625 2.86557V0H9.375V2.86557L13.6741 0H15Z" fill="#F0F0F0"/>
<path d="M8.4375 0H6.5625V4.06238H0V5.93733H6.5625V9.99977H8.4375V5.93733H15V4.06238H8.4375V0Z" fill="#D80027"/>
<path d="M0 0V0.883747L3.36193 3.12496H4.6875L0 0Z" fill="#D80027"/>
<path d="M15 0V0.883747L11.6381 3.12496H10.3125L15 0Z" fill="#D80027"/>
<path d="M15.0001 1.3252V3.12468H12.3008L15.0001 1.3252Z" fill="#2E52B2"/>
<path d="M0 0V0.883747L3.36193 3.12496H4.6875L0 0Z" fill="#D80027"/>
<path d="M15 0V0.883747L11.6381 3.12496H10.3125L15 0Z" fill="#D80027"/>
<path d="M15.0001 1.3252V3.12468H12.3008L15.0001 1.3252Z" fill="#2E52B2"/>
<path d="M0 9.99996V9.11627L3.36193 6.875H4.6875L0 9.99996Z" fill="#D80027"/>
<path d="M15 9.99996V9.11627L11.6381 6.875H10.3125L15 9.99996Z" fill="#D80027"/>
<path d="M22.4997 10.2168L19.7969 12.9196C20.3034 13.8966 21.3233 14.5645 22.4997 14.5645C23.6762 14.5645 24.6961 13.8966 25.2026 12.9196L22.4997 10.2168Z" fill="#FFDA44"/>
<path d="M19.457 5.43457V10.217V10.2171C19.4571 12.5467 22.5005 13.2604 22.5005 13.2604C22.5005 13.2604 25.5439 12.5467 25.544 10.217V10.217V5.43457H19.457Z" fill="#6DA544"/>
<path d="M23.152 7.6084H21.8477V11.0864H23.152V7.6084Z" fill="#F0F0F0"/>
<path d="M22.4998 8.26032C22.86 8.26032 23.152 7.96835 23.152 7.60819C23.152 7.24802 22.86 6.95605 22.4998 6.95605C22.1396 6.95605 21.8477 7.24802 21.8477 7.60819C21.8477 7.96835 22.1396 8.26032 22.4998 8.26032Z" fill="#A2001D"/>
<path d="M21.1957 6.30371H20.3262V7.17322H21.1957V6.30371Z" fill="#FFDA44"/>
<path d="M21.1957 8.26074H20.3262V9.13025H21.1957V8.26074Z" fill="#FFDA44"/>
<path d="M21.1957 10.2168H20.3262V11.0863H21.1957V10.2168Z" fill="#FFDA44"/>
<path d="M24.6742 6.30371H23.8047V7.17322H24.6742V6.30371Z" fill="#FFDA44"/>
<path d="M24.6742 8.26074H23.8047V9.13025H24.6742V8.26074Z" fill="#FFDA44"/>
<path d="M24.6742 10.2168H23.8047V11.0863H24.6742V10.2168Z" fill="#FFDA44"/>
</svg>
