<svg width="30" height="20" viewBox="0 0 30 20" fill="none" xmlns="http://www.w3.org/2000/svg">
<path d="M30 0H0V20H30V0Z" fill="#FFDA44"/>
<path d="M0 6.66506L30 18.8049V16.0703L16.0097 10.5394L0 3.93066V6.66506Z" fill="black"/>
<path d="M30 16.0696V13.3353L0 1.19531V3.93012" fill="#F0F0F0"/>
<path d="M17.8248 8.91351C17.8248 10.4741 16.5597 11.7392 14.9992 11.7392C13.4387 11.7392 12.1736 10.4741 12.1736 8.91351C12.1736 8.42693 12.2966 7.96907 12.5132 7.56934C11.9 8.19642 11.5215 9.05396 11.5215 10.0003C11.5215 11.921 13.0785 13.4781 14.9992 13.4781C16.9199 13.4781 18.4769 11.921 18.4769 10.0003C18.4769 9.05402 18.0984 8.19642 17.4852 7.56934C17.7018 7.96907 17.8248 8.42693 17.8248 8.91351Z" fill="#D80027"/>
<path d="M15.6518 5.65234H14.3477V12.1729H15.6518V5.65234Z" fill="#D80027"/>
<path d="M17.1733 6.95703H12.8262C12.8262 7.25715 13.0876 7.50044 13.3877 7.50044H13.3696C13.3696 7.80057 13.6129 8.04385 13.913 8.04385C13.913 8.34398 14.1563 8.58726 14.4564 8.58726H15.5432C15.8433 8.58726 16.0866 8.34398 16.0866 8.04385C16.3867 8.04385 16.63 7.80057 16.63 7.50044H16.6119C16.9119 7.50044 17.1733 7.25721 17.1733 6.95703Z" fill="#D80027"/>
<path d="M18.0431 12.6084H11.957V13.9126H18.0431V12.6084Z" fill="#D80027"/>
<path d="M18.9129 13.043H16.3047V14.3472H18.9129V13.043Z" fill="#D80027"/>
<path d="M13.6961 13.043H11.0879V14.3472H13.6961V13.043Z" fill="#D80027"/>
</svg>
