<svg width="30" height="20" viewBox="0 0 30 20" fill="none" xmlns="http://www.w3.org/2000/svg">
<path d="M30 0H0V19.9994H30V0Z" fill="#D80027"/>
<path d="M12.6483 9.99993L0 18.4318V1.56738L12.6483 9.99993Z" fill="#6DA544"/>
<path d="M29.9998 1.56738V18.4318L17.3516 9.99993L29.9998 1.56738Z" fill="#6DA544"/>
<path d="M30 1.56783L17.3517 10.0004L30 18.4322V20H27.6489L15 11.5675L2.35107 20H0V18.4322L12.6483 10.0004L0 1.56783V0H2.35107L15 8.43255L27.6489 0H30V1.56783Z" fill="#0052B4"/>
<path d="M30 1.56783L17.3517 10.0004L30 18.4322V20H27.6489L15 11.5675L2.35107 20H0V18.4322L12.6483 10.0004L0 1.56783V0H2.35107L15 8.43255L27.6489 0H30V1.56783Z" fill="#F0F0F0"/>
<path d="M15.0004 14.3484C17.4018 14.3484 19.3485 12.4017 19.3485 10.0004C19.3485 7.59902 17.4018 5.65234 15.0004 5.65234C12.599 5.65234 10.6523 7.59902 10.6523 10.0004C10.6523 12.4017 12.599 14.3484 15.0004 14.3484Z" fill="#F0F0F0"/>
<path d="M15.0007 6.95703L15.3772 7.60917H16.1302L15.7537 8.26131L16.1302 8.91351H15.3772L15.0007 9.56566L14.6241 8.91351H13.8711L14.2476 8.26131L13.8711 7.60917H14.6241L15.0007 6.95703Z" fill="#D80027"/>
<path d="M13.0867 10L13.4631 10.6521H14.2162L13.8397 11.3043L14.2162 11.9565H13.4631L13.0867 12.6087L12.7101 11.9565H11.957L12.3336 11.3043L11.957 10.6521H12.7101L13.0867 10Z" fill="#D80027"/>
<path d="M16.9147 10L17.2913 10.6521H18.0444L17.6678 11.3043L18.0444 11.9565H17.2913L16.9147 12.6087L16.5383 11.9565H15.7852L16.1617 11.3043L15.7852 10.6521H16.5383L16.9147 10Z" fill="#D80027"/>
</svg>
