<svg width="30" height="20" viewBox="0 0 30 20" fill="none" xmlns="http://www.w3.org/2000/svg">
<path d="M30 0H0V20H30V0Z" fill="#0052B4"/>
<path d="M30 13.9131H0V15.2174H30V13.9131Z" fill="#D80027"/>
<path d="M30 12.6084H0V13.9127H30V12.6084Z" fill="#F0F0F0"/>
<path d="M30 15.2168H0V16.5211H30V15.2168Z" fill="#F0F0F0"/>
<path d="M10.57 10.3086L10.746 10.8505H11.3158L10.8549 11.1854L11.031 11.7273L10.57 11.3924L10.109 11.7273L10.2851 11.1854L9.82422 10.8505H10.394L10.57 10.3086Z" fill="#FFDA44"/>
<path d="M10.57 17.4023L10.746 17.9442H11.3158L10.8549 18.279L11.031 18.8209L10.57 18.486L10.109 18.8209L10.2851 18.279L9.82422 17.9442H10.394L10.57 17.4023Z" fill="#FFDA44"/>
<path d="M7.26732 15.0029L7.44334 15.5449H8.01316L7.55227 15.8797L7.72828 16.4216L7.26732 16.0867L6.80637 16.4216L6.98244 15.8797L6.52148 15.5449H7.09131L7.26732 15.0029Z" fill="#FFDA44"/>
<path d="M8.52904 11.0186L8.70506 11.5604H9.27488L8.81398 11.8953L8.99 12.4372L8.52904 12.1023L8.06809 12.4372L8.24416 11.8953L7.7832 11.5604H8.35303L8.52904 11.0186Z" fill="#FFDA44"/>
<path d="M6.52148 13.2499L7.09119 13.2499L7.26727 12.708L7.44334 13.2499L8.01316 13.2498L7.55221 13.5847L7.72828 14.1267L7.26727 13.7918L6.80637 14.1265L6.98238 13.5847L6.52148 13.2499Z" fill="#FFDA44"/>
<path d="M8.06814 18.0084L8.24422 17.4667L7.7832 17.1317H8.35303L8.5291 16.5898L8.70518 17.1317H9.27494L8.81399 17.4666L8.99 18.0085L8.52904 17.6736L8.06814 18.0084Z" fill="#FFDA44"/>
<path d="M13.8708 15.0029L13.6948 15.5449H13.125L13.5858 15.8797L13.4098 16.4216L13.8708 16.0867L14.3317 16.4216L14.1557 15.8797L14.6166 15.5449H14.0468L13.8708 15.0029Z" fill="#FFDA44"/>
<path d="M12.6091 11.0186L12.4331 11.5604H11.8633L12.3242 11.8953L12.1482 12.4372L12.6091 12.1023L13.0701 12.4372L12.894 11.8953L13.355 11.5604H12.7851L12.6091 11.0186Z" fill="#FFDA44"/>
<path d="M14.6166 13.2499L14.047 13.2499L13.8708 12.708L13.6948 13.2499L13.125 13.2498L13.586 13.5847L13.4098 14.1267L13.8708 13.7918L14.3317 14.1265L14.1557 13.5847L14.6166 13.2499Z" fill="#FFDA44"/>
<path d="M13.0701 18.0084L12.894 17.4667L13.355 17.1317H12.7852L12.6091 16.5898L12.433 17.1317H11.8633L12.3242 17.4666L12.1482 18.0085L12.6092 17.6736L13.0701 18.0084Z" fill="#FFDA44"/>
</svg>
