<svg width="30" height="20" viewBox="0 0 30 20" fill="none" xmlns="http://www.w3.org/2000/svg">
<path d="M30 0H0V19.9997H30V0Z" fill="#0052B4"/>
<path d="M22.5009 7.39136C23.4614 7.39136 24.2401 6.61272 24.2401 5.65222C24.2401 4.69172 23.4614 3.91309 22.5009 3.91309C21.5404 3.91309 20.7617 4.69172 20.7617 5.65222C20.7617 6.61272 21.5404 7.39136 22.5009 7.39136Z" fill="#6DA544"/>
<path d="M25.5438 5.21777H19.457V7.82642H25.5438V5.21777Z" fill="#D80027"/>
<path d="M19.457 11.7393V13.4784H20.372C20.9207 14.016 21.6716 14.3479 22.5005 14.3479C23.3294 14.3479 24.0803 14.016 24.629 13.4784H24.6745H25.544V11.7393H19.457Z" fill="#FFDA44"/>
<path d="M19.457 7.3916V10.0002C19.457 12.3298 22.5005 13.0436 22.5005 13.0436C22.5005 13.0436 25.544 12.3299 25.544 10.0002V7.3916H19.457Z" fill="#338AF3"/>
<path d="M22.5004 8.78418C21.7396 8.78418 21.7396 9.47985 20.9787 9.47985C20.2179 9.47985 20.2179 8.78418 19.457 8.78418V10.0016C20.2179 10.0016 20.2179 10.6972 20.9787 10.6972C21.7396 10.6972 21.7396 10.0016 22.5004 10.0016C23.2613 10.0016 23.2613 10.6972 24.0222 10.6972C24.7831 10.6972 24.7831 10.0016 25.5441 10.0016V8.78418C24.7832 8.78418 24.7832 9.47985 24.0222 9.47985C23.2613 9.47979 23.2613 8.78418 22.5004 8.78418Z" fill="#F3F3F3"/>
<path d="M22.5004 6.34766C21.7396 6.34766 21.7396 7.04332 20.9787 7.04332C20.2179 7.04332 20.2179 6.34766 19.457 6.34766V7.56503C20.2179 7.56503 20.2179 8.26069 20.9787 8.26069C21.7396 8.26069 21.7396 7.56503 22.5004 7.56503C23.2613 7.56503 23.2613 8.26069 24.0222 8.26069C24.7831 8.26069 24.7831 7.56503 25.5441 7.56503V6.34766C24.7832 6.34766 24.7832 7.04332 24.0222 7.04332C23.2613 7.04332 23.2613 6.34766 22.5004 6.34766Z" fill="#F3F3F3"/>
<path d="M15 0V1.32518L12.3006 3.12449H15V6.8744H12.3006L15 8.67435V9.99953H13.6741L9.375 7.13326V9.99953H5.625V7.13326L1.32586 9.99953H0V8.67435L2.69936 6.8744H0V3.12449H2.69936L0 1.32518V0H1.32586L5.625 2.86557V0H9.375V2.86557L13.6741 0H15Z" fill="#F0F0F0"/>
<path d="M8.4375 0H6.5625V4.06244H0V5.93739H6.5625V9.99983H8.4375V5.93739H15V4.06244H8.4375V0Z" fill="#D80027"/>
<path d="M0 0V0.883689L3.36193 3.12496H4.6875L0 0Z" fill="#D80027"/>
<path d="M15 0V0.883689L11.6381 3.12496H10.3125L15 0Z" fill="#D80027"/>
<path d="M0 0V0.883689L3.36193 3.12496H4.6875L0 0Z" fill="#D80027"/>
<path d="M15 0V0.883689L11.6381 3.12496H10.3125L15 0Z" fill="#D80027"/>
<path d="M0 9.99996V9.11627L3.36193 6.875H4.6875L0 9.99996Z" fill="#D80027"/>
<path d="M15 9.99996V9.11627L11.6381 6.875H10.3125L15 9.99996Z" fill="#D80027"/>
</svg>
