<svg width="30" height="20" viewBox="0 0 30 20" fill="none" xmlns="http://www.w3.org/2000/svg">
<path d="M30 0H0V19.9998H30V0Z" fill="#D80027"/>
<path d="M12.3913 10H0V15.0001H12.3913V10Z" fill="#6DA544"/>
<path d="M30.0007 10H17.6094V15.0001H30.0007V10Z" fill="#6DA544"/>
<path d="M0 0V0.000175681V4.99982H12.3913V0.000175681H17.6087V4.99982H30V0.000175681V0H0Z" fill="#0052B4"/>
<path d="M30.0007 5H17.6094V10.0001H30.0007V5Z" fill="#F0F0F0"/>
<path d="M12.3913 5H0V10.0001H12.3913V5Z" fill="#F0F0F0"/>
<path d="M17.6087 19.9996H12.3913V15H0V19.9996V19.9998H30V19.9996V15H17.6087V19.9996Z" fill="#FFDA44"/>
<path d="M7.01195 1.52148L7.28172 2.35186H8.15488L7.44859 2.86507L7.71836 3.69539L7.01195 3.18223L6.30566 3.69539L6.57549 2.86507L5.86914 2.35186H6.74219L7.01195 1.52148Z" fill="#FFDA44"/>
</svg>
