<svg width="30" height="20" viewBox="0 0 30 20" fill="none" xmlns="http://www.w3.org/2000/svg">
<path d="M30 0H0V19.9998H30V0Z" fill="#F0F0F0"/>
<path d="M5 0L15 9.99977V0H5Z" fill="black"/>
<path d="M0 19.9998H5.00004L15 10H0V19.9998Z" fill="black"/>
<path d="M25 19.9998L15 10V19.9998H25Z" fill="black"/>
<path d="M25 0L15 9.99977H30V0H25Z" fill="black"/>
<path d="M11.5215 6.95669L14.9997 7.39151L18.478 6.95669V4.86974L17.0867 5.56541L14.9997 3.47852L12.9128 5.56541L11.5215 4.86974V6.95669Z" fill="#FFDA44"/>
<path d="M14.9997 15.2167C13.0818 15.2167 11.5215 13.6564 11.5215 11.7385V8.26044L12.8258 6.95605H17.1737L18.478 8.26044V11.7385C18.478 13.6564 16.9176 15.2167 14.9997 15.2167Z" fill="#D80027"/>
<path d="M15.0001 13.9127C13.8013 13.9127 12.8262 12.9375 12.8262 11.7389V8.26074H17.174V11.7389C17.1739 12.9375 16.1988 13.9127 15.0001 13.9127Z" fill="#F0F0F0"/>
<path d="M12.8258 6.95605H11.5215V8.26038H12.8258V6.95605Z" fill="#FFDA44"/>
<path d="M18.4782 6.95605H17.1738V8.26038H18.4782V6.95605Z" fill="#FFDA44"/>
<path d="M18.4782 9.78223H17.1738V11.0866H18.4782V9.78223Z" fill="#FFDA44"/>
<path d="M12.8258 9.78223H11.5215V11.0866H12.8258V9.78223Z" fill="#FFDA44"/>
<path d="M14.9998 13.9126C14.7726 13.9126 14.5536 13.8775 14.3477 13.8125V15.1547C14.5591 15.1951 14.7769 15.217 14.9998 15.217C15.2228 15.217 15.4405 15.1951 15.652 15.1547V13.8125C15.446 13.8775 15.227 13.9126 14.9998 13.9126Z" fill="#FFDA44"/>
<path d="M12.8554 12.0918L11.8145 13.1328C11.995 13.5437 12.2524 13.9131 12.5689 14.2229L13.4908 13.3011C13.1618 12.9832 12.9327 12.5629 12.8554 12.0918Z" fill="#FFDA44"/>
<path d="M18.1861 13.1328L17.1451 12.0918C17.0678 12.5628 16.8387 12.9831 16.5098 13.301L17.4316 14.2229C17.7481 13.9131 18.0055 13.5437 18.1861 13.1328Z" fill="#FFDA44"/>
<path d="M14.5645 8.98535V9.70997C14.5645 9.95008 14.7591 10.1448 14.9993 10.1448C15.2394 10.1448 15.4341 9.95014 15.4341 9.70997V8.98535H14.5645Z" fill="#0052B4"/>
<path d="M14.5645 11.8838V12.6084C14.5645 12.8485 14.7591 13.0432 14.9993 13.0432C15.2394 13.0432 15.4341 12.8486 15.4341 12.6084V11.8838H14.5645Z" fill="#0052B4"/>
<path d="M15.8691 10.4346V11.1592C15.8691 11.3993 16.0638 11.5941 16.304 11.5941C16.5441 11.5941 16.7388 11.3993 16.7388 11.1592V10.4346H15.8691Z" fill="#0052B4"/>
<path d="M14.5645 10.4346V11.1592C14.5645 11.3993 14.7591 11.5941 14.9993 11.5941C15.2394 11.5941 15.4341 11.3993 15.4341 11.1592V10.4346H14.5645Z" fill="#0052B4"/>
<path d="M13.2617 10.4346V11.1592C13.2617 11.3993 13.4564 11.5941 13.6965 11.5941C13.9367 11.5941 14.1314 11.3993 14.1314 11.1592V10.4346H13.2617Z" fill="#0052B4"/>
</svg>
