<svg width="30" height="20" viewBox="0 0 30 20" fill="none" xmlns="http://www.w3.org/2000/svg">
<path d="M30 0H0V20H30V0Z" fill="#D80027"/>
<path d="M10.4836 6.10742L11.3423 8.75038H14.1213L11.873 10.3838L12.7319 13.0269L10.4836 11.3934L8.23525 13.0269L9.094 10.3838L6.8457 8.75038H9.62475L10.4836 6.10742Z" fill="#FFDA44"/>
<path d="M15.8968 14.8976L15.0536 14.285L14.2106 14.8975L14.5326 13.9065L13.6895 13.2939H14.7316L15.0536 12.3027L15.3758 13.2939H16.4179L15.5748 13.9064L15.8968 14.8976Z" fill="#FFDA44"/>
<path d="M18.0955 11.8703H17.0535L16.7314 12.8613L16.4094 11.8704L15.3672 11.8703L16.2104 11.2577L15.8883 10.2666L16.7314 10.8791L17.5745 10.2666L17.2525 11.2577L18.0955 11.8703Z" fill="#FFDA44"/>
<path d="M18.0955 8.12886L17.2525 8.74145L17.5745 9.73249L16.7314 9.12002L15.8883 9.73261L16.2104 8.74139L15.3672 8.12897L16.4095 8.12886L16.7314 7.1377L17.0535 8.12886H18.0955Z" fill="#FFDA44"/>
<path d="M15.8967 5.10162L15.5748 6.09278L16.4178 6.70526L15.3757 6.70531L15.0536 7.69654L14.7315 6.70526L13.6895 6.70537L14.5326 6.09272L14.2105 5.10156L15.0536 5.71415L15.8967 5.10162Z" fill="#FFDA44"/>
</svg>
