<svg width="30" height="20" viewBox="0 0 30 20" fill="none" xmlns="http://www.w3.org/2000/svg">
<path d="M30 0H0V19.9998H30V0Z" fill="#0052B4"/>
<path d="M0 0H30V19.9995" fill="#6DA544"/>
<path d="M14.9993 12.6079C16.4401 12.6079 17.608 11.44 17.608 9.99929C17.608 8.55856 16.4401 7.39062 14.9993 7.39062C13.5586 7.39062 12.3906 8.55856 12.3906 9.99929C12.3906 11.44 13.5586 12.6079 14.9993 12.6079Z" fill="#FFDA44"/>
<path d="M7.47436 15.6514L7.74881 16.2252L8.36844 16.082L8.09094 16.6542L8.58922 17.0494L7.96883 17.1892L7.97053 17.8252L7.47436 17.4273L6.97818 17.8252L6.97988 17.1892L6.35938 17.0494L6.85777 16.6542L6.58027 16.082L7.1999 16.2252L7.47436 15.6514Z" fill="#F0F0F0"/>
<path d="M5.67937 10.8691L5.95377 11.4429L6.5734 11.2997L6.29596 11.8721L6.79424 12.2672L6.17385 12.407L6.17555 13.043L5.67937 12.6451L5.18314 13.043L5.18484 12.407L4.56445 12.2672L5.06279 11.8721L4.78529 11.2997L5.40492 11.4429L5.67937 10.8691Z" fill="#F0F0F0"/>
<path d="M7.4743 6.95605L7.74875 7.52979L8.36838 7.38659L8.09088 7.95893L8.58916 8.35407L7.96877 8.49388L7.97047 9.12996L7.4743 8.732L6.97813 9.12996L6.97982 8.49388L6.35938 8.35407L6.85766 7.95893L6.58022 7.38659L7.19984 7.52979L7.4743 6.95605Z" fill="#F0F0F0"/>
<path d="M9.70477 10L9.97922 10.5738L10.5989 10.4305L10.3214 11.0029L10.8196 11.398L10.1992 11.5379L10.2009 12.1738L9.70477 11.7759L9.20865 12.1738L9.21035 11.5379L8.58984 11.398L9.08818 11.0029L8.81068 10.4305L9.43037 10.5738L9.70477 10Z" fill="#F0F0F0"/>
<path d="M8.10961 12.6084L8.32547 13.2727H9.02396L8.45889 13.6832L8.67475 14.3475L8.10961 13.937L7.54459 14.3475L7.76045 13.6832L7.19531 13.2727H7.89381L8.10961 12.6084Z" fill="#F0F0F0"/>
<path d="M14.999 11.7387H15.8685C15.8685 11.7387 16.2454 11.0722 15.8685 10.4344L16.7381 9.56489L16.3033 8.69531H15.8685C15.8685 8.69531 15.6511 9.34745 14.7815 9.34745C13.9119 9.34745 13.6946 8.69531 13.6946 8.69531H13.2598L13.6946 9.56483L13.2598 10.4343L13.6946 10.8692C13.6946 10.8692 14.1294 9.99964 14.9989 10.4343C14.9989 10.4343 15.3686 10.9778 14.999 11.7387Z" fill="#6DA544"/>
<path d="M23.2293 6.76658C23.2498 6.65977 23.2607 6.54956 23.2607 6.43676C23.2607 5.66334 22.7557 5.00822 22.0576 4.78223C22.2709 5.21581 22.3911 5.70348 22.3911 6.21933C22.3911 6.39335 22.3771 6.56397 22.3508 6.73061C22.2458 6.56139 22.1108 6.40671 21.9459 6.27546C21.3248 5.78123 20.476 5.76816 19.8485 6.18441C20.3329 6.29017 20.8014 6.5052 21.2157 6.8349C21.5401 7.093 21.8023 7.44216 22.0029 7.77918L19.3477 8.61061C21.9564 9.04542 24.1303 7.30628 24.1303 7.30628C23.8894 6.82459 23.5153 6.74344 23.2293 6.76658Z" fill="#FFDA44"/>
</svg>
