<svg width="30" height="20" viewBox="0 0 30 20" fill="none" xmlns="http://www.w3.org/2000/svg">
<path d="M30 0H0V20H30V0Z" fill="#6DA544"/>
<path d="M20.3512 14.3477L20.6256 14.9214L21.2453 14.7782L20.9678 15.3505L21.4661 15.7457L20.8457 15.8854L20.8474 16.5215L20.3512 16.1236L19.855 16.5215L19.8567 15.8854L19.2363 15.7457L19.7346 15.3505L19.4571 14.7782L20.0767 14.9214L20.3512 14.3477Z" fill="#FFDA44"/>
<path d="M17.7985 8.26074L18.0729 8.8346L18.6926 8.69128L18.415 9.26362L18.9134 9.65877L18.2929 9.79864L18.2946 10.4347L17.7985 10.0367L17.3023 10.4347L17.304 9.79864L16.6836 9.65877L17.1819 9.26362L16.9043 8.69128L17.524 8.8346L17.7985 8.26074Z" fill="#FFDA44"/>
<path d="M20.3512 4.78223L20.6256 5.35597L21.2453 5.21271L20.9678 5.78511L21.4661 6.18026L20.8457 6.32012L20.8474 6.95609L20.3512 6.55818L19.855 6.95609L19.8567 6.32012L19.2363 6.18026L19.7346 5.78511L19.4571 5.21271L20.0767 5.35597L20.3512 4.78223Z" fill="#FFDA44"/>
<path d="M22.5798 7.39062L22.8542 7.96437L23.4739 7.82117L23.1964 8.3935L23.6946 8.78866L23.0742 8.92846L23.0759 9.56449L22.5798 9.16658L22.0836 9.56449L22.0853 8.92846L21.4648 8.78866L21.9632 8.3935L21.6857 7.82117L22.3054 7.96437L22.5798 7.39062Z" fill="#FFDA44"/>
<path d="M20.9866 10.4346L21.2024 11.0989H21.9009L21.3358 11.5094L21.5517 12.1736L20.9866 11.7631L20.4215 12.1736L20.6374 11.5094L20.0723 11.0989H20.7708L20.9866 10.4346Z" fill="#FFDA44"/>
<path d="M16.0868 12.8258C14.5259 12.8258 13.2606 11.5605 13.2606 9.99969C13.2606 8.43889 14.5259 7.17363 16.0868 7.17363C16.5734 7.17363 17.0313 7.29667 17.4311 7.51329C16.8039 6.9 15.9463 6.52148 14.9997 6.52148C13.0788 6.52148 11.5215 8.07871 11.5215 9.99969C11.5215 11.9207 13.0787 13.4779 14.9997 13.4779C15.9463 13.4779 16.8039 13.0994 17.4311 12.4861C17.0313 12.7027 16.5734 12.8258 16.0868 12.8258Z" fill="#FFDA44"/>
<path d="M11.2891 3.91249C10.9883 3.39277 10.4267 3.04297 9.7832 3.04297C9.13967 3.04297 8.57805 3.39283 8.27734 3.91249H11.2891Z" fill="#FFDA44"/>
<path d="M11.2937 3.92285L9.78209 5.4345L8.27043 3.92285C8.126 4.17644 8.04297 4.46958 8.04297 4.78235C8.04297 5.74287 8.82162 6.52151 9.78215 6.52151C10.7427 6.52151 11.5213 5.74287 11.5213 4.78235C11.5212 4.46958 11.4382 4.17644 11.2937 3.92285Z" fill="#FFDA44"/>
<path d="M9.34766 5V6.46694C9.48664 6.50268 9.6323 6.52172 9.78248 6.52172C9.93266 6.52172 10.0783 6.50268 10.2173 6.46694V5H9.34766Z" fill="#A2001D"/>
</svg>
