<svg width="30" height="20" viewBox="0 0 30 20" fill="none" xmlns="http://www.w3.org/2000/svg">
<path d="M30 0H0V19.9994H30V0Z" fill="#0052B4"/>
<path d="M30 0H0V5.00016H30V0Z" fill="#FFDA44"/>
<path d="M30 5H0V10.0002H30V5Z" fill="#F0F0F0"/>
<path d="M30 10H0V15.0002H30V10Z" fill="#D80027"/>
<path d="M15 10.0004L0 20V0L15 10.0004Z" fill="#6DA544"/>
<path d="M4.02109 10.0005C4.02109 8.54356 5.04508 7.3264 6.41242 7.02781C6.20225 6.98188 5.98422 6.95703 5.76027 6.95703C4.07934 6.95703 2.7168 8.31961 2.7168 10.0005C2.7168 11.6813 4.07939 13.0439 5.76027 13.0439C5.98422 13.0439 6.20225 13.019 6.41242 12.9731C5.04502 12.6745 4.02109 11.4574 4.02109 10.0005Z" fill="#F0F0F0"/>
<path d="M6.37914 7.3916L6.54098 7.88982H7.06481L6.64105 8.19778L6.80289 8.69594L6.37914 8.38804L5.95527 8.69594L6.11723 8.19778L5.69336 7.88982H6.21719L6.37914 7.3916Z" fill="#F0F0F0"/>
<path d="M6.37914 8.69531L6.54098 9.19353H7.06481L6.64105 9.50144L6.80289 9.99965L6.37914 9.69175L5.95527 9.99965L6.11723 9.50144L5.69336 9.19353H6.21719L6.37914 8.69531Z" fill="#F0F0F0"/>
<path d="M6.37914 10L6.54098 10.4982H7.06481L6.64105 10.8061L6.80289 11.3043L6.37914 10.9964L5.95527 11.3043L6.11723 10.8061L5.69336 10.4982H6.21719L6.37914 10Z" fill="#F0F0F0"/>
<path d="M6.37914 11.3047L6.54098 11.8028H7.06481L6.64105 12.1108L6.80289 12.609L6.37914 12.3011L5.95527 12.609L6.11723 12.1108L5.69336 11.8028H6.21719L6.37914 11.3047Z" fill="#F0F0F0"/>
</svg>
