<svg width="30" height="20" viewBox="0 0 30 20" fill="none" xmlns="http://www.w3.org/2000/svg">
<path d="M30 0H0V19.9999H30V0Z" fill="#0052B4"/>
<path d="M22.5002 4.18164L22.8097 5.13401H23.8111L23.0009 5.72258L23.3104 6.67495L22.5002 6.08626L21.6901 6.67495L21.9995 5.72258L21.1895 5.13401H22.1908L22.5002 4.18164Z" fill="#F0F0F0"/>
<path d="M18.3862 5.88623L19.2785 6.34079L19.9865 5.63281L19.8299 6.6218L20.7221 7.07643L19.7331 7.23304L19.5764 8.22209L19.1218 7.3299L18.1328 7.48652L18.841 6.77848L18.3862 5.88623Z" fill="#F0F0F0"/>
<path d="M16.6816 10.0002L17.634 9.69075L17.6341 8.68945L18.2226 9.4995L19.175 9.19001L18.5863 10.0002L19.175 10.8103L18.2226 10.5009L17.6341 11.311V10.3096L16.6816 10.0002Z" fill="#F0F0F0"/>
<path d="M18.3862 14.1132L18.8409 13.2209L18.1328 12.5129L19.1219 12.6695L19.5764 11.7773L19.7331 12.7663L20.7221 12.9229L19.8299 13.3775L19.9865 14.3667L19.2785 13.6585L18.3862 14.1132Z" fill="#F0F0F0"/>
<path d="M22.5003 15.8175L22.1909 14.8652H21.1895L21.9996 14.2766L21.6903 13.3242L22.5003 13.9127L23.3105 13.3242L23.0011 14.2766L23.8112 14.8652H22.8099L22.5003 15.8175Z" fill="#F0F0F0"/>
<path d="M26.6132 14.1132L25.7209 13.6586L25.0129 14.3667L25.1696 13.3775L24.2773 12.9231L25.2663 12.7663L25.4231 11.7773L25.8775 12.6695L26.8667 12.5129L26.1585 13.221L26.6132 14.1132Z" fill="#F0F0F0"/>
<path d="M28.3176 10.0002L27.3652 10.3096V11.311L26.7766 10.5009L25.8242 10.8103L26.4129 10.0002L25.8242 9.19001L26.7766 9.4995L27.3652 8.68945V9.69075L28.3176 10.0002Z" fill="#F0F0F0"/>
<path d="M26.6132 5.88628L26.1587 6.77842L26.8667 7.48646L25.8775 7.32984L25.4231 8.22203L25.2663 7.23299L24.2773 7.07625L25.1696 6.62174L25.0129 5.63281L25.721 6.34073L26.6132 5.88628Z" fill="#F0F0F0"/>
<path d="M0 5.93756V6.87505H2.69936L0 8.67455V9.11628L3.36193 6.87499H4.6875L0 9.99998H6.5625V5.9375L0 5.93756ZM5.625 9.99987H1.32586L5.625 7.13391V9.99987Z" fill="#F0F0F0"/>
<path d="M10.3125 3.125L15 0H8.4375V4.06248H15V3.125H12.3006L15 1.32537V0.88364L11.6381 3.12488H10.3125V3.125ZM9.375 0.000117122H13.6741L9.375 2.86607V0.000117122Z" fill="#F0F0F0"/>
<path d="M8.4375 9.99993H15L10.3125 6.87493H11.6381L15 9.11629V8.67455L12.3006 6.87499H15V5.9375H8.4375V9.99993ZM9.375 7.13385L13.6741 9.99981H9.375V7.13385Z" fill="#F0F0F0"/>
<path d="M6.5625 0H0L4.6875 3.125H3.36193L0 0.883699V1.32543L2.69936 3.12494H0V4.06242H6.5625V0ZM5.625 2.86607L1.32586 0.000117122H5.625V2.86607Z" fill="#F0F0F0"/>
<path d="M8.4375 0H6.5625V4.06248H0V5.93746H6.5625V9.99988H8.4375V5.93746H15V4.06248H8.4375V0Z" fill="#D80027"/>
<path d="M4.6875 3.125L0 0V0.883699L3.36193 3.125H4.6875Z" fill="#D80027"/>
<path d="M10.3125 3.125H11.6381L15 0.883699V0L10.3125 3.125Z" fill="#D80027"/>
<path d="M3.36193 6.875L0 9.1163V9.99994L4.6875 6.875H3.36193Z" fill="#D80027"/>
<path d="M10.3125 6.875L15 9.99994V9.1163L11.6381 6.875H10.3125Z" fill="#D80027"/>
</svg>
