<svg width="30" height="20" viewBox="0 0 30 20" fill="none" xmlns="http://www.w3.org/2000/svg">
<path d="M30 0H0V20H30V0Z" fill="#F0F0F0"/>
<path d="M18.4816 8.4701C18.4816 6.35512 16.7671 4.64062 14.6521 4.64062C13.0915 4.64062 11.7497 5.5746 11.1532 6.9138L10.6808 8.62607L11.1156 9.06089L10.2461 10.8001L11.1156 11.2349L10.6808 11.6697V12.1045L11.1156 12.5393V13.4089L11.5504 13.8437L12.8548 13.4089C12.8548 13.4089 12.8548 13.8437 13.2896 14.2784C13.7245 14.7131 14.1592 15.5828 14.1592 15.5828C14.1592 15.5828 15.4636 16.0176 16.3331 14.7133C17.2026 13.4089 18.0723 12.9741 18.0723 12.9741L17.2341 11.2977C18.0005 10.5975 18.4816 9.59016 18.4816 8.4701Z" fill="black"/>
<path d="M18.7936 9.93433C20.5603 9.63627 20.8547 6.17676 20.8547 6.17676H18.4199C19.6807 9.2202 18.3611 9.42493 18.3611 9.42493C18.1823 9.29192 11.784 6.2609 11.5811 6.18379C11.5322 6.24918 11.3524 6.42091 11.1337 6.95569C10.9151 7.49047 10.8613 7.97158 10.8613 7.97158C10.9638 8.03832 17.7589 10.411 17.9385 10.4308C18.2949 10.6639 18.7335 11.3607 18.4884 13.4271L20.8319 12.7666C20.8318 12.7666 20.0365 10.6508 18.7936 9.93433Z" fill="#ACABB1"/>
</svg>
