<svg width="30" height="20" viewBox="0 0 30 20" fill="none" xmlns="http://www.w3.org/2000/svg">
<path d="M30 0H0V20H30V0Z" fill="#F0F0F0"/>
<path d="M30 0H0V6.66665H30V0Z" fill="#D80027"/>
<path d="M30 13.333H0V19.9997H30V13.333Z" fill="#0052B4"/>
<path d="M17.6083 6.95669H15.8691L16.1591 4.78269L17.3185 3.91309L18.4779 4.78269V6.52185L17.6083 6.95669Z" fill="#338AF3"/>
<path d="M12.391 6.95669H14.1302L13.8403 4.78269L12.6809 3.91309L11.5215 4.78269V6.52185L12.391 6.95669Z" fill="#338AF3"/>
<path d="M16.1587 6.95669H13.8398V4.78269L14.9993 3.91309L16.1587 4.78269V6.95669Z" fill="#0052B4"/>
<path d="M11.5215 6.52148V11.3042C11.5215 12.443 12.0716 13.4557 12.92 14.0907L13.5287 13.9383L14.2968 14.7111C14.5239 14.7578 14.7589 14.7825 14.9997 14.7825C15.2391 14.7825 15.4729 14.7582 15.6989 14.7119L16.5757 13.9819L17.0793 14.0893C17.9274 13.4545 18.4779 12.4427 18.4779 11.3042V6.52154L11.5215 6.52148Z" fill="#F0F0F0"/>
<path d="M12.9128 6.52148H11.5215V7.91282H12.9128V6.52148Z" fill="#D80027"/>
<path d="M15.696 6.52148H14.3047V7.91282H15.696V6.52148Z" fill="#D80027"/>
<path d="M18.4792 6.52148H17.0879V7.91282H18.4792V6.52148Z" fill="#D80027"/>
<path d="M14.3034 7.91309H12.9121V9.30443H14.3034V7.91309Z" fill="#D80027"/>
<path d="M17.0866 7.91309H15.6953V9.30443H17.0866V7.91309Z" fill="#D80027"/>
<path d="M12.9128 9.30371H11.5215V10.695H12.9128V9.30371Z" fill="#D80027"/>
<path d="M14.3034 10.6953H12.9121V12.0867H14.3034V10.6953Z" fill="#D80027"/>
<path d="M15.696 9.30371H14.3047V10.695H15.696V9.30371Z" fill="#D80027"/>
<path d="M18.4792 9.30371H17.0879V10.695H18.4792V9.30371Z" fill="#D80027"/>
<path d="M17.0866 10.6953H15.6953V12.0867H17.0866V10.6953Z" fill="#D80027"/>
<path d="M15.696 12.0869H14.3047V13.4783H15.696V12.0869Z" fill="#D80027"/>
<path d="M12.9128 12.0869H11.6113C11.7307 12.6041 11.9654 13.0774 12.2873 13.4783H12.9128V12.0869Z" fill="#D80027"/>
<path d="M17.0879 13.4783H17.7135C18.0354 13.0773 18.27 12.6041 18.3894 12.0869H17.0879V13.4783Z" fill="#D80027"/>
<path d="M12.9121 13.4775V14.0846C13.3168 14.3891 13.7896 14.6075 14.3034 14.7122V13.4775H12.9121Z" fill="#D80027"/>
<path d="M15.6953 13.4775V14.7122C16.2091 14.6075 16.682 14.3891 17.0866 14.0846V13.4775H15.6953Z" fill="#D80027"/>
</svg>
