<svg width="30" height="20" viewBox="0 0 30 20" fill="none" xmlns="http://www.w3.org/2000/svg">
<path d="M30 0H0V20H30V0Z" fill="#FCFCFC"/>
<path d="M20.625 8.7041C20.3221 8.7041 19.9471 8.7041 19.3269 8.7041C19.3269 11.0938 17.3896 13.031 15 13.031C12.6103 13.031 10.6731 11.0938 10.6731 8.7041C10.2548 8.7041 9.79324 8.7041 9.375 8.7041C9.375 11.2782 11.104 13.4483 13.4641 14.1168C13.2054 14.6083 13.2448 15.2272 13.6143 15.6883C14.0998 15.2993 14.6024 14.8965 15.0288 14.5548C15.4552 14.8965 15.9578 15.2992 16.4433 15.6883C16.8166 15.2225 16.8534 14.5958 16.586 14.1019C18.9202 13.4172 20.625 11.2599 20.625 8.7041Z" fill="#6DA544"/>
<path d="M11.5391 8.27098C11.5391 8.27098 11.5391 10.4344 13.7025 10.4344L14.1352 10.8671H15.0006C15.0006 10.8671 15.4333 9.56906 16.2987 9.56906C16.2987 9.56906 16.2987 8.70369 17.1641 8.70369C18.0294 8.70369 18.4621 8.70369 18.4621 8.70369C18.4621 8.70369 18.0294 6.97297 20.1929 5.6749L19.3275 5.24219C19.3275 5.24219 16.2987 7.40562 14.1352 6.97291V7.83827H13.2699L12.8371 7.40556L11.5391 8.27098Z" fill="#FFDA44"/>
</svg>
