<svg width="30" height="20" viewBox="0 0 30 20" fill="none" xmlns="http://www.w3.org/2000/svg">
<path d="M30 0H0V20H30V0Z" fill="#F0F0F0"/>
<path d="M12.3913 12.6084H0V19.9996H12.3913V12.6084Z" fill="#D80027"/>
<path d="M12.3913 0H0V7.39188H12.3913V0Z" fill="#0052B4"/>
<path d="M30.0007 0H17.6094V7.39188H30.0007V0Z" fill="#D80027"/>
<path d="M30.0007 12.6084H17.6094V19.9996H30.0007V12.6084Z" fill="#0052B4"/>
<path d="M17.6079 10.0003C17.6079 11.441 16.44 12.609 14.9993 12.609C13.5585 12.609 12.3906 11.4411 12.3906 10.0003C12.3906 8.55952 14.9993 7.3916 14.9993 7.3916C14.9993 7.3916 17.6079 8.55952 17.6079 10.0003Z" fill="#496E2D"/>
<path d="M12.3906 10.0003C12.3906 8.55958 13.5585 7.3916 14.9993 7.3916C16.44 7.3916 17.6079 8.55952 17.6079 10.0003" fill="#0052B4"/>
<path d="M13.5332 8.69629V10.3267C13.5332 11.1371 14.1902 11.794 15.0006 11.794C15.811 11.794 16.4679 11.1371 16.4679 10.3267V8.69629H13.5332Z" fill="#D80027"/>
</svg>
