<svg width="30" height="20" viewBox="0 0 30 20" fill="none" xmlns="http://www.w3.org/2000/svg">
<path d="M30 0H0V20H30V0Z" fill="#496E2D"/>
<path d="M0 8.125V9.37507V10.625V11.8751H30V10.625V9.37507V8.125H0Z" fill="black"/>
<path d="M30 8.125H0V9.37524H30V8.125Z" fill="#FFDA44"/>
<path d="M30 10.625H0V11.8752H30V10.625Z" fill="#F0F0F0"/>
<path d="M16.875 0H13.125V20H16.875V0Z" fill="black"/>
<path d="M14.3746 0H13.125V20H14.3746V0Z" fill="#FFDA44"/>
<path d="M16.8746 0H15.625V20H16.8746V0Z" fill="#F0F0F0"/>
<path d="M15.0001 14.7827C17.6414 14.7827 19.7825 12.6415 19.7825 10.0002C19.7825 7.35896 17.6414 5.21777 15.0001 5.21777C12.3589 5.21777 10.2178 7.35896 10.2178 10.0002C10.2178 12.6415 12.3589 14.7827 15.0001 14.7827Z" fill="#D80027"/>
<path d="M16.09 10.5331C15.7343 9.82168 15.2719 9.10055 15.2719 9.10055C15.2719 9.10055 15.2834 8.77224 15.2834 8.57659C15.2834 8.28186 15.0445 8.04297 14.7497 8.04297C14.4705 8.04297 14.2419 8.25749 14.2185 8.53054C13.999 8.54489 13.8252 8.72695 13.8252 8.95014C13.8252 9.11239 13.9171 9.25296 14.0516 9.32327C14.1185 9.16688 14.2494 9.04477 14.4114 8.9891C14.4378 9.01078 14.4662 9.03 14.4964 9.04635L14.5648 9.07911C14.5648 9.07911 14.3113 9.79355 14.3113 10.1775C14.3113 11.2566 15.0227 11.5893 15.0227 11.5893V11.6004L14.667 11.9561H15.3785V11.2446L15.7342 11.6004C15.7375 11.5937 16.4082 11.1695 16.09 10.5331Z" fill="#496E2D"/>
<path d="M15.0002 6.08691L15.1621 6.58515H15.6859L15.2621 6.89312L15.424 7.3913L15.0002 7.08344L14.5763 7.3913L14.7383 6.89312L14.3145 6.58515H14.8383L15.0002 6.08691Z" fill="#496E2D"/>
<path d="M12.7004 6.83398L13.1241 7.14184L13.5479 6.83398L13.3861 7.33216L13.8099 7.64008L13.2862 7.64013L13.1242 8.13837L12.9623 7.64013L12.4385 7.64008L12.8623 7.33216L12.7004 6.83398Z" fill="#496E2D"/>
<path d="M11.2783 8.79114H11.8021L11.964 8.29297L12.1259 8.79114H12.6497L12.226 9.09906L12.3879 9.59729L11.964 9.28944L11.5402 9.59724L11.7021 9.09906L11.2783 8.79114Z" fill="#496E2D"/>
<path d="M11.2783 11.2095L11.7021 10.9016L11.5402 10.4034L11.964 10.7112L12.3878 10.4033L12.226 10.9016L12.6498 11.2095L12.1259 11.2095L11.964 11.7076L11.8021 11.2095H11.2783Z" fill="#496E2D"/>
<path d="M12.7004 13.1657L12.8623 12.6676L12.4385 12.3596H12.9624L13.1243 11.8613L13.2862 12.3596H13.81L13.3862 12.6675L13.548 13.1657L13.1242 12.8579L12.7004 13.1657Z" fill="#496E2D"/>
<path d="M15.0002 13.9128L14.8383 13.4146H14.3145L14.7383 13.1066L14.5763 12.6084L15.0002 12.9163L15.424 12.6084L15.2621 13.1066L15.6859 13.4145L15.1621 13.4146L15.0002 13.9128Z" fill="#496E2D"/>
<path d="M17.3 13.1657L16.8763 12.8579L16.4525 13.1658L16.6143 12.6675L16.1904 12.3596L16.7143 12.3596L16.8762 11.8613L17.0381 12.3596H17.5619L17.1381 12.6676L17.3 13.1657Z" fill="#496E2D"/>
<path d="M18.7211 11.2094H18.1973L18.0355 11.7076L17.8735 11.2095H17.3496L17.7735 10.9015L17.6115 10.4033L18.0355 10.7112L18.4592 10.4033L18.2974 10.9015L18.7211 11.2094Z" fill="#496E2D"/>
<path d="M18.7211 8.79114L18.2974 9.09906L18.4593 9.59724L18.0355 9.28938L17.6116 9.59729L17.7735 9.09906L17.3496 8.7912L17.8735 8.79114L18.0354 8.29297L18.1973 8.79114H18.7211Z" fill="#496E2D"/>
<path d="M17.3 6.83398L17.1381 7.33216L17.5619 7.64008H17.0381L16.8763 8.13837L16.7143 7.64013H16.1904L16.6143 7.33216L16.4525 6.83404L16.8763 7.14184L17.3 6.83398Z" fill="#496E2D"/>
</svg>
