<svg width="30" height="20" viewBox="0 0 30 20" fill="none" xmlns="http://www.w3.org/2000/svg">
<path d="M30 0H0V20H30V0Z" fill="#FFDA44"/>
<path d="M30 10H0V15.0003H30V10Z" fill="#0052B4"/>
<path d="M30 15H0V19.9997H30V15Z" fill="#D80027"/>
<path d="M14.9996 13.4778C16.9204 13.4778 18.4776 11.9205 18.4776 9.99962C18.4776 8.0787 16.9204 6.52148 14.9996 6.52148C13.0787 6.52148 11.5215 8.0787 11.5215 9.99962C11.5215 11.9205 13.0787 13.4778 14.9996 13.4778Z" fill="#FFDA44"/>
<path d="M14.9997 12.3026C13.7635 12.3026 12.7578 11.2969 12.7578 10.0607V8.71554C12.7578 7.4793 13.7635 6.47363 14.9997 6.47363C16.2359 6.47363 17.2415 7.4793 17.2415 8.71554V10.0607C17.2415 11.2969 16.2359 12.3026 14.9997 12.3026Z" fill="#338AF3"/>
<path d="M18.586 4.68092H15.8958C15.8958 4.18573 15.4942 3.78418 14.999 3.78418C14.5039 3.78418 14.1023 4.18573 14.1023 4.68092H11.4121C11.4121 5.17616 11.8435 5.57766 12.3387 5.57766H12.3088C12.3088 6.0729 12.7103 6.47439 13.2055 6.47439C13.2055 6.96964 13.607 7.37113 14.1023 7.37113H15.8958C16.391 7.37113 16.7925 6.96964 16.7925 6.47439C17.2877 6.47439 17.6892 6.0729 17.6892 5.57766H17.6593C18.1546 5.57766 18.586 5.17616 18.586 4.68092Z" fill="black"/>
</svg>
