<svg width="30" height="20" viewBox="0 0 30 20" fill="none" xmlns="http://www.w3.org/2000/svg">
<path d="M30 0H0V20H30V0Z" fill="#F0F0F0"/>
<path d="M30 0H0V6.66665H30V0Z" fill="#D80027"/>
<path d="M30 13.333H0V19.9997H30V13.333Z" fill="black"/>
<path d="M18.75 8.84475H15.9375C15.9375 8.327 15.5177 7.90723 15 7.90723C14.4823 7.90723 14.0625 8.327 14.0625 8.84475H11.25C11.25 9.36249 11.701 9.78227 12.2187 9.78227H12.1875C12.1875 10.3 12.6073 10.7198 13.125 10.7198C13.125 11.2375 13.5448 11.6573 14.0625 11.6573H15.9375C16.4552 11.6573 16.875 11.2375 16.875 10.7198C17.3927 10.7198 17.8125 10.3 17.8125 9.78227H17.7813C18.299 9.78227 18.75 9.36255 18.75 8.84475Z" fill="#FF9811"/>
</svg>
