<svg width="30" height="20" viewBox="0 0 30 20" fill="none" xmlns="http://www.w3.org/2000/svg">
<path d="M30 0H0V20H30V0Z" fill="#F0F0F0"/>
<path d="M30 0H0V6.66665H30V0Z" fill="#0052B4"/>
<path d="M30 13.333H0V19.9997H30V13.333Z" fill="#0052B4"/>
<path d="M13.3926 10.348L14.9991 7.56543L16.6056 10.348H13.3926Z" fill="#FFDA44"/>
<path d="M17.0878 11.2663L15.0009 12.3098L12.9141 11.2663V9.875H17.0878V11.2663Z" fill="#6DA544"/>
<path d="M16.9669 7.68457L16.2291 8.4224C16.5437 8.73717 16.7384 9.17189 16.7384 9.65219C16.7384 10.6127 15.9598 11.3913 14.9994 11.3913C14.0389 11.3913 13.2603 10.6126 13.2603 9.65219C13.2603 9.172 13.4549 8.73717 13.7696 8.4224L13.0318 7.68457C12.5283 8.18814 12.2168 8.88378 12.2168 9.65213C12.2168 11.189 13.4626 12.4348 14.9994 12.4348C16.5362 12.4348 17.7819 11.189 17.7819 9.65213C17.7819 8.88372 17.4704 8.18802 16.9669 7.68457Z" fill="#FFDA44"/>
</svg>
