<svg width="30" height="20" viewBox="0 0 30 20" fill="none" xmlns="http://www.w3.org/2000/svg">
<path d="M30 0H0V19.9994H30V0Z" fill="#F0F0F0"/>
<path d="M30 0H0V6.66643H30V0Z" fill="#6DA544"/>
<path d="M30 13.333H0V19.9994H30V13.333Z" fill="#D80027"/>
<path d="M15 10.0004L0 20V0L15 10.0004Z" fill="#0052B4"/>
<path d="M16.3945 7.87402V10.4781C16.3945 12.0728 18.4778 12.5615 18.4778 12.5615C18.4778 12.5615 20.5611 12.0729 20.5611 10.4781V7.87402H16.3945Z" fill="#DEDDE0"/>
<path d="M18.9987 10.0088H17.957V11.5192H18.9987V10.0088Z" fill="#786145"/>
<path d="M19.5202 9.4362C19.5202 8.86093 19.0539 8.39453 18.4785 8.39453C17.9032 8.39453 17.4369 8.86087 17.4369 9.4362C17.1492 9.4362 16.916 9.66934 16.916 9.95703C16.916 10.2447 17.1492 10.4779 17.4369 10.4779C17.6077 10.4779 19.3494 10.4779 19.5202 10.4779C19.8079 10.4779 20.041 10.2447 20.041 9.95703C20.041 9.66934 19.8079 9.4362 19.5202 9.4362Z" fill="#6DA544"/>
</svg>
