<svg width="30" height="20" viewBox="0 0 30 20" fill="none" xmlns="http://www.w3.org/2000/svg">
<path d="M30 0H0V20H30V0Z" fill="#338AF3"/>
<path d="M30 0H0V10H30V0Z" fill="#6DA544"/>
<path d="M1.37327e-09 20C-0.000234374 20.0016 30 9.99965 30 9.99965L1.37327e-09 0V20Z" fill="#D80027"/>
<path d="M8.26143 6.25C6.52014 6.25 5.10352 7.66659 5.10352 9.40798V10.5922C5.10352 12.3336 6.52019 13.7502 8.26143 13.7502C10.0027 13.7502 11.4193 12.3336 11.4193 10.5922V9.40798C11.4193 7.66671 10.0027 6.25 8.26143 6.25ZM10.2351 10.5922C10.2351 11.4743 9.65344 12.223 8.85352 12.4751V11.1844L9.69135 10.3466L8.85404 9.50929L8.85357 9.21122V8.81599H7.66934V10.0003L6.83215 10.8375L7.66934 11.6747V12.4753C6.86947 12.2231 6.28775 11.4744 6.28775 10.5924V9.40804C6.28775 8.31975 7.17316 7.43432 8.26143 7.43432C9.34969 7.43432 10.2351 8.31975 10.2351 9.40804V10.5922Z" fill="#FFDA44"/>
</svg>
