<svg width="30" height="20" viewBox="0 0 30 20" fill="none" xmlns="http://www.w3.org/2000/svg">
<path d="M30 0H0V20H30V0Z" fill="#FFDA44"/>
<path d="M30 0H0V6.66665H30V0Z" fill="#6DA544"/>
<path d="M30 13.333H0V19.9997H30V13.333Z" fill="#D80027"/>
<path d="M14.9992 14.7827C17.6404 14.7827 19.7815 12.6415 19.7815 10.0002C19.7815 7.35896 17.6404 5.21777 14.9992 5.21777C12.3579 5.21777 10.2168 7.35896 10.2168 10.0002C10.2168 12.6415 12.3579 14.7827 14.9992 14.7827Z" fill="#0052B4"/>
<path d="M14.9994 6.29688L15.8628 8.95392H18.661L16.3964 10.5962L17.2664 13.2612L14.9994 11.6111L12.7359 13.2581L13.6025 10.5962L11.3398 8.95392H14.1361L14.9994 6.29688Z" fill="#FFDA44"/>
<path d="M18.4431 10.6615L15.7043 9.77153L17.3969 7.44185L16.6935 6.93066L15.0008 9.26046L13.3082 6.93072L12.6047 7.44179L14.2973 9.77164L11.5586 10.6615L11.8272 11.4885L14.566 10.5986V13.4784H15.4357V10.5986L18.1744 11.4885L18.4431 10.6615Z" fill="#FFDA44"/>
</svg>
