<svg width="30" height="20" viewBox="0 0 30 20" fill="none" xmlns="http://www.w3.org/2000/svg">
<path d="M30 0H0V20H30V0Z" fill="#0052B4"/>
<path d="M14.9998 4.375L15.299 5.29579H16.2672L15.4839 5.86491L15.7831 6.7857L14.9998 6.21664L14.2165 6.7857L14.5157 5.86491L13.7324 5.29579H14.7006L14.9998 4.375Z" fill="#FFDA44"/>
<path d="M11.0224 6.02238L11.8851 6.46189L12.5697 5.77734L12.4181 6.73358L13.2808 7.17315L12.3246 7.32461L12.1731 8.28091L11.7335 7.41824L10.7773 7.56965L11.462 6.88505L11.0224 6.02238Z" fill="#FFDA44"/>
<path d="M9.375 9.99973L10.2958 9.70056L10.2959 8.73242L10.8649 9.51569L11.7857 9.21652L11.2166 9.99973L11.7857 10.783L10.8649 10.4839L10.2959 11.2671V10.299L9.375 9.99973Z" fill="#FFDA44"/>
<path d="M11.0224 13.9772L11.4618 13.1145L10.7773 12.43L11.7337 12.5814L12.1731 11.7188L12.3246 12.675L13.2808 12.8265L12.4182 13.266L12.5697 14.2222L11.8851 13.5377L11.0224 13.9772Z" fill="#FFDA44"/>
<path d="M14.9998 15.6245L14.7006 14.7037H13.7324L14.5158 14.1347L14.2165 13.2139L14.9998 13.7829L15.7831 13.2139L15.4839 14.1347L16.2672 14.7037H15.299L14.9998 15.6245Z" fill="#FFDA44"/>
<path d="M18.9772 13.9772L18.1145 13.5377L17.4299 14.2223L17.5814 13.266L16.7188 12.8265L17.6749 12.675L17.8265 11.7188L18.266 12.5814L19.2222 12.43L18.5376 13.1146L18.9772 13.9772Z" fill="#FFDA44"/>
<path d="M20.6256 9.99973L19.7048 10.299V11.2671L19.1357 10.4838L18.2148 10.783L18.784 9.99973L18.2148 9.21652L19.1357 9.51564L19.7047 8.73242L19.7048 9.70061L20.6256 9.99973Z" fill="#FFDA44"/>
<path d="M18.9772 6.02238L18.5377 6.88505L19.2223 7.56965L18.2659 7.41813L17.8265 8.28085L17.6749 7.32461L16.7188 7.17315L17.5814 6.73358L17.4299 5.77734L18.1145 6.46195L18.9772 6.02238Z" fill="#FFDA44"/>
</svg>
