<svg width="30" height="20" viewBox="0 0 30 20" fill="none" xmlns="http://www.w3.org/2000/svg">
<path d="M30 0H0V19.9998H30V0Z" fill="#0052B4"/>
<path d="M24.2396 12.1738V12.6086H20.7613V12.1738H19.457V13.913H20.3266V14.3477H24.6744V13.913H25.544V12.1738H24.2396Z" fill="#FFDA44"/>
<path d="M19.457 5.65234V10.4348C19.457 12.7644 22.5005 13.4783 22.5005 13.4783C22.5005 13.4783 25.544 12.7645 25.544 10.4348V5.65234H19.457Z" fill="#338AF3"/>
<path d="M22.5004 9.21973C21.7396 9.21973 21.7396 9.9154 20.9787 9.9154C20.2179 9.9154 20.2179 9.21973 19.457 9.21973V10.4371C20.2179 10.4371 20.2179 11.1328 20.9787 11.1328C21.7396 11.1328 21.7396 10.4371 22.5004 10.4371C23.2613 10.4371 23.2613 11.1328 24.0222 11.1328C24.7831 11.1328 24.7831 10.4371 25.5441 10.4371V9.21973C24.7832 9.21973 24.7832 9.9154 24.0222 9.9154C23.2613 9.9154 23.2613 9.21973 22.5004 9.21973Z" fill="#F3F3F3"/>
<path d="M22.5004 6.78223C21.7396 6.78223 21.7396 7.4779 20.9787 7.4779C20.2179 7.4779 20.2179 6.78223 19.457 6.78223V7.9996C20.2179 7.9996 20.2179 8.69527 20.9787 8.69527C21.7396 8.69527 21.7396 7.9996 22.5004 7.9996C23.2613 7.9996 23.2613 8.69527 24.0222 8.69527C24.7831 8.69527 24.7831 7.9996 25.5441 7.9996V6.78223C24.7832 6.78223 24.7832 7.4779 24.0222 7.4779C23.2613 7.4779 23.2613 6.78223 22.5004 6.78223Z" fill="#F3F3F3"/>
<path d="M15 0V1.79018L12.3535 3.2608H15V6.73879H11.5369L15 8.66268V9.99959H13.4367L9.13043 7.60743V9.99959H5.86957V7.15357L0.746719 9.99959H0V8.20935L2.6465 6.73879H0V3.2608H3.46307L0 1.33626V0H1.56328L5.86957 2.39216V0H9.13043V2.84602L14.2533 0H15Z" fill="#F0F0F0"/>
<path d="M8.4375 0H6.5625V4.06234H0V5.93731H6.5625V9.99977H8.4375V5.93731H15V4.06234H8.4375V0Z" fill="#D80027"/>
<path d="M9.13086 6.73926L15.0004 10.0001V9.07798L10.7906 6.73926H9.13086Z" fill="#0052B4"/>
<path d="M9.13086 6.73926L15.0004 10.0001V9.07798L10.7906 6.73926H9.13086Z" fill="#F0F0F0"/>
<path d="M9.13086 6.73926L15.0004 10.0001V9.07798L10.7906 6.73926H9.13086Z" fill="#D80027"/>
<path d="M4.20973 6.73926L0 9.07798V10.0001L5.86957 6.73926H4.20973Z" fill="#D80027"/>
<path d="M5.86957 3.2608L0 0V0.922072L4.20979 3.2608H5.86957Z" fill="#0052B4"/>
<path d="M5.86957 3.2608L0 0V0.922072L4.20979 3.2608H5.86957Z" fill="#F0F0F0"/>
<path d="M5.86957 3.2608L0 0V0.922072L4.20979 3.2608H5.86957Z" fill="#D80027"/>
<path d="M10.7907 3.2608L15.0004 0.922072V0L9.13086 3.2608H10.7907Z" fill="#D80027"/>
</svg>
