<svg width="30" height="20" viewBox="0 0 30 20" fill="none" xmlns="http://www.w3.org/2000/svg">
<path d="M30 0H0V19.9997H30V0Z" fill="#2E52B2"/>
<path d="M15 0V1.32518L12.3006 3.12449H15V6.8744H12.3006L15 8.67435V9.99953H13.6741L9.375 7.13326V9.99953H5.625V7.13326L1.32586 9.99953H0V8.67435L2.69936 6.8744H0V3.12449H2.69936L0 1.32518V0H1.32586L5.625 2.86557V0H9.375V2.86557L13.6741 0H15Z" fill="#F0F0F0"/>
<path d="M8.4375 0H6.5625V4.06244H0V5.93739H6.5625V9.99982H8.4375V5.93739H15V4.06244H8.4375V0Z" fill="#D80027"/>
<path d="M0 0V0.883747L3.36193 3.12496H4.6875L0 0Z" fill="#D80027"/>
<path d="M15 0V0.883747L11.6381 3.12496H10.3125L15 0Z" fill="#D80027"/>
<path d="M0 0V0.883747L3.36193 3.12496H4.6875L0 0Z" fill="#D80027"/>
<path d="M15 0V0.883747L11.6381 3.12496H10.3125L15 0Z" fill="#D80027"/>
<path d="M0 9.99996V9.11627L3.36193 6.875H4.6875L0 9.99996Z" fill="#D80027"/>
<path d="M15 9.99996V9.11627L11.6381 6.875H10.3125L15 9.99996Z" fill="#D80027"/>
<path d="M19.457 7.17426V10.6524C19.457 12.982 22.5005 13.6958 22.5005 13.6958C22.5005 13.6958 25.544 12.982 25.544 10.6524V7.17426L22.5005 6.30469L19.457 7.17426Z" fill="#F3F3F3"/>
<path d="M25.5439 7.39124V6.08691H19.457V7.39124H22.0657V9.99994H19.457V10.8694V10.8694H22.0657V13.7794C22.3281 13.8723 22.5005 13.9128 22.5005 13.9128C22.5005 13.9128 22.6729 13.8723 22.9353 13.7794V10.8694H25.544V10.8694V9.99994H22.9352V7.39124H25.5439Z" fill="#D80027"/>
</svg>
