<svg width="30" height="20" viewBox="0 0 30 20" fill="none" xmlns="http://www.w3.org/2000/svg">
<path d="M30 0H0V20H30V0Z" fill="#F0F0F0"/>
<path d="M30 0H0V6.66665H30V0Z" fill="#D80027"/>
<path d="M30 13.333H0V19.9997H30V13.333Z" fill="#D80027"/>
<path d="M17.2256 9.99958C17.2256 11.229 16.2289 11.9475 14.9995 11.9475C13.7701 11.9475 12.7734 11.229 12.7734 9.99958C12.7734 8.77014 13.7701 7.77344 14.9995 7.77344C16.2289 7.77344 17.2256 8.77014 17.2256 9.99958Z" fill="#FFDA44"/>
<path d="M17.2256 10C17.2256 11.2294 16.2289 12.2261 14.9995 12.2261C13.7701 12.2261 12.7734 11.2294 12.7734 10" fill="#0052B4"/>
<path d="M14.1659 9.44336H13.6094V10.5567H14.1659V9.44336Z" fill="#D80027"/>
<path d="M16.3915 9.44336H15.835V10.5567H16.3915V9.44336Z" fill="#D80027"/>
<path d="M15.2782 8.60938H14.7217V10.5572H15.2782V8.60938Z" fill="#D80027"/>
</svg>
