<svg width="30" height="20" viewBox="0 0 30 20" fill="none" xmlns="http://www.w3.org/2000/svg">
<path d="M30 0H0V19.9998H30V0Z" fill="#F0F0F0"/>
<path d="M16.875 0H13.125V8.1248H0V11.8747H13.125V19.9995H16.875V11.8747H30V8.1248H16.875V0Z" fill="#D80027"/>
<path d="M7.21412 3.41077V2.10645H5.90982V3.41077H4.60547V4.7151H5.90982V6.01943H7.21412V4.7151H8.51848V3.41077H7.21412Z" fill="#D80027"/>
<path d="M24.0891 3.41077V2.10645H22.7848V3.41077H21.4805V4.7151H22.7848V6.01943H24.0891V4.7151H25.3935V3.41077H24.0891Z" fill="#D80027"/>
<path d="M7.21412 15.2848V13.9805H5.90982V15.2848H4.60547V16.5891H5.90982V17.8935H7.21412V16.5891H8.51848V15.2848H7.21412Z" fill="#D80027"/>
<path d="M24.0891 15.2848V13.9805H22.7848V15.2848H21.4805V16.5891H22.7848V17.8935H24.0891V16.5891H25.3935V15.2848H24.0891Z" fill="#D80027"/>
</svg>
