<svg width="30" height="20" viewBox="0 0 30 20" fill="none" xmlns="http://www.w3.org/2000/svg">
<path d="M30 0H0V20H30V0Z" fill="#F0F0F0"/>
<path d="M30 13.333H0V19.9994H30V13.333Z" fill="#D80027"/>
<path d="M18.9125 8.26062V6.95628H19.3472V6.08676H18.4776V6.52146H17.6081V6.08676H16.7386V6.95628H17.1733V8.26062H16.3037V5.2173H16.7386V4.34766H15.8689V4.78242H15.4342V4.34766H14.5646V4.78242H14.1299V4.34766H13.2602V5.2173H13.695V8.26062H12.8255V6.95628H13.2602V6.08676H12.3907V6.52146H11.5212V6.08676H10.6516V6.95628H11.0863V8.26062H10.2168V11.7388H19.782V8.26062H18.9125Z" fill="#D80027"/>
<path d="M15.0009 11.3037C14.2805 11.3037 13.6965 11.8876 13.6965 12.6081C13.6965 13.1759 14.0595 13.6588 14.5661 13.8379V15.6515H13.2617V17.3907H15.4356V13.8379C15.9422 13.6589 16.3052 13.176 16.3052 12.6081C16.3053 11.8876 15.7213 11.3037 15.0009 11.3037ZM15.0009 13.0428C14.7608 13.0428 14.5661 12.8482 14.5661 12.608C14.5661 12.3678 14.7607 12.1732 15.0009 12.1732C15.241 12.1732 15.4357 12.3678 15.4357 12.608C15.4357 12.8481 15.241 13.0428 15.0009 13.0428Z" fill="#FFDA44"/>
</svg>
