<svg width="30" height="20" viewBox="0 0 30 20" fill="none" xmlns="http://www.w3.org/2000/svg">
<path d="M30 0H0V20H30V0Z" fill="#A2001D"/>
<path d="M15.0007 9.99963L2.60938 17.3909V2.6084L15.0007 9.99963Z" fill="#496E2D"/>
<path d="M15.0007 10L27.392 17.3912H2.60938L15.0007 10Z" fill="#FFDA44"/>
<path d="M27.392 2.6084L15.0007 9.99963L2.60938 2.6084H27.392Z" fill="#FFDA44"/>
<path d="M27.3913 2.6084V17.3909L15 9.99963L27.3913 2.6084Z" fill="#496E2D"/>
<path d="M15.0006 0.608398L15.1949 1.20624H15.8235L15.315 1.57574L15.5093 2.17365L15.0006 1.80409L14.492 2.17365L14.6863 1.57574L14.1777 1.20624H14.8063L15.0006 0.608398Z" fill="#FFDA44"/>
<path d="M9.96742 0.608398L10.1617 1.20624H10.7903L10.2818 1.57574L10.4761 2.17365L9.96742 1.80409L9.45889 2.17365L9.65312 1.57574L9.14453 1.20624H9.77312L9.96742 0.608398Z" fill="#FFDA44"/>
<path d="M20.0338 0.608398L20.2281 1.20624H20.8567L20.3481 1.57574L20.5424 2.17365L20.0338 1.80409L19.5252 2.17365L19.7195 1.57574L19.2109 1.20624H19.8395L20.0338 0.608398Z" fill="#FFDA44"/>
<path d="M15.0006 17.8262L15.1949 18.424H15.8235L15.315 18.7936L15.5093 19.3914L15.0006 19.0219L14.492 19.3914L14.6863 18.7936L14.1777 18.424H14.8063L15.0006 17.8262Z" fill="#FFDA44"/>
<path d="M9.96742 17.8262L10.1617 18.424H10.7903L10.2818 18.7936L10.4761 19.3914L9.96742 19.0219L9.45889 19.3914L9.65312 18.7936L9.14453 18.424H9.77312L9.96742 17.8262Z" fill="#FFDA44"/>
<path d="M20.0338 17.8262L20.2281 18.424H20.8567L20.3481 18.7936L20.5424 19.3914L20.0338 19.0219L19.5252 19.3914L19.7195 18.7936L19.2109 18.424H19.8395L20.0338 17.8262Z" fill="#FFDA44"/>
<path d="M14.9993 12.2262C16.2286 12.2262 17.2252 11.2297 17.2252 10.0003C17.2252 8.77099 16.2286 7.77441 14.9993 7.77441C13.77 7.77441 12.7734 8.77099 12.7734 10.0003C12.7734 11.2297 13.77 12.2262 14.9993 12.2262Z" fill="#A2001D"/>
<path d="M15.0006 7.77344L15.4996 9.30921H17.1145L15.8081 10.2586L16.307 11.7944L15.0006 10.8452L13.6941 11.7944L14.1931 10.2586L12.8867 9.30921H14.5016L15.0006 7.77344Z" fill="#FFDA44"/>
<path d="M6.30708 9.83446C6.5639 10.2403 6.4432 10.7774 6.03743 11.0343C5.63167 11.2912 5.09454 11.1705 4.83761 10.7647C4.37255 10.0299 4.6422 8.83008 4.6422 8.83008C4.6422 8.83008 5.84191 9.09973 6.30708 9.83446Z" fill="#FFDA44"/>
<path d="M5.80586 11.102C6.04597 11.102 6.24062 10.9073 6.24062 10.6672C6.24062 10.4271 6.04597 10.2324 5.80586 10.2324C5.56574 10.2324 5.37109 10.4271 5.37109 10.6672C5.37109 10.9073 5.56574 11.102 5.80586 11.102Z" fill="#A2001D"/>
</svg>
