<svg width="30" height="20" viewBox="0 0 30 20" fill="none" xmlns="http://www.w3.org/2000/svg">
<path d="M30 0H0V20H30V0Z" fill="#D80027"/>
<path d="M29.348 0.652344H0.652344V19.348H29.348V0.652344Z" fill="#0052B4"/>
<path d="M14.4351 16.3118C14.2984 16.1947 11.0879 13.4037 11.0879 9.99954C11.0879 6.59533 14.2984 3.80437 14.4351 3.68724L15.001 3.20215L15.5669 3.68724C15.7036 3.80437 18.914 6.59533 18.914 9.99954C18.914 13.4037 15.7036 16.1947 15.5669 16.3118L15.001 16.7969L14.4351 16.3118Z" fill="#D80027"/>
<path d="M18.044 9.99978C18.044 6.95634 15.0005 4.34766 15.0005 4.34766C15.0005 4.34766 11.957 6.95646 11.957 9.99978C11.957 10.9308 12.2421 11.821 12.6375 12.6085H17.3635C17.7589 11.821 18.044 10.9308 18.044 9.99978Z" fill="#338AF3"/>
<path d="M18.044 10C18.044 10.931 17.7589 11.8212 17.3635 12.6087L15.0005 13.0435L12.6375 12.6087C12.2421 11.8212 11.957 10.931 11.957 10H18.044Z" fill="#0052B4"/>
<path d="M14.9997 15.6518C14.9997 15.6518 16.4657 14.3949 17.3628 12.6084H12.6367C13.5338 14.3949 14.9997 15.6518 14.9997 15.6518Z" fill="#FFDA44"/>
<path d="M13.043 8.26074H16.956L14.9995 10.2172L13.043 8.26074Z" fill="#6DA544"/>
<path d="M15.652 9.56445H14.3477V13.4775H15.652V9.56445Z" fill="#A2001D"/>
</svg>
