<svg width="30" height="20" viewBox="0 0 30 20" fill="none" xmlns="http://www.w3.org/2000/svg">
<path d="M30 0H0V20H30V0Z" fill="#F0F0F0"/>
<path d="M9.99977 0H0V20H9.99977V0Z" fill="#338AF3"/>
<path d="M29.9998 0H20V20H29.9998V0Z" fill="#338AF3"/>
<path d="M17.8183 11.8007L15.9953 9.97778L17.7306 8.24248L17.652 7.32597L17.1552 6.8291L15.001 8.98334L12.8467 6.8291L12.3499 7.32597L12.2713 8.24248L14.0066 9.97778L12.1836 11.8007L13.1779 12.7951L15.001 10.9721L16.824 12.7951L17.8183 11.8007Z" fill="#ACABB1"/>
<path d="M17.6516 7.32617L16.6573 8.32056C17.0814 8.74471 17.3437 9.33064 17.3437 9.97786C17.3437 11.2723 16.2944 12.3216 14.9999 12.3216C13.7055 12.3216 12.6561 11.2723 12.6561 9.97786C12.6561 9.3307 12.9185 8.74477 13.3426 8.32056L12.3482 7.32617C11.6696 8.0048 11.25 8.94229 11.25 9.97786C11.25 12.0489 12.9289 13.7278 15 13.7278C17.071 13.7278 18.75 12.0489 18.75 9.97786C18.75 8.94229 18.3302 8.0048 17.6516 7.32617Z" fill="#6DA544"/>
</svg>
