<svg width="30" height="20" viewBox="0 0 30 20" fill="none" xmlns="http://www.w3.org/2000/svg">
<path d="M30 0H0V19.9996H30V0Z" fill="#A2001D"/>
<path d="M30 0V9.76703L0 10.0103V0H30Z" fill="#0052B4"/>
<path d="M18.478 12.609L14.9997 12.1742L11.5215 12.609V7.3916H18.478V12.609Z" fill="#F0F0F0"/>
<path d="M14.9999 12.1747C15.9604 12.1747 16.7391 11.396 16.7391 10.4355C16.7391 9.47495 15.9604 8.69629 14.9999 8.69629C14.0394 8.69629 13.2607 9.47495 13.2607 10.4355C13.2607 11.396 14.0394 12.1747 14.9999 12.1747Z" fill="#0052B4"/>
<path d="M15.0004 11.3045C15.4806 11.3045 15.8699 10.9152 15.8699 10.435C15.8699 9.95473 15.4806 9.56543 15.0004 9.56543C14.5202 9.56543 14.1309 9.95473 14.1309 10.435C14.1309 10.9152 14.5202 11.3045 15.0004 11.3045Z" fill="#A2001D"/>
<path d="M13.6953 8.26074H16.304L14.9997 9.5651L13.6953 8.26074Z" fill="#6DA544"/>
<path d="M15.435 9.13086H14.5654V11.7396H15.435V9.13086Z" fill="#FFDA44"/>
<path d="M16.3911 11.4785H13.6084L11.5215 12.609H18.478L16.3911 11.4785Z" fill="#6DA544"/>
</svg>
