<svg width="30" height="20" viewBox="0 0 30 20" fill="none" xmlns="http://www.w3.org/2000/svg">
<path d="M30 0H0V19.9999H30V0Z" fill="#F0F0F0"/>
<path d="M30 2.5H0V4.99982H30V2.5Z" fill="#D80027"/>
<path d="M30 5H0V7.49982H30V5Z" fill="#0052B4"/>
<path d="M30 10H0V12.4998H30V10Z" fill="#D80027"/>
<path d="M30 12.5H0V14.9998H30V12.5Z" fill="#0052B4"/>
<path d="M30 17.5H0V19.9998H30V17.5Z" fill="#D80027"/>
<path d="M15 0H0V9.99994H15V0Z" fill="#F0F0F0"/>
<path d="M8.4375 0H6.5625V4.0626H0V5.93763H6.5625V10.0002H8.4375V5.93763H15V4.0626H8.4375V0Z" fill="#D80027"/>
<path d="M11.5361 6.73926L14.9995 8.66333V6.73926H11.5361Z" fill="#0052B4"/>
<path d="M9.13086 6.73926L15.0004 10.0002V9.07806L10.7906 6.73926H9.13086Z" fill="#0052B4"/>
<path d="M13.437 9.99996L9.13086 7.60742V9.99996H13.437Z" fill="#0052B4"/>
<path d="M9.13086 6.73926L15.0004 10.0002V9.07806L10.7906 6.73926H9.13086Z" fill="#F0F0F0"/>
<path d="M9.13086 6.73926L15.0004 10.0002V9.07806L10.7906 6.73926H9.13086Z" fill="#D80027"/>
<path d="M2.64674 6.73926L0 8.20969V6.73926H2.64674Z" fill="#0052B4"/>
<path d="M5.86986 7.1543V10.0005H0.74707L5.86986 7.1543Z" fill="#0052B4"/>
<path d="M4.20973 6.73926L0 9.07806V10.0002L5.86957 6.73926H4.20973Z" fill="#D80027"/>
<path d="M3.46336 3.26099L0 1.33691V3.26099H3.46336Z" fill="#0052B4"/>
<path d="M5.86957 3.26091L0 0V0.922104L4.20979 3.26091H5.86957Z" fill="#0052B4"/>
<path d="M1.56348 0L5.86959 2.3926V0H1.56348Z" fill="#0052B4"/>
<path d="M5.86957 3.26091L0 0V0.922104L4.20979 3.26091H5.86957Z" fill="#F0F0F0"/>
<path d="M5.86957 3.26091L0 0V0.922104L4.20979 3.26091H5.86957Z" fill="#D80027"/>
<path d="M12.3535 3.26139L15.0003 1.79102V3.26139H12.3535Z" fill="#0052B4"/>
<path d="M9.13086 2.84624V0H14.2537L9.13086 2.84624Z" fill="#0052B4"/>
<path d="M10.7907 3.26091L15.0004 0.922163V0L9.13086 3.26091H10.7907Z" fill="#D80027"/>
</svg>
