<svg width="30" height="20" viewBox="0 0 30 20" fill="none" xmlns="http://www.w3.org/2000/svg">
<path d="M30 0H0V20H30V0Z" fill="#F0F0F0"/>
<path d="M30 0H0V6.66665H30V0Z" fill="#338AF3"/>
<path d="M30 13.333H0V19.9997H30V13.333Z" fill="#338AF3"/>
<path d="M11.9233 7.21777L12.1824 8.01496H13.0206L12.3424 8.50763L12.6014 9.30475L11.9233 8.81209L11.2453 9.30475L11.5043 8.50763L10.8262 8.01496H11.6644L11.9233 7.21777Z" fill="#338AF3"/>
<path d="M11.9233 10.6953L12.1824 11.4926H13.0206L12.3424 11.9851L12.6014 12.7823L11.9233 12.2896L11.2453 12.7823L11.5043 11.9851L10.8262 11.4926H11.6644L11.9233 10.6953Z" fill="#338AF3"/>
<path d="M18.0757 7.21777L18.3347 8.01496H19.1729L18.4947 8.50763L18.7538 9.30475L18.0757 8.81209L17.3976 9.30475L17.6567 8.50763L16.9785 8.01496H17.8167L18.0757 7.21777Z" fill="#338AF3"/>
<path d="M18.0757 10.6953L18.3347 11.4926H19.1729L18.4947 11.9851L18.7538 12.7823L18.0757 12.2896L17.3976 12.7823L17.6567 11.9851L16.9785 11.4926H17.8167L18.0757 10.6953Z" fill="#338AF3"/>
<path d="M14.9995 8.95605L15.2586 9.75324H16.0967L15.4186 10.2459L15.6776 11.0431L14.9995 10.5504L14.3214 11.0431L14.5804 10.2459L13.9023 9.75324H14.7405L14.9995 8.95605Z" fill="#338AF3"/>
</svg>
