<svg width="30" height="20" viewBox="0 0 30 20" fill="none" xmlns="http://www.w3.org/2000/svg">
<path d="M30 0H0V20H30V0Z" fill="#D80027"/>
<path d="M16.0326 7.56501C15.8054 8.51023 15.4015 8.33 15.2034 9.15435C14.0361 8.87374 13.3172 7.69989 13.5978 6.53248C13.8784 5.36525 15.0523 4.64631 16.2196 4.92691C15.8232 6.57566 16.2358 6.71957 16.0326 7.56501Z" fill="#F0F0F0"/>
<path d="M13.0026 8.26556C13.8314 8.77379 13.5351 9.10215 14.2579 9.54535C13.6302 10.5688 12.2918 10.8897 11.2683 10.2621C10.2448 9.63447 9.92382 8.29591 10.5515 7.27246C11.997 8.15892 12.2613 7.81099 13.0026 8.26556Z" fill="#F0F0F0"/>
<path d="M12.7331 11.3628C13.4726 10.7317 13.6933 11.1149 14.3382 10.5645C15.1176 11.4776 15.0092 12.8498 14.0961 13.6292C13.1828 14.4087 11.8107 14.3002 11.0312 13.3871C12.321 12.2863 12.0717 11.9274 12.7331 11.3628Z" fill="#F0F0F0"/>
<path d="M15.5954 12.5767C15.2235 11.6784 15.6561 11.5868 15.332 10.8035C16.4414 10.3444 17.7129 10.8715 18.1721 11.9808C18.6312 13.0902 18.104 14.3617 16.9947 14.8208C16.3462 13.2541 15.9279 13.3802 15.5954 12.5767Z" fill="#F0F0F0"/>
<path d="M17.634 10.2294C16.6647 10.3054 16.7113 9.86558 15.8661 9.93191C15.7723 8.73503 16.6665 7.68861 17.8635 7.59463C19.0604 7.50094 20.1068 8.39519 20.2007 9.59207C18.5102 9.72461 18.5007 10.1615 17.634 10.2294Z" fill="#F0F0F0"/>
</svg>
