<svg width="30" height="20" viewBox="0 0 30 20" fill="none" xmlns="http://www.w3.org/2000/svg">
<path d="M30 0H0V20H30V0Z" fill="#F0F0F0"/>
<path d="M30 0H0V6.66665H30V0Z" fill="#FF9811"/>
<path d="M30 13.333H0V19.9997H30V13.333Z" fill="#6DA544"/>
<path d="M14.9998 12.5719C16.4203 12.5719 17.5718 11.4203 17.5718 9.99982C17.5718 8.5793 16.4203 7.42773 14.9998 7.42773C13.5793 7.42773 12.4277 8.5793 12.4277 9.99982C12.4277 11.4203 13.5793 12.5719 14.9998 12.5719Z" fill="#0052B4"/>
<path d="M15 11.6076C15.8878 11.6076 16.6075 10.8879 16.6075 10.0001C16.6075 9.11228 15.8878 8.39258 15 8.39258C14.1123 8.39258 13.3926 9.11228 13.3926 10.0001C13.3926 10.8879 14.1123 11.6076 15 11.6076Z" fill="#F0F0F0"/>
<path d="M14.9992 8.0166L15.4951 9.14133L16.7171 9.00844L15.991 10.0003L16.7171 10.9921L15.4951 10.8592L14.9992 11.984L14.5032 10.8592L13.2812 10.9921L14.0073 10.0003L13.2812 9.00844L14.5032 9.14133L14.9992 8.0166Z" fill="#0052B4"/>
</svg>
