<svg width="30" height="20" viewBox="0 0 30 20" fill="none" xmlns="http://www.w3.org/2000/svg">
<path d="M30 0H0V20H30V0Z" fill="#F0F0F0"/>
<path d="M30 0H0V6.66665H30V0Z" fill="#6DA544"/>
<path d="M30 13.333H0V19.9997H30V13.333Z" fill="#D80027"/>
<path d="M17.5977 7.91309H16.551C16.5597 8.02811 16.5646 8.14418 16.5646 8.26091C16.5646 9.03477 16.3712 9.78496 16.0339 10.3189C15.9299 10.4836 15.7551 10.7162 15.5211 10.873V7.91309H14.4776V10.873C14.2435 10.7161 14.0687 10.4835 13.9647 10.3189C13.6274 9.7849 13.4341 9.03477 13.4341 8.26091C13.4341 8.14418 13.439 8.02805 13.4477 7.91309H12.401C12.3943 8.02752 12.3906 8.14348 12.3906 8.26091C12.3907 10.4065 13.5365 12.0871 14.9994 12.0871C16.4622 12.0871 17.6081 10.4065 17.6081 8.26091C17.608 8.14348 17.6044 8.02752 17.5977 7.91309Z" fill="#D80027"/>
<path d="M3.91373 5.79688H2.60938V7.22782H3.91373V5.79688Z" fill="#F0F0F0"/>
<path d="M1.30436 5.79688H0V7.22782H1.30436V5.79688Z" fill="#F0F0F0"/>
<path d="M6.52115 5.79688H5.2168V7.22782H6.52115V5.79688Z" fill="#F0F0F0"/>
<path d="M9.13053 5.79688H7.82617V7.22782H9.13053V5.79688Z" fill="#F0F0F0"/>
<path d="M11.7399 5.79688H10.4355V7.22782H11.7399V5.79688Z" fill="#F0F0F0"/>
<path d="M14.3473 5.79688H13.043V7.22782H14.3473V5.79688Z" fill="#F0F0F0"/>
<path d="M16.9567 5.79688H15.6523V7.22782H16.9567V5.79688Z" fill="#F0F0F0"/>
<path d="M19.5661 5.79688H18.2617V7.22782H19.5661V5.79688Z" fill="#F0F0F0"/>
<path d="M22.1735 5.79688H20.8691V7.22782H22.1735V5.79688Z" fill="#F0F0F0"/>
<path d="M24.7829 5.79688H23.4785V7.22782H24.7829V5.79688Z" fill="#F0F0F0"/>
<path d="M27.3922 5.79688H26.0879V7.22782H27.3922V5.79688Z" fill="#F0F0F0"/>
<path d="M29.9997 5.79688H28.6953V7.22782H29.9997V5.79688Z" fill="#F0F0F0"/>
<path d="M3.91373 12.707H2.60938V14.2032H3.91373V12.707Z" fill="#F0F0F0"/>
<path d="M1.30436 12.707H0V14.2032H1.30436V12.707Z" fill="#F0F0F0"/>
<path d="M6.52115 12.707H5.2168V14.2032H6.52115V12.707Z" fill="#F0F0F0"/>
<path d="M9.13053 12.707H7.82617V14.2032H9.13053V12.707Z" fill="#F0F0F0"/>
<path d="M11.7399 12.707H10.4355V14.2032H11.7399V12.707Z" fill="#F0F0F0"/>
<path d="M14.3473 12.707H13.043V14.2032H14.3473V12.707Z" fill="#F0F0F0"/>
<path d="M16.9567 12.707H15.6523V14.2032H16.9567V12.707Z" fill="#F0F0F0"/>
<path d="M19.5661 12.707H18.2617V14.2032H19.5661V12.707Z" fill="#F0F0F0"/>
<path d="M22.1735 12.707H20.8691V14.2032H22.1735V12.707Z" fill="#F0F0F0"/>
<path d="M24.7829 12.707H23.4785V14.2032H24.7829V12.707Z" fill="#F0F0F0"/>
<path d="M27.3922 12.707H26.0879V14.2032H27.3922V12.707Z" fill="#F0F0F0"/>
<path d="M29.9997 12.707H28.6953V14.2032H29.9997V12.707Z" fill="#F0F0F0"/>
</svg>
