<svg width="30" height="20" viewBox="0 0 30 20" fill="none" xmlns="http://www.w3.org/2000/svg">
<path d="M30 0H0V20H30V0Z" fill="#F0F0F0"/>
<path d="M30 0H0V6.66665H30V0Z" fill="#A2001D"/>
<path d="M30 13.333H0V19.9997H30V13.333Z" fill="black"/>
<path d="M12.8435 9.41766C12.8387 9.41766 12.8338 9.41801 12.829 9.41807V9.41766H11.1234C11.2099 9.08355 11.513 8.83575 11.8738 8.83575V7.67188C10.8042 7.67188 9.93416 8.54201 9.93416 9.61155V10.562V10.5814H12.8291C12.8356 10.5814 12.8408 10.5814 12.8436 10.5814C12.9506 10.5814 13.0376 10.6684 13.0376 10.7753V11.1632H9.1582V12.327H14.2013V10.7754C14.2013 10.0267 13.5922 9.41766 12.8435 9.41766Z" fill="#496E2D"/>
<path d="M15.7516 11.1634V7.67188H14.5879V12.3272H16.5275V11.1634H15.7516Z" fill="#496E2D"/>
<path d="M19.6315 11.1634V7.67188H18.4678V11.1634H18.0799V9.99962H16.916V12.3272H20.4074V11.1634H19.6315Z" fill="#496E2D"/>
</svg>
