<svg width="30" height="20" viewBox="0 0 30 20" fill="none" xmlns="http://www.w3.org/2000/svg">
<path d="M30 0H0V20H30V0Z" fill="#F0F0F0"/>
<path d="M18.75 7.835H16.25L15 5.66992L13.75 7.83494H11.25L12.5001 10L11.25 12.165H13.75L15 14.33L16.25 12.165H18.75L17.4999 9.99995L18.75 7.835ZM16.5357 9.99995L15.7679 11.33H14.2322L13.4643 9.99995L14.2322 8.66995H15.7679L16.5357 9.99995ZM15 7.34L15.2858 7.835H14.7142L15 7.34ZM12.6964 8.66995H13.268L12.9822 9.16494L12.6964 8.66995ZM12.6964 11.33L12.9821 10.835L13.2679 11.33H12.6964ZM15 12.66L14.7143 12.165H15.2858L15 12.66ZM17.3036 11.33H16.732L17.0178 10.835L17.3036 11.33ZM16.732 8.66995H17.3036L17.0179 9.16494L16.732 8.66995Z" fill="#2E52B2"/>
<path d="M30 1.25H0V3.74976H30V1.25Z" fill="#2E52B2"/>
<path d="M30 16.249H0V18.7488H30V16.249Z" fill="#2E52B2"/>
</svg>
