<svg width="30" height="20" viewBox="0 0 30 20" fill="none" xmlns="http://www.w3.org/2000/svg">
<path d="M30 0H0V19.9994H30V0Z" fill="#6DA544"/>
<path d="M12.6483 9.99993L0 18.4318V1.56738L12.6483 9.99993Z" fill="black"/>
<path d="M29.9998 1.56738V18.4318L17.3516 9.99993L29.9998 1.56738Z" fill="black"/>
<path d="M30 1.56783L17.3517 10.0004L30 18.4322V20H27.6489L15 11.5675L2.35107 20H0V18.4322L12.6483 10.0004L0 1.56783V0H2.35107L15 8.43255L27.6489 0H30V1.56783Z" fill="#0052B4"/>
<path d="M30 1.56783L17.3517 10.0004L30 18.4322V20H27.6489L15 11.5675L2.35107 20H0V18.4322L12.6483 10.0004L0 1.56783V0H2.35107L15 8.43255L27.6489 0H30V1.56783Z" fill="#FFDA44"/>
</svg>
