<svg width="30" height="20" viewBox="0 0 30 20" fill="none" xmlns="http://www.w3.org/2000/svg">
<rect width="30" height="19.9811" fill="white"/>
<path d="M17.6517 10.01L30 1.7856V0.0195312H27.3483L15 8.24384L2.65166 0.0195312H0V1.7856L12.3483 10.01L0 18.2343V20.0003H2.65166L15 11.776L27.3483 20.0003H30V18.2343L17.6517 10.01Z" fill="#D80027"/>
<path d="M13.6953 4.79683L14.9997 5.12259L16.304 4.79683V3.68918L15.7823 3.94985L14.9997 3.16797L14.217 3.94985L13.6953 3.68918V4.79683Z" fill="#FFDA44"/>
<path d="M13.6953 4.79688V5.61136C13.6953 6.60884 14.9997 6.91446 14.9997 6.91446C14.9997 6.91446 16.304 6.60884 16.304 5.61136V4.79688H13.6953Z" fill="#D80027"/>
</svg>
