<svg width="30" height="20" viewBox="0 0 30 20" fill="none" xmlns="http://www.w3.org/2000/svg">
<path d="M30 0H0V20H30V0Z" fill="#338AF3"/>
<path d="M20.625 10.5723H9.375C9.375 11.3489 10.0514 11.9784 10.8281 11.9784H10.7812C10.7812 12.7551 11.4108 13.3847 12.1876 13.3847C12.1876 14.1614 12.8171 14.791 13.5939 14.791H16.4064C17.183 14.791 17.8127 14.1615 17.8127 13.3847C18.5893 13.3847 19.219 12.7552 19.219 11.9784H19.1722C19.9485 11.9784 20.625 11.3489 20.625 10.5723Z" fill="#FFDA44"/>
<path d="M18.894 8.7334C18.894 10.8841 17.1505 12.6276 14.9997 12.6276C12.849 12.6276 11.1055 10.8841 11.1055 8.7334" fill="#338AF3"/>
<path d="M18.8612 8.36864L17.2838 9.00724L18.1238 10.3221L16.411 10.0401L16.1939 11.5292L15.0009 10.434L13.8078 11.5292L13.5908 10.0401L11.878 10.322L12.7179 9.00719L11.1406 8.36864L12.718 7.73003L11.878 6.41526L13.5908 6.69727L13.8079 5.20801L15.0009 6.30335L16.194 5.20801L16.411 6.69727L18.1238 6.41526L17.2839 7.73009L18.8612 8.36864Z" fill="#FFDA44"/>
</svg>
