<svg width="30" height="20" viewBox="0 0 30 20" fill="none" xmlns="http://www.w3.org/2000/svg">
<path d="M30 0H0V20H30V0Z" fill="#F0F0F0"/>
<path d="M30 0H0V5.30731H30V0Z" fill="black"/>
<path d="M30 14.6924H0V19.999H30V14.6924Z" fill="#496E2D"/>
<path d="M30 6.63672H0V13.3632H30V6.63672Z" fill="#A2001D"/>
<path d="M18.9412 3.19193L17.4422 2.5L14.9999 8.03014L12.5576 2.5L11.0586 3.19193L14.0908 9.99992L11.0586 16.808L12.5576 17.4998L14.9999 11.9698L17.4422 17.4998L18.9412 16.808L15.909 9.99992L18.9412 3.19193Z" fill="#F0F0F0"/>
<path d="M16.0187 3.84372C15.4384 3.20998 15.0005 2.8457 15.0005 2.8457C15.0005 2.8457 14.5627 3.20992 13.9824 3.84366V16.1557C14.5627 16.7894 15.0005 17.1537 15.0005 17.1537C15.0005 17.1537 15.4384 16.7895 16.0187 16.1557V3.84372Z" fill="#F0F0F0"/>
<path d="M12.248 6.20513V13.795C12.8612 14.8814 13.6118 15.772 14.1741 16.3624V3.6377C13.6117 4.22808 12.8612 5.11864 12.248 6.20513Z" fill="#A2001D"/>
<path d="M17.7523 6.20513C17.1391 5.11864 16.3886 4.22808 15.8262 3.6377V16.3625C16.3886 15.772 17.1391 14.8815 17.7523 13.795V6.20513Z" fill="#A2001D"/>
<path d="M17.752 6.20508V13.7949C18.3727 12.6949 18.8526 11.3942 18.8526 10C18.8526 8.60587 18.3727 7.30516 17.752 6.20508Z" fill="black"/>
<path d="M12.2491 6.20508V13.7949C11.6283 12.6949 11.1484 11.3942 11.1484 10C11.1484 8.60587 11.6283 7.30516 12.2491 6.20508Z" fill="black"/>
</svg>
