<svg width="30" height="20" viewBox="0 0 30 20" fill="none" xmlns="http://www.w3.org/2000/svg">
<path d="M30 0V10.0587C29.1783 10.1194 27.8452 11.3044 27.0509 11.3044C26.2356 11.3044 24.853 10.0567 24.0378 10.0567C23.2226 10.0567 21.8406 11.3044 21.0254 11.3044C20.2102 11.3044 18.8276 10.0567 18.0124 10.0567C17.1971 10.0567 15.8152 11.3044 15 11.3044C14.1848 11.3044 12.8029 10.0567 11.9876 10.0567C11.1724 10.0567 9.78979 11.3044 8.97457 11.3044C8.15936 11.3044 6.77742 10.0567 5.96221 10.0567C5.14699 10.0567 3.76436 11.3044 2.94914 11.3044C2.15479 11.3044 0.821777 10.1194 0 10.0587V0H30Z" fill="#D80027"/>
<path d="M18.478 9.95241L17.0567 10.621L17.8135 11.9975L16.2702 11.7022L16.0746 13.2613L14.9997 12.1146L13.9248 13.2613L13.7292 11.7022L12.1859 11.9973L12.9427 10.6209L11.5215 9.95241L12.9428 9.28384L12.1859 7.90739L13.7292 8.20259L13.9248 6.64355L14.9997 7.7902L16.0747 6.64355L16.2702 8.20259L17.8136 7.90739L17.0568 9.2839L18.478 9.95241Z" fill="#FFDA44"/>
<path d="M17.608 3.9129H15.6514C15.6514 3.55278 15.3594 3.26074 14.9993 3.26074C14.6392 3.26074 14.3471 3.55278 14.3471 3.9129H12.3906C12.3906 4.27309 12.7044 4.56507 13.0645 4.56507H13.0428C13.0428 4.92525 13.3347 5.21723 13.6949 5.21723C13.6949 5.57741 13.9869 5.86939 14.3471 5.86939H15.6514C16.0115 5.86939 16.3036 5.57741 16.3036 5.21723C16.6637 5.21723 16.9557 4.92525 16.9557 4.56507H16.934C17.2942 4.56513 17.608 4.27309 17.608 3.9129Z" fill="#FFDA44"/>
<path d="M30 10.0586V19.9999H0V10.0586C0.821719 10.1193 2.15479 11.3043 2.94914 11.3043C3.76436 11.3043 5.14699 10.0566 5.96221 10.0566C6.77742 10.0566 8.15936 11.3043 8.97457 11.3043C9.78979 11.3043 11.1724 10.0566 11.9876 10.0566C12.8029 10.0566 14.1848 11.3043 15 11.3043C15.8152 11.3043 17.1971 10.0566 18.0124 10.0566C18.8276 10.0566 20.2102 11.3043 21.0254 11.3043C21.8406 11.3043 23.2226 10.0566 24.0378 10.0566C24.853 10.0566 26.2356 11.3043 27.0509 11.3043C27.8452 11.3043 29.1783 10.1193 30 10.0586Z" fill="#0052B4"/>
<path d="M0 10.7152C0.25998 10.7589 0.752754 11.0384 1.12096 11.2476C1.76303 11.6122 2.36947 11.9566 2.94937 11.9566C3.52928 11.9566 4.13566 11.6122 4.77773 11.2476C5.17822 11.0202 5.72672 10.7087 5.96203 10.7087C6.19734 10.7087 6.7459 11.0201 7.14633 11.2476C7.7884 11.6122 8.39484 11.9566 8.97469 11.9566C9.55453 11.9566 10.161 11.6122 10.803 11.2476C11.2035 11.0202 11.752 10.7087 11.9873 10.7087C12.2226 10.7087 12.7712 11.0201 13.1716 11.2476C13.8137 11.6122 14.4201 11.9566 15 11.9566C15.5799 11.9566 16.1863 11.6122 16.8284 11.2476C17.2288 11.0202 17.7773 10.7087 18.0127 10.7087C18.248 10.7087 18.7965 11.0201 19.1969 11.2476C19.839 11.6122 20.4454 11.9566 21.0253 11.9566C21.6052 11.9566 22.2116 11.6122 22.8537 11.2476C23.2542 11.0202 23.8027 10.7087 24.038 10.7087C24.2733 10.7087 24.8218 11.0201 25.2223 11.2476C25.8643 11.6122 26.4708 11.9566 27.0506 11.9566C27.6305 11.9566 28.2369 11.6122 28.879 11.2476C29.2472 11.0384 29.74 10.7589 29.9999 10.7152V9.40664C29.4392 9.43031 28.8536 9.76196 28.2348 10.1134C27.8344 10.3408 27.2859 10.6523 27.0506 10.6523C26.8153 10.6523 26.2667 10.3408 25.8663 10.1134C25.2242 9.74872 24.6178 9.40436 24.0379 9.40436C23.4581 9.40436 22.8516 9.74872 22.2096 10.1134C21.8091 10.3408 21.2606 10.6523 21.0253 10.6523C20.7899 10.6523 20.2414 10.3408 19.841 10.1134C19.1989 9.74872 18.5925 9.40436 18.0127 9.40436C17.4328 9.40436 16.8264 9.74872 16.1843 10.1134C15.7838 10.3408 15.2353 10.6522 14.9999 10.6522C14.7646 10.6522 14.2161 10.3408 13.8156 10.1133C13.1736 9.74866 12.5671 9.4043 11.9873 9.4043C11.4074 9.4043 10.801 9.74866 10.1589 10.1133C9.7585 10.3407 9.21 10.6522 8.97469 10.6522C8.73938 10.6522 8.19082 10.3408 7.79039 10.1133C7.14832 9.74866 6.54187 9.4043 5.96203 9.4043C5.38219 9.4043 4.77574 9.74866 4.13367 10.1133C3.73312 10.3408 3.18463 10.6522 2.94932 10.6522C2.714 10.6522 2.16545 10.3408 1.76508 10.1133C1.14639 9.76184 0.560742 9.4302 0 9.40652V10.7152Z" fill="#F0F0F0"/>
<path d="M27.0506 13.9129C26.8153 13.9129 26.2668 13.6015 25.8663 13.374C25.2243 13.0094 24.6178 12.665 24.038 12.665C23.4581 12.665 22.8517 13.0094 22.2096 13.374C21.8091 13.6014 21.2606 13.9129 21.0253 13.9129C20.79 13.9129 20.2414 13.6015 19.8411 13.374C19.199 13.0094 18.5926 12.665 18.0127 12.665C17.4329 12.665 16.8264 13.0094 16.1844 13.374C15.7839 13.6015 15.2353 13.9129 15 13.9129C14.7647 13.9129 14.2161 13.6015 13.8157 13.374C13.1736 13.0094 12.5672 12.665 11.9873 12.665C11.4075 12.665 10.8011 13.0094 10.159 13.374C9.75856 13.6014 9.21006 13.9129 8.97475 13.9129C8.73943 13.9129 8.19088 13.6015 7.79045 13.374C7.14838 13.0094 6.54193 12.665 5.96209 12.665C5.38225 12.665 4.7758 13.0094 4.13373 13.374C3.73318 13.6015 3.18469 13.9129 2.94937 13.9129C2.71406 13.9129 2.16551 13.6015 1.76514 13.374C1.14639 13.0226 0.560742 12.691 0 12.6673V13.9759C0.25998 14.0196 0.752754 14.2991 1.12096 14.5083C1.76303 14.873 2.36947 15.2173 2.94937 15.2173C3.52928 15.2173 4.13566 14.873 4.77773 14.5083C5.17822 14.2809 5.72672 13.9694 5.96203 13.9694C6.19734 13.9694 6.7459 14.2809 7.14633 14.5083C7.7884 14.873 8.39484 15.2173 8.97469 15.2173C9.55453 15.2173 10.161 14.873 10.803 14.5083C11.2035 14.2809 11.752 13.9694 11.9873 13.9694C12.2226 13.9694 12.7712 14.2809 13.1716 14.5083C13.8137 14.873 14.4201 15.2173 15 15.2173C15.5799 15.2173 16.1863 14.873 16.8284 14.5083C17.2288 14.2809 17.7773 13.9694 18.0127 13.9694C18.248 13.9694 18.7965 14.2809 19.1969 14.5083C19.839 14.873 20.4454 15.2173 21.0253 15.2173C21.6052 15.2173 22.2116 14.873 22.8537 14.5083C23.2542 14.2809 23.8027 13.9694 24.038 13.9694C24.2733 13.9694 24.8218 14.2809 25.2223 14.5083C25.8643 14.873 26.4708 15.2173 27.0506 15.2173C27.6305 15.2173 28.2369 14.873 28.879 14.5083C29.2472 14.2991 29.74 14.0196 29.9999 13.9759V12.6674C29.4392 12.6911 28.8536 13.0227 28.2348 13.3741C27.8344 13.6015 27.286 13.9129 27.0506 13.9129Z" fill="#F0F0F0"/>
<path d="M30 15.9281C29.4393 15.9517 28.8536 16.2834 28.2349 16.6348C27.8344 16.8622 27.2859 17.1737 27.0506 17.1737C26.8153 17.1737 26.2668 16.8622 25.8663 16.6348C25.2243 16.2701 24.6178 15.9258 24.038 15.9258C23.4581 15.9258 22.8517 16.2701 22.2096 16.6348C21.8091 16.8622 21.2606 17.1737 21.0253 17.1737C20.79 17.1737 20.2414 16.8622 19.8411 16.6348C19.199 16.2701 18.5926 15.9258 18.0127 15.9258C17.4329 15.9258 16.8264 16.2701 16.1844 16.6348C15.7838 16.8622 15.2353 17.1737 14.9999 17.1737C14.7646 17.1737 14.2161 16.8622 13.8156 16.6348C13.1736 16.2701 12.5671 15.9258 11.9873 15.9258C11.4074 15.9258 10.801 16.2701 10.1589 16.6348C9.7585 16.8622 9.21 17.1737 8.97469 17.1737C8.73938 17.1737 8.19082 16.8622 7.79039 16.6348C7.14832 16.2701 6.54187 15.9258 5.96203 15.9258C5.38219 15.9258 4.77574 16.2701 4.13367 16.6348C3.73312 16.8622 3.18463 17.1737 2.94932 17.1737C2.714 17.1737 2.16545 16.8622 1.76508 16.6348C1.14639 16.2834 0.560742 15.9517 0 15.9281V17.2366C0.25998 17.2803 0.752754 17.5598 1.12096 17.769C1.76303 18.1337 2.36947 18.4781 2.94937 18.4781C3.52928 18.4781 4.13566 18.1337 4.77773 17.7691C5.17822 17.5417 5.72672 17.2302 5.96203 17.2302C6.19734 17.2302 6.7459 17.5416 7.14633 17.7691C7.7884 18.1337 8.39484 18.4781 8.97469 18.4781C9.55453 18.4781 10.161 18.1337 10.803 17.7691C11.2035 17.5417 11.752 17.2302 11.9873 17.2302C12.2226 17.2302 12.7712 17.5416 13.1716 17.7691C13.8137 18.1337 14.4201 18.4781 15 18.4781C15.5799 18.4781 16.1863 18.1337 16.8284 17.7691C17.2288 17.5417 17.7773 17.2302 18.0127 17.2302C18.248 17.2302 18.7965 17.5416 19.1969 17.7691C19.839 18.1337 20.4454 18.4781 21.0253 18.4781C21.6052 18.4781 22.2116 18.1337 22.8537 17.7691C23.2542 17.5417 23.8027 17.2302 24.038 17.2302C24.2733 17.2302 24.8218 17.5416 25.2223 17.7691C25.8643 18.1337 26.4708 18.4781 27.0506 18.4781C27.6305 18.4781 28.2369 18.1337 28.879 17.7691C29.2472 17.5599 29.74 17.2804 29.9999 17.2367V15.9281H30Z" fill="#F0F0F0"/>
</svg>
