<svg width="30" height="20" viewBox="0 0 30 20" fill="none" xmlns="http://www.w3.org/2000/svg">
<path d="M30 0H0V20H30V0Z" fill="#D80027"/>
<path d="M14.9998 19.9994C20.5225 19.9994 24.9996 15.5223 24.9996 9.99968C24.9996 4.47701 20.5225 0 14.9998 0C9.47706 0 5 4.47701 5 9.99968C5 15.5223 9.47706 19.9994 14.9998 19.9994Z" fill="#D80027"/>
<path d="M19.8904 9.99972L17.8921 10.9397L18.9563 12.8751L16.7862 12.4599L16.5114 14.6518L14.9999 13.0398L13.4885 14.6518L13.2135 12.4599L11.0436 12.8749L12.1077 10.9395L10.1094 9.99972L12.1078 9.05988L11.0436 7.12438L13.2134 7.53962L13.4885 5.34766L14.9999 6.95973L16.5114 5.34766L16.7862 7.53962L18.9563 7.12438L17.8922 9.05994L19.8904 9.99972Z" fill="#FFDA44"/>
<path d="M15.0005 13.0429C16.6814 13.0429 18.044 11.6803 18.044 9.9995C18.044 8.31865 16.6814 6.95605 15.0005 6.95605C13.3196 6.95605 11.957 8.31865 11.957 9.9995C11.957 11.6803 13.3196 13.0429 15.0005 13.0429Z" fill="#D80027"/>
<path d="M13.4788 10C13.4055 10 13.3331 10.0037 13.2617 10.0109C13.2644 10.4325 13.4169 10.8183 13.6688 11.118C13.8032 10.7563 14.0038 10.4266 14.2568 10.1445C14.015 10.0515 13.7529 10 13.4788 10Z" fill="#FFDA44"/>
<path d="M14.416 11.6376C14.5988 11.7029 14.7957 11.7388 15.001 11.7388C15.2062 11.7388 15.4031 11.703 15.5859 11.6376C15.4862 11.2465 15.2805 10.8974 15.001 10.623C14.7214 10.8974 14.5157 11.2465 14.416 11.6376Z" fill="#FFDA44"/>
<path d="M16.5062 9.13056C16.2055 8.61078 15.6439 8.26074 15.0002 8.26074C14.3566 8.26074 13.7949 8.61078 13.4941 9.13056C14.0423 9.13337 14.5564 9.28237 15.0002 9.53977C15.444 9.28237 15.958 9.13337 16.5062 9.13056Z" fill="#FFDA44"/>
<path d="M15.7441 10.1445C15.9972 10.4266 16.1978 10.7564 16.3321 11.118C16.584 10.8182 16.7365 10.4324 16.7392 10.0109C16.6677 10.0038 16.5953 10 16.5221 10C16.248 10 15.9858 10.0515 15.7441 10.1445Z" fill="#FFDA44"/>
</svg>
