<svg width="30" height="20" viewBox="0 0 30 20" fill="none" xmlns="http://www.w3.org/2000/svg">
<path d="M30 0H0V19.9994H30V0Z" fill="#F0F0F0"/>
<path d="M30 0H0V1.81815H30V0Z" fill="#D80027"/>
<path d="M30 3.63672H0V5.45486H30V3.63672Z" fill="#D80027"/>
<path d="M30 7.27246H0V9.09061H30V7.27246Z" fill="#D80027"/>
<path d="M30 10.9092H0V12.7273H30V10.9092Z" fill="#D80027"/>
<path d="M30 14.5459H0V16.364H30V14.5459Z" fill="#D80027"/>
<path d="M30 18.1816H0V19.9998H30V18.1816Z" fill="#D80027"/>
<path d="M15 0H0V9.81151H15V0Z" fill="#0052B4"/>
<path d="M7.5007 2.29688L8.14816 4.28956H10.2437L8.54848 5.52121L9.19594 7.51402L7.5007 6.28237L5.80541 7.51402L6.45305 5.52121L4.75781 4.28956H6.85324L7.5007 2.29688Z" fill="#F0F0F0"/>
</svg>
