<svg width="30" height="20" viewBox="0 0 30 20" fill="none" xmlns="http://www.w3.org/2000/svg">
<path d="M30 0H0V20H30V0Z" fill="black"/>
<path d="M30 0H0V6.66665H30V0Z" fill="#D80027"/>
<path d="M30 13.333H0V19.9997H30V13.333Z" fill="#496E2D"/>
<path d="M16.4897 8.83008L17.0148 9.55373L17.8652 9.27798L17.3393 10.001L17.8644 10.7246L17.0142 10.4478L16.4883 11.1708L16.4889 10.2768L15.6387 9.99993L16.4891 9.72418L16.4897 8.83008Z" fill="#F0F0F0"/>
<path d="M15.0565 11.8082C14.0576 11.8082 13.2478 10.9984 13.2478 9.99952C13.2478 9.00065 14.0576 8.19081 15.0565 8.19081C15.368 8.19081 15.661 8.26962 15.9169 8.4082C15.5154 8.01573 14.9666 7.77344 14.3609 7.77344C13.1314 7.77344 12.1348 8.77014 12.1348 9.99958C12.1348 11.229 13.1314 12.2257 14.3609 12.2257C14.9666 12.2257 15.5155 11.9834 15.9169 11.591C15.6611 11.7295 15.368 11.8082 15.0565 11.8082Z" fill="#F0F0F0"/>
</svg>
