<svg width="30" height="20" viewBox="0 0 30 20" fill="none" xmlns="http://www.w3.org/2000/svg">
<path d="M30 0H0V19.9996H30V0Z" fill="#D80027"/>
<path d="M30 0V9.76703L0 10.0103V0H30Z" fill="#0052B4"/>
<path d="M12.3911 6.95663C12.3911 6.23622 11.8072 5.65227 11.0868 5.65227C10.7526 5.65227 10.448 5.77801 10.2172 5.98462V5.21745H10.6521V4.34791H10.2172V3.91309H9.34772V4.34791H8.91289V5.21745H9.34772V5.98462C9.11691 5.77801 8.81229 5.65227 8.47818 5.65227C7.75777 5.65227 7.17383 6.23622 7.17383 6.95663C7.17383 7.34282 7.34182 7.68976 7.60865 7.92865V8.69582H11.9565V7.92865C12.2231 7.68976 12.3911 7.34288 12.3911 6.95663Z" fill="#FFDA44"/>
</svg>
