<svg width="30" height="20" viewBox="0 0 30 20" fill="none" xmlns="http://www.w3.org/2000/svg">
<path d="M30 0H0V20H30V0Z" fill="#496E2D"/>
<path d="M16.7393 9.58231C16.4938 9.58231 16.2608 9.6313 16.0443 9.70911C16.1628 9.44491 16.2423 9.15089 16.2423 8.83695C16.2423 7.59472 15 6.66309 15 6.66309C15 6.66309 13.7578 7.59477 13.7578 8.83695C13.7578 9.15083 13.8372 9.44485 13.9558 9.70911C13.7394 9.6313 13.5063 9.58231 13.2608 9.58231C12.0186 9.58231 11.0869 10.8245 11.0869 10.8245C11.0869 10.8245 12.0186 12.0668 13.2608 12.0668C13.9891 12.0668 14.6103 11.6399 15 11.2866C15.3896 11.6399 16.0108 12.0668 16.7392 12.0668C17.9814 12.0668 18.913 10.8245 18.913 10.8245C18.913 10.8245 17.9815 9.58231 16.7393 9.58231Z" fill="#F0F0F0"/>
<path d="M15.0001 3.91309L15.2567 4.70269H16.087L15.4153 5.19089L15.6717 5.98049L15.0001 5.49241L14.3284 5.98049L14.5848 5.19089L13.9131 4.70269H14.7434L15.0001 3.91309Z" fill="#FFDA44"/>
<path d="M11.8425 5.29395L12.3362 5.73837L12.9114 5.40633L12.6413 6.01306L13.1348 6.45766L12.4743 6.38823L12.2041 6.99496L12.0659 6.34528L11.4053 6.27585L11.9805 5.94368L11.8425 5.29395Z" fill="#FFDA44"/>
<path d="M9.53125 7.60507L10.1811 7.74324L10.5132 7.16797L10.5827 7.82855L11.2324 7.96671L10.6255 8.23682L10.695 8.8974L10.2505 8.40387L9.64363 8.67399L9.9758 8.09872L9.53125 7.60507Z" fill="#FFDA44"/>
<path d="M18.1576 5.29395L17.664 5.73837L17.0887 5.40633L17.3589 6.01306L16.8652 6.45766L17.5259 6.38823L17.796 6.99496L17.9342 6.34528L18.5949 6.27585L18.0196 5.94368L18.1576 5.29395Z" fill="#FFDA44"/>
<path d="M20.4687 7.60507L19.8189 7.74324L19.4868 7.16797L19.4173 7.82855L18.7676 7.96671L19.3744 8.23682L19.305 8.8974L19.7495 8.40387L20.3563 8.67399L20.0242 8.09872L20.4687 7.60507Z" fill="#FFDA44"/>
<path d="M14.9998 15.5453C15.9866 15.5453 16.8961 15.216 17.6258 14.6621H12.374C13.1036 15.216 14.0131 15.5453 14.9998 15.5453Z" fill="#F0F0F0"/>
<path d="M11.0146 12.9365C11.1526 13.2523 11.3276 13.5482 11.5332 13.8197H18.4675C18.673 13.5483 18.848 13.2524 18.986 12.9365H11.0146Z" fill="#F0F0F0"/>
</svg>
