<svg width="30" height="20" viewBox="0 0 30 20" fill="none" xmlns="http://www.w3.org/2000/svg">
<path d="M30 0H0V19.9994H30V0Z" fill="#FFDA44"/>
<path d="M29.9996 0H19.3477V20H29.9996V0Z" fill="#0052B4"/>
<path d="M10.6519 0H0V20H10.6519V0Z" fill="#0052B4"/>
<path d="M17.9135 10.8967L18.586 11.7935V8.20656L17.9135 9.10327H15.8958V7.08568L16.7925 6.41309H13.2055L14.1023 7.08568V9.10327H12.0846L11.4121 8.20656V11.7935L12.0846 10.8967H14.1023V12.9144L13.2055 13.5869H16.7925L15.8958 12.9144V10.8967H17.9135Z" fill="#D80027"/>
<path d="M17.691 9.5514H15.4491V7.30957H14.5524V9.5514H12.3105V10.4482H14.5524V12.6899H15.4491V10.4482H17.691V9.5514Z" fill="#F0F0F0"/>
</svg>
