<svg width="30" height="20" viewBox="0 0 30 20" fill="none" xmlns="http://www.w3.org/2000/svg">
<path d="M30 0H0V20H30V0Z" fill="#F0F0F0"/>
<path d="M30 2.5H0V4.99976H30V2.5Z" fill="#D80027"/>
<path d="M30 7.5H0V9.99976H30V7.5Z" fill="#D80027"/>
<path d="M30 12.499H0V14.9988H30V12.499Z" fill="#D80027"/>
<path d="M30 17.5H0V19.9998H30V17.5Z" fill="#D80027"/>
<path d="M15 0H0V10.7692H15V0Z" fill="#0052B4"/>
<path d="M8.25623 7.85695C6.89053 7.85695 5.78346 6.74984 5.78346 5.38421C5.78346 4.01858 6.89059 2.91146 8.25623 2.91146C8.68203 2.91146 9.08264 3.01915 9.4325 3.20864C8.88377 2.67205 8.1333 2.34082 7.30514 2.34082C5.62432 2.34082 4.26172 3.7034 4.26172 5.38421C4.26172 7.06501 5.62437 8.42759 7.30514 8.42759C8.13324 8.42759 8.88377 8.09636 9.4325 7.55977C9.0827 7.74926 8.68203 7.85695 8.25623 7.85695Z" fill="#FFDA44"/>
<path d="M8.95381 3.64551L9.39285 4.56354L10.3843 4.33445L9.94029 5.25002L10.7376 5.88236L9.74488 6.10613L9.7477 7.12371L8.95381 6.48704L8.15992 7.12371L8.16268 6.10613L7.16992 5.88236L7.96727 5.25002L7.52318 4.33445L8.51471 4.56354L8.95381 3.64551Z" fill="#FFDA44"/>
</svg>
