<svg width="30" height="20" viewBox="0 0 30 20" fill="none" xmlns="http://www.w3.org/2000/svg">
<path d="M30 0H0V20H30V0Z" fill="#D80027"/>
<path d="M21.522 5.21777H8.47852V14.7831H21.522V5.21777Z" fill="#6DA544"/>
<path d="M16.6101 12.8258C15.0494 12.8258 13.784 11.5605 13.784 9.99969C13.784 8.43889 15.0493 7.17363 16.6101 7.17363C17.0968 7.17363 17.5547 7.29667 17.9545 7.51329C17.3273 6.9 16.4696 6.52148 15.5232 6.52148C13.6022 6.52148 12.0449 8.07871 12.0449 9.99969C12.0449 11.9207 13.6022 13.4779 15.5232 13.4779C16.4697 13.4779 17.3273 13.0993 17.9545 12.4861C17.5547 12.7028 17.0969 12.8258 16.6101 12.8258Z" fill="#F0F0F0"/>
</svg>
