<svg width="30" height="20" viewBox="0 0 30 20" fill="none" xmlns="http://www.w3.org/2000/svg">
<path d="M30 0H0V20H30V0Z" fill="#0052B4"/>
<path d="M13.7023 5.84631L12.481 6.42072L13.1314 7.60357L11.8053 7.34986L11.6372 8.68958L10.7135 7.70424L9.78969 8.68958L9.6217 7.34986L8.29549 7.60357L8.94588 6.42072L7.72461 5.84631L8.94588 5.27179L8.29549 4.08905L9.62164 4.34265L9.78975 3.00293L10.7135 3.98826L11.6372 3.00293L11.8053 4.34265L13.1315 4.08905L12.4811 5.27185L13.7023 5.84631Z" fill="#F0F0F0"/>
<path d="M25.0147 0L0 19.6986V19.9191L29.517 0H25.0147Z" fill="#F0F0F0"/>
<path d="M30 0H29.517L0 19.9191V20H0.218145L30 3.02708V0Z" fill="#FF9811"/>
</svg>
