<svg width="30" height="20" viewBox="0 0 30 20" fill="none" xmlns="http://www.w3.org/2000/svg">
<path d="M30 0H0V20H30V0Z" fill="#0052B4"/>
<path d="M30 8.69539V11.304H16.3044V19.9994H13.6956V11.304H0V8.69539H13.6956V0H16.3044V8.69539H30Z" fill="#F0F0F0"/>
<path d="M22.6518 5.30629C22.6518 5.1734 22.7599 5.06524 22.8929 5.06524H23.4095C24.2261 5.06524 24.8904 4.40097 24.8904 3.58442C24.8904 2.76792 24.2261 2.10359 23.4095 2.10359H22.919C22.7588 1.98336 22.544 1.90918 22.3071 1.90918C21.8128 1.90918 21.4122 2.22974 21.4122 2.62513C21.4122 3.01671 21.8052 3.33434 22.2928 3.34049L22.2926 3.34336H23.4095C23.5425 3.34336 23.6506 3.45147 23.6506 3.58447C23.6506 3.71748 23.5425 3.82553 23.4095 3.82553H22.8929C22.0764 3.82553 21.4121 4.4898 21.4121 5.30635C21.4121 6.12285 22.0763 6.78717 22.8929 6.78717H24.8904V5.5474H22.8929C22.7599 5.54734 22.6518 5.43924 22.6518 5.30629Z" fill="#F0F0F0"/>
<path d="M6.3491 5.30629C6.3491 5.1734 6.45721 5.06524 6.59021 5.06524H7.10678C7.92334 5.06524 8.58768 4.40097 8.58768 3.58442C8.58768 2.76792 7.9234 2.10359 7.10678 2.10359H6.61623C6.45609 1.98336 6.24129 1.90918 6.00434 1.90918C5.51004 1.90918 5.10943 2.22974 5.10943 2.62513C5.10943 3.01671 5.50242 3.33434 5.99004 3.34049L5.98986 3.34336H7.10678C7.23978 3.34336 7.34789 3.45147 7.34789 3.58447C7.34789 3.71748 7.23978 3.82553 7.10678 3.82553H6.59021C5.77365 3.82553 5.10938 4.4898 5.10938 5.30635C5.10938 6.12285 5.77359 6.78717 6.59021 6.78717H8.58768V5.5474H6.59021C6.45721 5.54734 6.3491 5.43924 6.3491 5.30629Z" fill="#F0F0F0"/>
<path d="M22.6518 16.61C22.6518 16.4771 22.7599 16.369 22.8929 16.369H23.4095C24.2261 16.369 24.8904 15.7047 24.8904 14.8881C24.8904 14.0716 24.2261 13.4073 23.4095 13.4073H22.919C22.7588 13.2871 22.544 13.2129 22.3071 13.2129C21.8128 13.2129 21.4122 13.5335 21.4122 13.9288C21.4122 14.3204 21.8052 14.6381 22.2928 14.6442L22.2926 14.6471H23.4095C23.5425 14.6471 23.6506 14.7552 23.6506 14.8882C23.6506 15.0212 23.5425 15.1292 23.4095 15.1292H22.8929C22.0764 15.1292 21.4121 15.7935 21.4121 16.6101C21.4121 17.4266 22.0763 18.0909 22.8929 18.0909H24.8904V16.8511H22.8929C22.7599 16.8511 22.6518 16.743 22.6518 16.61Z" fill="#F0F0F0"/>
<path d="M6.3491 16.61C6.3491 16.4771 6.45721 16.369 6.59021 16.369H7.10678C7.92334 16.369 8.58768 15.7047 8.58768 14.8881C8.58768 14.0716 7.9234 13.4073 7.10678 13.4073H6.61623C6.45609 13.2871 6.24129 13.2129 6.00434 13.2129C5.51004 13.2129 5.10943 13.5335 5.10943 13.9288C5.10943 14.3204 5.50242 14.6381 5.99004 14.6442L5.98986 14.6471H7.10678C7.23978 14.6471 7.34789 14.7552 7.34789 14.8882C7.34789 15.0212 7.23978 15.1292 7.10678 15.1292H6.59021C5.77365 15.1292 5.10938 15.7935 5.10938 16.6101C5.10938 17.4266 5.77359 18.0909 6.59021 18.0909H8.58768V16.8511H6.59021C6.45721 16.8511 6.3491 16.743 6.3491 16.61Z" fill="#F0F0F0"/>
</svg>
