<svg width="30" height="20" viewBox="0 0 30 20" fill="none" xmlns="http://www.w3.org/2000/svg">
<path d="M30 0H0V20H30V0Z" fill="#496E2D"/>
<path d="M15 12.5104C12.3073 12.5104 10.0577 10.618 9.50584 8.09082C9.421 8.47929 9.375 8.88224 9.375 9.2962C9.375 12.4028 11.8933 14.9211 15 14.9211C18.1067 14.9211 20.625 12.4028 20.625 9.2962C20.625 8.88218 20.579 8.47929 20.4942 8.09082C19.9423 10.618 17.6927 12.5104 15 12.5104Z" fill="#FFDA44"/>
<path d="M14.9991 5.07812L15.5226 6.68955H17.217L15.8463 7.6854L16.3699 9.29689L14.9991 8.30092L13.6283 9.29689L14.152 7.6854L12.7812 6.68955H14.4755L14.9991 5.07812Z" fill="#FFDA44"/>
</svg>
