<svg width="30" height="20" viewBox="0 0 30 20" fill="none" xmlns="http://www.w3.org/2000/svg">
<path d="M30 0H0V20H30V0Z" fill="#338AF3"/>
<path d="M20.218 10.8691H9.7832V12.1735H20.218V10.8691Z" fill="#818085"/>
<path d="M11.5215 6.95574L14.9997 7.39062L18.478 6.95574V4.86883L17.0867 5.56445L14.9997 3.47754L12.9128 5.56445L11.5215 4.86883V6.95574Z" fill="#FFDA44"/>
<path d="M10.652 13.478H9.34766V11.0868L9.78248 10.4346L9.34766 9.78246V8.26074H10.652V13.478Z" fill="#F0F0F0"/>
<path d="M20.652 13.478H19.3477V8.26074H20.652V9.78241L20.2172 10.4455L20.652 11.0869V13.478Z" fill="#F0F0F0"/>
<path d="M20.6518 9.78223H9.34766V11.0866H20.6518V9.78223Z" fill="#ACABB1"/>
<path d="M14.9997 15.2168C13.0818 15.2168 11.5215 13.6565 11.5215 11.7386V6.95605H18.478V11.7386C18.478 13.6565 16.9176 15.2168 14.9997 15.2168Z" fill="#F0F0F0"/>
<path d="M15.0001 13.9128C13.8013 13.9128 12.8262 12.9376 12.8262 11.7389V8.26074H17.174V11.7389C17.1739 12.9376 16.1988 13.9128 15.0001 13.9128Z" fill="#0052B4"/>
<path d="M12.8258 6.95605H11.5215V8.2604H12.8258V6.95605Z" fill="#D80027"/>
<path d="M18.4782 6.95605H17.1738V8.2604H18.4782V6.95605Z" fill="#D80027"/>
<path d="M18.4782 9.78223H17.1738V11.0866H18.4782V9.78223Z" fill="#D80027"/>
<path d="M12.8258 9.78223H11.5215V11.0866H12.8258V9.78223Z" fill="#D80027"/>
<path d="M15.652 6.95605H14.3477V8.2604H15.652V6.95605Z" fill="#D80027"/>
<path d="M14.9998 13.9126C14.7726 13.9126 14.5536 13.8775 14.3477 13.8125V15.1548C14.5591 15.1951 14.7769 15.217 14.9998 15.217C15.2228 15.217 15.4405 15.1951 15.652 15.1548V13.8125C15.446 13.8775 15.227 13.9126 14.9998 13.9126Z" fill="#D80027"/>
<path d="M12.8554 12.0918L11.8145 13.1328C11.995 13.5437 12.2524 13.9132 12.5689 14.2229L13.4908 13.3011C13.1618 12.9832 12.9327 12.5628 12.8554 12.0918Z" fill="#D80027"/>
<path d="M18.1861 13.1328L17.1451 12.0918C17.0678 12.5628 16.8387 12.9831 16.5098 13.301L17.4316 14.2229C17.7481 13.9132 18.0055 13.5437 18.1861 13.1328Z" fill="#D80027"/>
</svg>
