<svg width="30" height="20" viewBox="0 0 30 20" fill="none" xmlns="http://www.w3.org/2000/svg">
<path d="M20 0H9.99996H0V19.9995H9.99996H20H30V0H20Z" fill="#D80027"/>
<path d="M9.99978 0H0V19.9998H9.99978V0Z" fill="#6DA544"/>
<path d="M19.9998 0H10V19.9998H19.9998V0Z" fill="#F0F0F0"/>
<path d="M12.1875 9.99998C12.1875 11.5532 13.4467 12.8124 15 12.8124C16.5533 12.8124 17.8125 11.5532 17.8125 9.99998V9.0625H12.1875V9.99998Z" fill="#6DA544"/>
<path d="M18.75 8.12498H15.9375C15.9375 7.60726 15.5177 7.1875 15 7.1875C14.4823 7.1875 14.0625 7.60726 14.0625 8.12498H11.25C11.25 8.64271 11.701 9.06246 12.2187 9.06246H12.1875C12.1875 9.58019 12.6073 9.99995 13.125 9.99995C13.125 10.5177 13.5448 10.9374 14.0625 10.9374H15.9375C16.4552 10.9374 16.875 10.5177 16.875 9.99995C17.3927 9.99995 17.8125 9.58019 17.8125 9.06246H17.7813C18.299 9.06246 18.75 8.64276 18.75 8.12498Z" fill="#FF9811"/>
</svg>
