<svg width="30" height="20" viewBox="0 0 30 20" fill="none" xmlns="http://www.w3.org/2000/svg">
<path d="M30 0H0V20H30V0Z" fill="#338AF3"/>
<path d="M15.0005 4.34766L15.4321 5.6762H16.8292L15.699 6.49744L16.1307 7.82592L15.0005 7.00485L13.8703 7.82592L14.302 6.49744L13.1719 5.6762H14.5689L15.0005 4.34766Z" fill="#F0F0F0"/>
<path d="M9.34766 9.99959L10.6762 9.56788V8.1709L11.4974 9.30104L12.826 8.86933L12.0049 9.99959L12.826 11.1296L11.4974 10.698L10.6762 11.8281V10.4312L9.34766 9.99959Z" fill="#F0F0F0"/>
<path d="M15.0006 15.6522L14.5689 14.3236H13.1719L14.302 13.5024L13.8704 12.1738L15.0006 12.995L16.1307 12.1738L15.699 13.5024L16.8292 14.3236H15.4322L15.0006 15.6522Z" fill="#F0F0F0"/>
<path d="M20.6521 9.99941L19.3236 10.4311V11.8281L18.5024 10.698L17.1738 11.1296L17.9949 9.99941L17.1738 8.86933L18.5024 9.30104L19.3236 8.1709V9.56782L20.6521 9.99941Z" fill="#F0F0F0"/>
</svg>
