<svg width="30" height="20" viewBox="0 0 30 20" fill="none" xmlns="http://www.w3.org/2000/svg">
<path d="M30 0H0V19.9994H30V0Z" fill="#FFDA44"/>
<path d="M29.9996 0H19.3477V20H29.9996V0Z" fill="#D80027"/>
<path d="M10.6519 0H0V20H10.6519V0Z" fill="#0052B4"/>
<path d="M18.4781 7.86723H16.0868C16.0868 7.26701 15.6001 6.78027 14.9998 6.78027C14.3994 6.78027 13.9128 7.26695 13.9128 7.86723H11.5215C11.5215 8.45832 12.0363 8.93744 12.6274 8.93744H12.5918C12.5918 9.52852 13.0708 10.0077 13.662 10.0077C13.662 10.531 14.0378 10.9659 14.5342 11.0588L13.6909 12.9628C14.0949 13.1271 14.5366 13.2184 14.9997 13.2184C15.4629 13.2184 15.9045 13.1271 16.3086 12.9628L15.4653 11.0588C15.9617 10.9659 16.3375 10.531 16.3375 10.0077C16.9287 10.0077 17.4078 9.52847 17.4078 8.93744H17.3721C17.9633 8.93738 18.4781 8.4582 18.4781 7.86723Z" fill="#FF9811"/>
<path d="M15.0009 9.34766L13.5879 9.9998V11.3041L15.0009 12.1737L16.414 11.3041V9.9998L15.0009 9.34766Z" fill="#0052B4"/>
<path d="M16.4118 8.69531H13.5859V9.99965H16.4118V8.69531Z" fill="#D80027"/>
</svg>
