<svg width="30" height="20" viewBox="0 0 30 20" fill="none" xmlns="http://www.w3.org/2000/svg">
<path d="M30 0H0V19.9994H30V0Z" fill="#0052B4"/>
<path d="M29.9996 0H19.3477V20H29.9996V0Z" fill="#A2001D"/>
<path d="M10.6519 0H0V20H10.6519V0Z" fill="#A2001D"/>
<path d="M7.50039 10.6523H6.63086V14.1304H7.50039V10.6523Z" fill="#FFDA44"/>
<path d="M4.02188 10.6523H3.15234V14.1304H4.02188V10.6523Z" fill="#FFDA44"/>
<path d="M5.32656 12.826C5.80679 12.826 6.19609 12.4367 6.19609 11.9564C6.19609 11.4762 5.80679 11.0869 5.32656 11.0869C4.84633 11.0869 4.45703 11.4762 4.45703 11.9564C4.45703 12.4367 4.84633 12.826 5.32656 12.826Z" fill="#FFDA44"/>
<path d="M5.32643 9.34718C5.56657 9.34718 5.76125 9.1525 5.76125 8.91236C5.76125 8.67221 5.56657 8.47754 5.32643 8.47754C5.08628 8.47754 4.8916 8.67221 4.8916 8.91236C4.8916 9.1525 5.08628 9.34718 5.32643 9.34718Z" fill="#FFDA44"/>
<path d="M6.19523 13.2607H4.45605V14.1303H6.19523V13.2607Z" fill="#FFDA44"/>
<path d="M6.19523 9.78223H4.45605V10.6517H6.19523V9.78223Z" fill="#FFDA44"/>
<path d="M5.32584 5.86914L5.63375 6.81677H6.6302L5.82412 7.40246L6.13186 8.35009L5.32584 7.76439L4.51982 8.35009L4.8275 7.40246L4.02148 6.81677H5.01787L5.32584 5.86914Z" fill="#FFDA44"/>
</svg>
