<svg width="30" height="20" viewBox="0 0 30 20" fill="none" xmlns="http://www.w3.org/2000/svg">
<path d="M30 0H0V20H30V0Z" fill="#FFDA44"/>
<path d="M30 1.73828H0V18.2608H30V1.73828Z" fill="#A2001D"/>
<path d="M12.8262 7.39093H17.1739V5.65178L16.3044 6.08655L15.0001 4.78223L13.6957 6.08655L12.8262 5.65178V7.39093Z" fill="#FFDA44"/>
<path d="M18.9129 10.0001H16.7398C16.8251 9.85269 16.8746 9.68206 16.8746 9.49948C16.8746 8.94528 16.4253 8.49609 15.8712 8.49609C15.4884 8.49609 15.1558 8.71061 14.9867 9.02585C14.8175 8.71061 14.485 8.49609 14.1021 8.49609C13.5481 8.49609 13.0988 8.94528 13.0988 9.49948C13.0988 9.68194 13.1484 9.85257 13.2336 10.0001H11.0869C11.0869 10.665 11.6661 11.2041 12.331 11.2041H12.2908C12.2908 11.7496 12.6537 12.2101 13.151 12.3581L12.1738 13.3353L13.0961 14.2577L14.4044 12.9493C14.4557 12.9681 14.5087 12.9831 14.5635 12.9934L13.7729 14.7784C14.1518 14.9325 14.5657 15.018 14.9999 15.018C15.4341 15.018 15.8481 14.9324 16.2269 14.7784L15.4364 12.9934C15.4912 12.9831 15.5441 12.9681 15.5954 12.9493L16.9038 14.2577L17.8261 13.3353L16.8488 12.3581C17.3462 12.2101 17.709 11.7496 17.709 11.2041H17.6689C18.3337 11.2041 18.9129 10.665 18.9129 10.0001Z" fill="#FFDA44"/>
<path d="M15 10.6523L13.5869 11.3046V12.6089L15 13.4785L16.413 12.6089V11.3046L15 10.6523Z" fill="#6DA544"/>
<path d="M16.4128 10H13.5869V11.7392H16.4128V10Z" fill="#0052B4"/>
</svg>
