<svg width="30" height="20" viewBox="0 0 30 20" fill="none" xmlns="http://www.w3.org/2000/svg">
<path d="M30 0H0V19.9998H30V0Z" fill="#0052B4"/>
<path d="M19.584 6.25V10.8332C19.584 13.0657 22.5006 13.7499 22.5006 13.7499C22.5006 13.7499 25.4173 13.0658 25.4173 10.8332V6.25H19.584Z" fill="#338AF3"/>
<path d="M19.584 10.833C19.584 13.0656 22.5006 13.7497 22.5006 13.7497C22.5006 13.7497 25.4173 13.0656 25.4173 10.833H19.584Z" fill="#A2001D"/>
<path d="M23.7501 8.33336H22.9166V7.5H22.0833V8.33336H21.25V9.16673H22.0833V11.6666H22.9166V9.16673H23.7501V8.33336Z" fill="black"/>
<path d="M15 0V1.79018L12.3535 3.2608H15V6.73879H11.5369L15 8.66268V9.99959H13.4367L9.13043 7.60749V9.99959H5.86957V7.15357L0.746719 9.99959H0V8.20935L2.6465 6.73879H0V3.2608H3.46307L0 1.33626V0H1.56328L5.86957 2.39204V0H9.13043V2.84596L14.2533 0H15Z" fill="#F0F0F0"/>
<path d="M8.4375 0H6.5625V4.06234H0V5.93731H6.5625V9.99977H8.4375V5.93731H15V4.06234H8.4375V0Z" fill="#D80027"/>
<path d="M9.13086 6.73926L15.0004 10.0001V9.07798L10.7906 6.73926H9.13086Z" fill="#0052B4"/>
<path d="M9.13086 6.73926L15.0004 10.0001V9.07798L10.7906 6.73926H9.13086Z" fill="#F0F0F0"/>
<path d="M9.13086 6.73926L15.0004 10.0001V9.07798L10.7906 6.73926H9.13086Z" fill="#D80027"/>
<path d="M4.20973 6.73926L0 9.07798V10.0001L5.86957 6.73926H4.20973Z" fill="#D80027"/>
<path d="M5.86957 3.2608L0 0V0.922072L4.20979 3.2608H5.86957Z" fill="#0052B4"/>
<path d="M5.86957 3.2608L0 0V0.922072L4.20979 3.2608H5.86957Z" fill="#F0F0F0"/>
<path d="M5.86957 3.2608L0 0V0.922072L4.20979 3.2608H5.86957Z" fill="#D80027"/>
<path d="M10.7907 3.2608L15.0004 0.922072V0L9.13086 3.2608H10.7907Z" fill="#D80027"/>
</svg>
