<svg width="30" height="20" viewBox="0 0 30 20" fill="none" xmlns="http://www.w3.org/2000/svg">
<path d="M0 0V10V20H30V10V0H0Z" fill="#D80027"/>
<path d="M20.625 8.27166H16.3301L15 4.18262L13.6699 8.2658H9.375L12.8496 10.7907L11.5195 14.8739L14.9941 12.349L18.4688 14.8739L17.1387 10.7907L20.625 8.27166ZM13.8223 10.4802L14.2734 9.09767H15.7266L16.1777 10.4802L15 11.3355L13.8223 10.4802ZM15.457 8.27166H14.543L15 6.86569L15.457 8.27166ZM16.8809 9.97055L16.5996 9.09767H18.082L16.8809 9.97055ZM13.4004 9.09767L13.1191 9.97055L11.9238 9.09767H13.4004ZM13.0957 12.7181L13.5527 11.3121L14.291 11.851L13.0957 12.7181ZM15.7031 11.8452L16.4414 11.3062L16.8984 12.7122L15.7031 11.8452Z" fill="#6DA544"/>
</svg>
