<svg width="30" height="20" viewBox="0 0 30 20" fill="none" xmlns="http://www.w3.org/2000/svg">
<path d="M30 0H0V19.9994H30V0Z" fill="#F0F0F0"/>
<path d="M30 13.9131H0V19.9997H30V13.9131Z" fill="#FFDA44"/>
<path d="M30 0H0V6.12386H30V0Z" fill="#496E2D"/>
<path d="M30 7.35645H0V12.6097H30V7.35645Z" fill="black"/>
<path d="M15 10.0004L0 20V0L15 10.0004Z" fill="#A2001D"/>
<path d="M4.89057 6.43359L5.77574 9.15806H8.64062L6.32301 10.842L7.20818 13.5665L4.89057 11.8826L2.57289 13.5665L3.45824 10.842L1.14062 9.15806H4.00539L4.89057 6.43359Z" fill="#FFDA44"/>
<path d="M7.48164 10H2.30078V12.3776H7.48164V10Z" fill="#F0F0F0"/>
<path d="M8.46264 7.27423L7.62199 6.43359L4.89047 9.16509L2.159 6.43359L1.31836 7.27423L4.05223 10.0033L1.31836 12.7372L2.159 13.5665L4.89047 10.8399L7.62199 13.5665L8.46264 12.7372L5.72871 10.0033L8.46264 7.27423Z" fill="black"/>
</svg>
