<svg width="30" height="20" viewBox="0 0 30 20" fill="none" xmlns="http://www.w3.org/2000/svg">
<path d="M30 0H0V20H30V0Z" fill="#496E2D"/>
<path d="M0 20V0H30" fill="#0052B4"/>
<path d="M30 3.91913V0H24.1213L0 16.0809V20H5.87871L30 3.91913Z" fill="#F0F0F0"/>
<path d="M30 0V2.35112L3.52693 20H0V17.6489L26.4731 0H30Z" fill="#A2001D"/>
<path d="M11.0002 6.08645L9.66775 6.71319L10.3773 8.00368L8.93047 7.72688L8.74713 9.18853L7.73938 8.11349L6.73156 9.18853L6.54822 7.72688L5.10137 8.00362L5.81088 6.71319L4.47852 6.08645L5.81094 5.45966L5.10137 4.16928L6.54822 4.44597L6.73162 2.98438L7.73938 4.05942L8.74719 2.98438L8.93047 4.44597L10.3773 4.16928L9.66787 5.45978L11.0002 6.08645Z" fill="#FFDA44"/>
</svg>
