<svg width="30" height="20" viewBox="0 0 30 20" fill="none" xmlns="http://www.w3.org/2000/svg">
<path d="M30 0H0V20H30V0Z" fill="#F0F0F0"/>
<path d="M0 20V0L16.4308 10.2395H5.1334L15.8898 20H0Z" fill="#0052B4"/>
<path d="M14.342 9.64147L0.597656 1.07617V9.64147V19.402H14.342L3.58559 9.64147H14.342Z" fill="#D80027"/>
<path d="M5.74301 14.0099L4.88818 13.6077L5.34346 12.7798L4.4151 12.9573L4.29744 12.0195L3.65086 12.7093L3.00422 12.0195L2.88656 12.9573L1.95826 12.7797L2.41354 13.6077L1.55859 14.0099L2.41354 14.412L1.95826 15.2399L2.88662 15.0624L3.00422 16.0002L3.65086 15.3104L4.29744 16.0002L4.4151 15.0624L5.3434 15.24L4.88818 14.412L5.74301 14.0099Z" fill="#F0F0F0"/>
<path d="M5.17244 6.22982L4.55064 5.93737L4.88176 5.33513L4.20658 5.46433L4.12098 4.78223L3.6507 5.28386L3.18043 4.78223L3.09488 5.46433L2.41959 5.33513L2.75076 5.93737L2.12891 6.22982L3.6507 6.53416L5.17244 6.22982Z" fill="#F0F0F0"/>
<path d="M5.47637 6.23047C5.47637 7.23901 4.65881 8.05658 3.65029 8.05658C2.64178 8.05658 1.82422 7.23901 1.82422 6.23047" fill="#F0F0F0"/>
</svg>
