<svg width="30" height="20" viewBox="0 0 30 20" fill="none" xmlns="http://www.w3.org/2000/svg">
<path d="M30 0H0V19.9997H30V0Z" fill="#0052B4"/>
<path d="M24.9191 8.69629L25.1176 9.30729H25.76L25.2403 9.68486L25.4388 10.2958L24.9191 9.91823L24.3993 10.2958L24.5979 9.68486L24.0781 9.30729H24.7205L24.9191 8.69629Z" fill="#D80027"/>
<path d="M22.6227 13.0947L22.9205 14.0112H23.8841L23.1045 14.5776L23.4023 15.494L22.6227 14.9276L21.8431 15.494L22.1409 14.5776L21.3613 14.0112H22.3249L22.6227 13.0947Z" fill="#D80027"/>
<path d="M22.7094 5.89648L22.9576 6.66029H23.7605L23.1109 7.1322L23.359 7.89589L22.7094 7.42387L22.0597 7.89589L22.3078 7.1322L21.6582 6.66029H22.4612L22.7094 5.89648Z" fill="#D80027"/>
<path d="M20.4997 8.66895L20.7975 9.58539H21.7611L20.9814 10.1517L21.2793 11.0682L20.4997 10.5018L19.7201 11.0682L20.0179 10.1517L19.2383 9.58539H20.2019L20.4997 8.66895Z" fill="#D80027"/>
<path d="M15 0V1.79081L12.3529 3.26078H15V6.73876H11.5363L15 8.66328V9.99953H13.4361L9.13043 7.60745V9.99953H5.86957V7.15353L0.746777 9.99953H0V8.20936L2.64656 6.73876H0V3.26078H3.46307L0 1.33696V0H1.56328L5.86957 2.39279V0H9.13043V2.846L14.2533 0H15Z" fill="#F0F0F0"/>
<path d="M8.4375 0H6.5625V4.06244H0V5.93739H6.5625V9.99983H8.4375V5.93739H15V4.06244H8.4375V0Z" fill="#D80027"/>
<path d="M9.13086 6.73926L15.0004 10.0002V9.07797L10.7906 6.73926H9.13086Z" fill="#0052B4"/>
<path d="M9.13086 6.73926L15.0004 10.0002V9.07797L10.7906 6.73926H9.13086Z" fill="#F0F0F0"/>
<path d="M9.13086 6.73926L15.0004 10.0002V9.07797L10.7906 6.73926H9.13086Z" fill="#D80027"/>
<path d="M4.20973 6.73926L0 9.07797V10.0002L5.86957 6.73926H4.20973Z" fill="#D80027"/>
<path d="M5.86957 3.26084L0 0V0.922125L4.20979 3.26084H5.86957Z" fill="#0052B4"/>
<path d="M5.86957 3.26084L0 0V0.922125L4.20979 3.26084H5.86957Z" fill="#F0F0F0"/>
<path d="M5.86957 3.26084L0 0V0.922125L4.20979 3.26084H5.86957Z" fill="#D80027"/>
<path d="M10.7907 3.26084L15.0004 0.922125V0L9.13086 3.26084H10.7907Z" fill="#D80027"/>
</svg>
