<svg width="30" height="20" viewBox="0 0 30 20" fill="none" xmlns="http://www.w3.org/2000/svg">
<path d="M30 0H0V20H30V0Z" fill="#F0F0F0"/>
<path d="M30 0H0V6.66665H30V0Z" fill="#338AF3"/>
<path d="M30 13.333H0V19.9997H30V13.333Z" fill="#338AF3"/>
<path d="M14.9992 7.56543C13.6545 7.56543 12.5645 8.65547 12.5645 10.0002C12.5645 11.345 13.6545 12.435 14.9992 12.435C16.3439 12.435 17.4339 11.345 17.4339 10.0002C17.4339 8.65547 16.3439 7.56543 14.9992 7.56543ZM14.9992 11.3916C14.2308 11.3916 13.6079 10.7686 13.6079 10.0002C13.6079 9.23181 14.2308 8.60889 14.9992 8.60889C15.7676 8.60889 16.3905 9.23181 16.3905 10.0002C16.3905 10.7686 15.7676 11.3916 14.9992 11.3916Z" fill="#FFDA44"/>
<path d="M16.204 10.3478L14.9991 10L13.7942 10.3478L13.3926 11.0435H16.6056L16.204 10.3478Z" fill="#0052B4"/>
<path d="M15.0005 8.26074L14.1973 9.65202L15.0005 9.99984L15.8038 9.65202L15.0005 8.26074Z" fill="#338AF3"/>
<path d="M13.7949 10.348H16.2046L15.803 9.65234H14.1965L13.7949 10.348Z" fill="#6DA544"/>
</svg>
