<svg width="30" height="20" viewBox="0 0 30 20" fill="none" xmlns="http://www.w3.org/2000/svg">
<path d="M30 0H0V19.9997H30V0Z" fill="#FFDA44"/>
<path d="M15 0H0V9.99953H15V0Z" fill="#F0F0F0"/>
<path d="M8.4375 0H6.5625V4.06238H0V5.93733H6.5625V9.99977H8.4375V5.93733H15V4.06238H8.4375V0Z" fill="#D80027"/>
<path d="M0 0V0.883747L3.36193 3.12496H4.6875L0 0Z" fill="#D80027"/>
<path d="M0 1.3252V3.12468H2.69936L0 1.3252Z" fill="#2E52B2"/>
<path d="M5.62531 0V2.86592L1.32617 0H5.62531Z" fill="#2E52B2"/>
<path d="M15 0V0.883747L11.6381 3.12496H10.3125L15 0Z" fill="#D80027"/>
<path d="M15.0001 1.3252V3.12468H12.3008L15.0001 1.3252Z" fill="#2E52B2"/>
<path d="M9.375 0V2.86592L13.6741 0H9.375Z" fill="#2E52B2"/>
<path d="M0 0V0.883747L3.36193 3.12496H4.6875L0 0Z" fill="#D80027"/>
<path d="M0 1.3252V3.12468H2.69936L0 1.3252Z" fill="#2E52B2"/>
<path d="M5.62531 0V2.86592L1.32617 0H5.62531Z" fill="#2E52B2"/>
<path d="M15 0V0.883747L11.6381 3.12496H10.3125L15 0Z" fill="#D80027"/>
<path d="M15.0001 1.3252V3.12468H12.3008L15.0001 1.3252Z" fill="#2E52B2"/>
<path d="M9.375 0V2.86592L13.6741 0H9.375Z" fill="#2E52B2"/>
<path d="M0 9.99996V9.11627L3.36193 6.875H4.6875L0 9.99996Z" fill="#D80027"/>
<path d="M0 8.67455V6.875H2.69936L0 8.67455Z" fill="#2E52B2"/>
<path d="M5.62531 9.99965V7.13379L1.32617 9.99965H5.62531Z" fill="#2E52B2"/>
<path d="M15 9.99996V9.11627L11.6381 6.875H10.3125L15 9.99996Z" fill="#D80027"/>
<path d="M15.0001 8.67455V6.875H12.3008L15.0001 8.67455Z" fill="#2E52B2"/>
<path d="M9.375 9.99965V7.13379L13.6741 9.99965H9.375Z" fill="#2E52B2"/>
<path d="M7.49963 6.32536C8.23185 6.32536 8.82543 5.7318 8.82543 4.9996C8.82543 4.26739 8.23185 3.67383 7.49963 3.67383C6.76741 3.67383 6.17383 4.26739 6.17383 4.9996C6.17383 5.7318 6.76741 6.32536 7.49963 6.32536Z" fill="#2E52B2"/>
<path d="M7.49945 4.0625L7.73207 4.77861H8.48523L7.87598 5.22134L8.10865 5.93745L7.49945 5.49485L6.8902 5.93745L7.12293 5.22134L6.51367 4.77861H7.26678L7.49945 4.0625Z" fill="#FFDA44"/>
<path d="M7.49904 7.87891L7.63756 8.30534H8.08598L7.72328 8.56889L7.8618 8.99532L7.49904 8.73178L7.13629 8.99532L7.2748 8.56889L6.91211 8.30534H7.36047L7.49904 7.87891Z" fill="#FFDA44"/>
<path d="M7.49904 1.00391L7.63756 1.43034H8.08598L7.72328 1.69389L7.8618 2.12032L7.49904 1.85678L7.13629 2.12032L7.2748 1.69389L6.91211 1.43034H7.36047L7.49904 1.00391Z" fill="#FFDA44"/>
<path d="M11.5967 4.44141L11.7353 4.86778H12.1837L11.8209 5.13139L11.9595 5.55788L11.5967 5.29433L11.2339 5.55788L11.3725 5.13139L11.0098 4.86778H11.4581L11.5967 4.44141Z" fill="#FFDA44"/>
<path d="M3.4034 4.44141L3.54191 4.86778H3.99033L3.62758 5.13139L3.76609 5.55788L3.4034 5.29433L3.04064 5.55788L3.17922 5.13139L2.81641 4.86778H3.26482L3.4034 4.44141Z" fill="#FFDA44"/>
</svg>
