<svg width="30" height="20" viewBox="0 0 30 20" fill="none" xmlns="http://www.w3.org/2000/svg">
<path d="M30 0H0V20H30V0Z" fill="#338AF3"/>
<path d="M14.7342 15.3947C14.5054 15.3836 14.3161 15.2349 14.2419 15.033C14.1109 15.2038 13.8858 15.2899 13.664 15.2327C13.4418 15.1755 13.2865 14.9916 13.2543 14.7784C13.0912 14.9193 12.8534 14.9577 12.6479 14.857C12.4419 14.7558 12.3268 14.5443 12.3386 14.3292C12.1508 14.4347 11.9101 14.4244 11.7289 14.2842C11.5481 14.1439 11.4775 13.914 11.5322 13.7055C11.327 13.7712 11.0938 13.7129 10.9443 13.539C10.7948 13.3655 10.7719 13.126 10.8671 12.9331C10.6531 12.9559 10.436 12.8519 10.3246 12.6519C10.2127 12.4518 10.2386 12.2123 10.3711 12.0422C10.1567 12.0215 9.96483 11.8757 9.89616 11.6573C9.82714 11.4388 9.90097 11.2092 10.0652 11.0693C9.85925 11.0058 9.70128 10.8242 9.67808 10.5965C9.65481 10.3687 9.77288 10.1596 9.96149 10.0554C9.77288 9.95214 9.65405 9.74284 9.67655 9.5155C9.67655 9.5155 9.67655 9.5155 9.6769 9.5155C9.6994 9.28746 9.85737 9.10547 10.0629 9.04125C9.89868 8.90174 9.82415 8.67252 9.89241 8.45403C9.96067 8.23518 10.1522 8.08899 10.3667 8.06761C10.2341 7.89786 10.2076 7.65833 10.3187 7.45789C10.4298 7.25785 10.6468 7.15338 10.8612 7.17594C10.7653 6.98287 10.7878 6.7434 10.9368 6.56915C11.0856 6.39536 11.3188 6.33665 11.5244 6.40163C11.469 6.1935 11.5391 5.96318 11.7199 5.82255C11.9004 5.68193 12.1411 5.67121 12.3289 5.77603C12.3167 5.56088 12.4315 5.34935 12.637 5.24793C12.8422 5.1468 13.0803 5.18447 13.2437 5.32539C13.2751 5.11205 13.4305 4.92754 13.6523 4.87C13.8737 4.81241 14.0989 4.89766 14.2303 5.06822C14.3045 4.86637 14.4934 4.71725 14.7223 4.70583C14.9508 4.69405 15.1537 4.82243 15.2482 5.01549C15.3612 4.83245 15.5759 4.72393 15.8022 4.75827C16.0288 4.79225 16.2026 4.95901 16.2565 5.16754C16.4041 5.01028 16.6366 4.94793 16.8514 5.02692C17.0665 5.10631 17.2031 5.30482 17.2135 5.52033C17.3895 5.39635 17.6301 5.38193 17.8246 5.50299C18.0191 5.62363 18.1125 5.84552 18.0792 6.05845C18.2767 5.97243 18.5151 6.00677 18.6812 6.16403C18.8473 6.32159 18.8945 6.55749 18.8192 6.75934C19.0299 6.71469 19.2566 6.79584 19.3879 6.98375C19.5194 7.17125 19.5183 7.41183 19.4042 7.59458C19.6193 7.59306 19.8249 7.71863 19.916 7.92856C20.0068 8.13897 19.957 8.37475 19.8083 8.5309C20.0198 8.57297 20.1958 8.73721 20.2423 8.96162C20.2884 9.18603 20.1921 9.40634 20.0153 9.52927C20.2132 9.61306 20.3526 9.80905 20.353 10.0379C20.353 10.0404 20.353 10.0427 20.353 10.0452C20.353 10.0468 20.353 10.0486 20.353 10.05C20.353 10.2789 20.2142 10.4752 20.0164 10.5597C20.1935 10.6819 20.2906 10.9022 20.2445 11.1266C20.1987 11.351 20.023 11.5156 19.8116 11.5583C19.9606 11.7141 20.0113 11.9495 19.9208 12.1603C19.8303 12.3707 19.6248 12.4965 19.4092 12.4954C19.5236 12.6781 19.5255 12.9187 19.3944 13.1065C19.2634 13.2944 19.0372 13.3763 18.8265 13.332C18.9021 13.5335 18.8553 13.7698 18.6896 13.9277C18.5235 14.0854 18.2854 14.12 18.088 14.0347C18.1216 14.2474 18.0286 14.4696 17.8344 14.5909C17.6403 14.7123 17.3997 14.6982 17.2233 14.5747C17.2133 14.7902 17.0775 14.9891 16.8627 15.0688C16.8627 15.0688 16.8627 15.0688 16.8623 15.0688C16.6475 15.1482 16.415 15.0862 16.267 14.9293C16.2139 15.1382 16.0404 15.3054 15.8138 15.3401C15.5875 15.3743 15.3724 15.2667 15.2591 15.0835C15.1691 15.2692 14.9786 15.3954 14.7617 15.3954C14.7527 15.3954 14.7435 15.3951 14.7342 15.3947Z" fill="#F3F3F3"/>
<path d="M15.0022 13.7396C17.0405 13.7396 18.6928 12.0873 18.6928 10.049C18.6928 8.01074 17.0405 6.3584 15.0022 6.3584C12.9639 6.3584 11.3115 8.01074 11.3115 10.049C11.3115 12.0873 12.9639 13.7396 15.0022 13.7396Z" fill="#338AF3"/>
<path d="M15.8104 8.79641C15.9917 8.66194 16.1098 8.44696 16.1098 8.20386V7.83478C16.1098 7.42709 15.7793 7.09668 15.3717 7.09668H14.6336C14.2259 7.09668 13.8954 7.42714 13.8954 7.83478V8.20386C13.8954 8.44696 14.0135 8.66194 14.1948 8.79641L13.5264 15.5851C13.5264 15.5851 13.8954 15.9543 15.0026 15.9543C16.1098 15.9543 16.4789 15.5851 16.4789 15.5851L15.8104 8.79641Z" fill="#BDBCC1"/>
<path d="M15.0015 7.09668L15.6428 9.07021H17.718L16.0392 10.29L16.6804 12.2636L15.0015 11.0439L13.3227 12.2636L13.964 10.29L12.2852 9.07021H14.3603L15.0015 7.09668Z" fill="#F0F0F0"/>
</svg>
