<svg width="30" height="20" viewBox="0 0 30 20" fill="none" xmlns="http://www.w3.org/2000/svg">
<path d="M30 0H0V20H30V0Z" fill="#F0F0F0"/>
<path d="M13.7203 7.9541L14.5408 9.08471L15.8695 8.65382L15.0478 9.7835L15.8682 10.9142L14.5398 10.4816L13.7181 11.6113L13.7189 10.2144L12.3906 9.78191L13.7194 9.35102L13.7203 7.9541Z" fill="#D80027"/>
<path d="M11.4812 12.608C9.92047 12.608 8.65514 11.3427 8.65514 9.78192C8.65514 8.22111 9.92041 6.95585 11.4812 6.95585C11.9679 6.95585 12.4258 7.0789 12.8255 7.29552C12.1984 6.68222 11.3407 6.30371 10.3943 6.30371C8.47326 6.30371 6.91602 7.86094 6.91602 9.78192C6.91602 11.7029 8.47326 13.2601 10.3943 13.2601C11.3407 13.2601 12.1984 12.8816 12.8255 12.2683C12.4258 12.4849 11.9679 12.608 11.4812 12.608Z" fill="#D80027"/>
<path d="M30 3.26074H0V4.56508H30V3.26074Z" fill="#D80027"/>
<path d="M30 15H0V16.3043H30V15Z" fill="#D80027"/>
</svg>
