<svg width="30" height="20" viewBox="0 0 30 20" fill="none" xmlns="http://www.w3.org/2000/svg">
<path d="M30 0H0V20H30V0Z" fill="#91DC5A"/>
<path d="M30 0H0V20H30V0Z" fill="#F0F0F0"/>
<path d="M30 0H0V3.35082H30V0Z" fill="#0052B4"/>
<path d="M30 16.6494H0V19.9996H30V16.6494Z" fill="#0052B4"/>
<path d="M30 4.68066H0V15.3201H30V4.68066Z" fill="#D80027"/>
<path d="M11.1524 13.8477C13.2775 13.8477 15.0002 12.1251 15.0002 10C15.0002 7.87501 13.2775 6.15234 11.1524 6.15234C9.02738 6.15234 7.30469 7.87501 7.30469 10C7.30469 12.1251 9.02738 13.8477 11.1524 13.8477Z" fill="#F0F0F0"/>
<path d="M11.1518 6.15234L12.0151 8.80931H14.8134L12.5487 10.4516L13.4188 13.1164L11.1518 11.4664L8.88824 13.1133L9.75484 10.4516L7.49219 8.80931H10.2884L11.1518 6.15234Z" fill="#D80027"/>
</svg>
