<svg width="30" height="20" viewBox="0 0 30 20" fill="none" xmlns="http://www.w3.org/2000/svg">
<path d="M23.0581 4.99121L24.0842 6.09715L25.4531 5.46312L24.7183 6.7807L25.7444 7.8867L24.2642 7.59502L23.5295 8.91266L23.3494 7.41479L21.8691 7.12312L23.2381 6.48914L23.0581 4.99121Z" fill="#F0F0F0"/>
<path d="M30 0.000976562H0V20.0003H30V0.000976562Z" fill="#F0F0F0"/>
<path d="M30 0H7.5V19.9999H30V0Z" fill="#496E2D"/>
<path d="M21.2046 12.507C19.3861 13.821 16.8465 13.412 15.5325 11.5934C14.2184 9.77483 14.6275 7.23536 16.4462 5.92141C17.0132 5.51173 17.6503 5.26956 18.2985 5.18531C17.0514 4.9988 15.7334 5.27982 14.6306 6.07656C12.3924 7.69385 11.8889 10.8193 13.5062 13.0576C15.1234 15.2958 18.249 15.7993 20.4873 14.182C21.5901 13.3852 22.2707 12.2221 22.4851 10.9796C22.2016 11.5684 21.7717 12.0973 21.2046 12.507Z" fill="#F0F0F0"/>
<path d="M21.1282 5.12988L22.1527 6.23389L23.5192 5.60097L22.7857 6.91621L23.8101 8.02033L22.3324 7.72924L21.5988 9.04465L21.4191 7.5493L19.9414 7.25815L21.308 6.62523L21.1282 5.12988Z" fill="#F0F0F0"/>
</svg>
