<svg width="30" height="20" viewBox="0 0 30 20" fill="none" xmlns="http://www.w3.org/2000/svg">
<path d="M30 0H0V20H30V0Z" fill="#F0F0F0"/>
<path d="M15 10C15 10 15 14.9984 15 20H0V10H5.00021C9.78129 10 15 10 15 10Z" fill="#0052B4"/>
<path d="M30 0V10H24.9998C19.6983 10 15 10 15 10C15 10 15 4.70752 15 0H30Z" fill="#D80027"/>
<path d="M7.49924 2.20898L8.19205 4.3412H10.434L8.62025 5.65906L9.31301 7.79127L7.49924 6.47347L5.68547 7.79127L6.37822 5.65906L4.56445 4.3412H6.80643L7.49924 2.20898Z" fill="#0052B4"/>
<path d="M22.4992 12.209L23.1921 14.3412H25.434L23.6203 15.6591L24.313 17.7913L22.4992 16.4735L20.6855 17.7913L21.3782 15.6591L19.5645 14.3412H21.8064L22.4992 12.209Z" fill="#D80027"/>
</svg>
