<svg width="30" height="20" viewBox="0 0 30 20" fill="none" xmlns="http://www.w3.org/2000/svg">
<path d="M30 0H0V19.9998H30V0Z" fill="black"/>
<path d="M0 0H30V19.9995" fill="#A2001D"/>
<path d="M11.9905 14.1299L12.1523 14.6282H12.6762L12.2524 14.9361L12.4143 15.4342L11.9905 15.1264L11.5667 15.4342L11.7285 14.9361L11.3047 14.6282H11.8285L11.9905 14.1299Z" fill="#F0F0F0"/>
<path d="M10.6526 9.34766L10.9225 10.178H11.7956L11.0892 10.6911L11.359 11.5215L10.6526 11.0083L9.94629 11.5215L10.2162 10.6911L9.50977 10.178H10.3829L10.6526 9.34766Z" fill="#F0F0F0"/>
<path d="M10.6526 15.4346L10.9224 16.265H11.7956L11.0891 16.7781L11.359 17.6085L10.6526 17.0953L9.94629 17.6085L10.2161 16.7781L9.50977 16.265H10.3828L10.6526 15.4346Z" fill="#F0F0F0"/>
<path d="M13.2053 11.5215L13.4752 12.3519H14.3483L13.6419 12.865L13.9117 13.6954L13.2053 13.1822L12.499 13.6954L12.7689 12.865L12.0625 12.3519H12.9356L13.2053 11.5215Z" fill="#F0F0F0"/>
<path d="M8.0999 11.5215L8.36979 12.3519H9.24277L8.53648 12.865L8.80619 13.6954L8.0999 13.1822L7.39355 13.6954L7.66338 12.865L6.95703 12.3519H7.83008L8.0999 11.5215Z" fill="#F0F0F0"/>
<path d="M22.0618 6.96273C21.6148 6.51578 21.0342 6.25182 20.4101 6.20641L22.2781 4.75361C21.534 4.0096 20.537 3.67369 19.5641 3.74476C19.4476 3.32612 19.2255 2.93079 18.8963 2.60156L18.1585 4.07728C18.1101 3.98904 18.0488 3.90601 17.974 3.83136C17.5495 3.40686 16.8613 3.40692 16.4369 3.83136C16.0125 4.25581 16.0123 4.94404 16.4369 5.36848C16.5116 5.44324 16.5946 5.50453 16.6828 5.55293L15.207 6.29079C15.5363 6.62008 15.9319 6.84226 16.3507 6.95868C16.2794 7.93167 16.615 8.92851 17.3591 9.67252L18.9911 7.57426C19.1139 7.45332 19.276 7.38664 19.4486 7.38664C19.6228 7.38664 19.7865 7.45449 19.9097 7.57766C20.0329 7.70088 20.1007 7.86458 20.1007 8.03878C20.1007 8.21303 20.0329 8.37674 19.9097 8.4999L20.5246 9.11477C20.812 8.82738 20.9703 8.44518 20.9703 8.03878C20.9703 7.70627 20.8643 7.3901 20.6684 7.1286C20.9538 7.20477 21.2235 7.35413 21.447 7.57754C22.1251 8.25557 22.1251 9.35893 21.447 10.037L22.0619 10.6518C22.5546 10.1591 22.8259 9.504 22.8259 8.80728C22.8258 8.1105 22.5545 7.45543 22.0618 6.96273Z" fill="#FFDA44"/>
</svg>
