<svg width="30" height="20" viewBox="0 0 30 20" fill="none" xmlns="http://www.w3.org/2000/svg">
<path d="M30 0H0V20H30V0Z" fill="#F0F0F0"/>
<path d="M30 0H0V6.66665H30V0Z" fill="#D80027"/>
<path d="M30 13.333H0V19.9997H30V13.333Z" fill="#0052B4"/>
<path d="M16.9669 7.69922L16.2291 8.43705C16.5437 8.75182 16.7384 9.18659 16.7384 9.66684C16.7384 10.6273 15.9598 11.4059 14.9994 11.4059C14.0389 11.4059 13.2603 10.6273 13.2603 9.66684C13.2603 9.18665 13.4549 8.75182 13.7696 8.43705L13.0318 7.69922C12.5283 8.20278 12.2168 8.89842 12.2168 9.66678C12.2168 11.2036 13.4626 12.4494 14.9994 12.4494C16.5362 12.4494 17.7819 11.2036 17.7819 9.66678C17.7819 8.89848 17.4704 8.20278 16.9669 7.69922Z" fill="#6DA544"/>
<path d="M14.9995 8.62402L15.2586 9.42121H16.0967L15.4186 9.91388L15.6776 10.711L14.9995 10.2183L14.3214 10.711L14.5804 9.91388L13.9023 9.42121H14.7405L14.9995 8.62402Z" fill="#FFDA44"/>
</svg>
