<svg width="30" height="20" viewBox="0 0 30 20" fill="none" xmlns="http://www.w3.org/2000/svg">
<path d="M30 0H0V20H30V0Z" fill="#F0F0F0"/>
<path d="M30 0V10H15L0 0H30Z" fill="#0052B4"/>
<path d="M30 10V20H0L15 10H30Z" fill="#D80027"/>
<path d="M9.48623 9.99977L7.88732 9.2477L8.73881 7.69915L7.00256 8.03127L6.78254 6.27734L5.57316 7.56731L4.36385 6.27734L4.14383 8.03127L2.40764 7.69909L3.25906 9.24764L1.66016 9.99977L3.25906 10.7518L2.40764 12.3004L4.14395 11.9683L4.36385 13.7222L5.57316 12.4322L6.78254 13.7222L7.00256 11.9683L8.73875 12.3004L7.88727 10.752L9.48623 9.99977Z" fill="#FFDA44"/>
<path d="M1.27711 1.89062L1.8092 2.63455L2.68102 2.35833L2.13797 3.09428L2.67006 3.83809L1.80234 3.5491L1.2593 4.28499L1.26615 3.37044L0.398438 3.08133L1.27031 2.80523L1.27711 1.89062Z" fill="#FFDA44"/>
<path d="M1.27711 15.7148L1.8092 16.4588L2.68102 16.1825L2.13797 16.9185L2.67006 17.6624L1.80234 17.3733L1.2593 18.1092L1.26615 17.1947L0.398438 16.9056L1.27031 16.6295L1.27711 15.7148Z" fill="#FFDA44"/>
<path d="M12.3277 8.80273L11.7956 9.5466L10.9238 9.27044L11.4669 10.0063L10.9348 10.7503L11.8025 10.4612L12.3455 11.197L12.3387 10.2826L13.2064 9.99344L12.3345 9.71729L12.3277 8.80273Z" fill="#FFDA44"/>
</svg>
