<svg width="30" height="20" viewBox="0 0 30 20" fill="none" xmlns="http://www.w3.org/2000/svg">
<path d="M30 0H0V19.9998H30V0Z" fill="#0052B4"/>
<path d="M23.4779 7.8804L22.4997 8.20647L21.5214 7.8804L21.1953 7.0652L21.5214 6.25H23.4779L23.1518 7.0652L23.4779 7.8804Z" fill="#ACABB1"/>
<path d="M20.2168 7.87988V11.4667C20.2168 13.214 22.4994 13.7493 22.4994 13.7493C22.4994 13.7493 24.7821 13.214 24.7821 11.4667V7.87988H20.2168Z" fill="#338AF3"/>
<path d="M20.4238 12.3167C20.9849 13.394 22.5007 13.7496 22.5007 13.7496C22.5007 13.7496 24.0164 13.394 24.5775 12.3167L22.5007 8.8584L20.4238 12.3167Z" fill="#6DA544"/>
<path d="M24.7821 11.4305L22.4994 7.87988L20.2168 11.4305V11.4667C20.2168 11.7901 20.2951 12.0719 20.4226 12.3165L22.4994 9.08589L24.5763 12.3165C24.7037 12.0719 24.7821 11.7902 24.7821 11.4667V11.4305Z" fill="#FFDA44"/>
<path d="M15 0V1.79018L12.3535 3.2608H15V6.73879H11.5369L15 8.66268V9.99959H13.4367L9.13043 7.60749V9.99959H5.86957V7.15357L0.746719 9.99959H0V8.20935L2.6465 6.73879H0V3.2608H3.46307L0 1.33626V0H1.56328L5.86957 2.39204V0H9.13043V2.84596L14.2533 0H15Z" fill="#F0F0F0"/>
<path d="M8.4375 0H6.5625V4.06234H0V5.93731H6.5625V9.99977H8.4375V5.93731H15V4.06234H8.4375V0Z" fill="#D80027"/>
<path d="M9.13086 6.73926L15.0004 10.0001V9.07798L10.7906 6.73926H9.13086Z" fill="#0052B4"/>
<path d="M9.13086 6.73926L15.0004 10.0001V9.07798L10.7906 6.73926H9.13086Z" fill="#F0F0F0"/>
<path d="M9.13086 6.73926L15.0004 10.0001V9.07798L10.7906 6.73926H9.13086Z" fill="#D80027"/>
<path d="M4.20973 6.73926L0 9.07798V10.0001L5.86957 6.73926H4.20973Z" fill="#D80027"/>
<path d="M5.86957 3.2608L0 0V0.922072L4.20979 3.2608H5.86957Z" fill="#0052B4"/>
<path d="M5.86957 3.2608L0 0V0.922072L4.20979 3.2608H5.86957Z" fill="#F0F0F0"/>
<path d="M5.86957 3.2608L0 0V0.922072L4.20979 3.2608H5.86957Z" fill="#D80027"/>
<path d="M10.7907 3.2608L15.0004 0.922072V0L9.13086 3.2608H10.7907Z" fill="#D80027"/>
</svg>
