<svg width="30" height="20" viewBox="0 0 30 20" fill="none" xmlns="http://www.w3.org/2000/svg">
<path d="M30 0H0V20H30V0Z" fill="#D80027"/>
<path d="M11.5219 0V10.3261V20H0V0H11.5219Z" fill="#6DA544"/>
<path d="M11.5215 13.7502C13.5926 13.7502 15.2715 12.0712 15.2715 10.0001C15.2715 7.92897 13.5926 6.25 11.5215 6.25C9.45042 6.25 7.77148 7.92897 7.77148 10.0001C7.77148 12.0712 9.45042 13.7502 11.5215 13.7502Z" fill="#FFDA44"/>
<path d="M9.41211 8.125V10.4689C9.41211 11.6338 10.3565 12.5783 11.5215 12.5783C12.6864 12.5783 13.6309 11.6338 13.6309 10.4689V8.125H9.41211Z" fill="#D80027"/>
<path d="M11.5215 11.1719C11.1338 11.1719 10.8184 10.8565 10.8184 10.4688V9.53125H12.2247V10.4688C12.2246 10.8564 11.9091 11.1719 11.5215 11.1719Z" fill="#F0F0F0"/>
</svg>
