<svg width="30" height="20" viewBox="0 0 30 20" fill="none" xmlns="http://www.w3.org/2000/svg">
<path d="M30 0H0V20H30V0Z" fill="#FCFCFC"/>
<path d="M18.0444 8.26074V9.13026H19.2379C18.7398 9.82248 18.0764 10.3875 17.3056 10.7681C17.1079 10.5626 16.8303 10.4346 16.5227 10.4346C16.0041 10.4346 15.5707 10.7979 15.4621 11.2837C15.3102 11.297 15.1564 11.3041 15.001 11.3041C14.8454 11.3041 14.6917 11.297 14.5398 11.2837C14.4312 10.7979 13.9977 10.4346 13.4792 10.4346C13.1716 10.4346 12.894 10.5626 12.6963 10.768C11.9255 10.3876 11.2621 9.82242 10.7641 9.13026H11.9575V8.26074H8.91406C8.91406 11.6224 11.6393 14.3476 15.001 14.3476C18.3628 14.3476 21.088 11.6224 21.088 8.26074H18.0444Z" fill="#D80027"/>
</svg>
