<svg width="30" height="20" viewBox="0 0 30 20" fill="none" xmlns="http://www.w3.org/2000/svg">
<path d="M30 0H0V19.9998H30V0Z" fill="#FFDA44"/>
<path d="M22.4927 19.9994L15 9.78223L16.5719 19.9994H22.4927Z" fill="#D80027"/>
<path d="M7.82617 0L15.0001 9.78238L13.4951 0H7.82617Z" fill="#D80027"/>
<path d="M13.4285 19.9994L15.0005 9.78223L7.50781 19.9994H13.4285Z" fill="#D80027"/>
<path d="M0 0V7.47466L15 9.78238L1.66014 0H0Z" fill="#D80027"/>
<path d="M0 19.9994H1.06711L15 9.78223L0 12.0898V19.9994Z" fill="#D80027"/>
<path d="M15 9.78238L30 7.47466V0H28.34L15 9.78238Z" fill="#D80027"/>
<path d="M16.505 0L15 9.78238L22.1739 0H16.505Z" fill="#D80027"/>
<path d="M30 19.9994V12.0899L15 9.78223L28.9328 19.9994H30Z" fill="#D80027"/>
<path d="M14.9996 13.2607C16.9204 13.2607 18.4776 11.7035 18.4776 9.78269C18.4776 7.86184 16.9204 6.30469 14.9996 6.30469C13.0787 6.30469 11.5215 7.86184 11.5215 9.78269C11.5215 11.7035 13.0787 13.2607 14.9996 13.2607Z" fill="#D80027"/>
<path d="M14.9993 12.3911C16.4401 12.3911 17.608 11.2232 17.608 9.78249C17.608 8.34176 16.4401 7.17383 14.9993 7.17383C13.5586 7.17383 12.3906 8.34176 12.3906 9.78249C12.3906 11.2232 13.5586 12.3911 14.9993 12.3911Z" fill="#FFDA44"/>
</svg>
