<svg width="30" height="20" viewBox="0 0 30 20" fill="none" xmlns="http://www.w3.org/2000/svg">
<path d="M30 0H0V20H30V0Z" fill="#338AF3"/>
<path d="M30 10H0V14.7823H30V10Z" fill="#FFDA44"/>
<path d="M30 14.7822H0V19.9995H30V14.7822Z" fill="#496E2D"/>
<path d="M16.3047 5.85202L17.526 6.42647L16.8757 7.60923L18.2018 7.35552L18.3698 8.69525L19.2936 7.70995L20.2173 8.69525L20.3853 7.35552L21.7115 7.60923L21.0612 6.42647L22.2824 5.85202L21.0611 5.27751L21.7115 4.09481L20.3853 4.34846L20.2173 3.00879L19.2936 3.99409L18.3698 3.00879L18.2018 4.34846L16.8756 4.09481L17.526 5.27763L16.3047 5.85202Z" fill="#FFDA44"/>
</svg>
