<svg width="30" height="20" viewBox="0 0 30 20" fill="none" xmlns="http://www.w3.org/2000/svg">
<path d="M30 0H0V19.9996H30V0Z" fill="#0052B4"/>
<path d="M30 0V9.76703L0 10.0103V0H30Z" fill="#D80027"/>
<path d="M24.9996 9.99982C25.0022 10.0025 15.0089 20.0068 14.9998 19.9996C14.9906 20.0068 4.99742 10.0025 5 9.99982C4.99742 9.99719 14.9906 -0.00720317 14.9998 3.89205e-06C15.0089 -0.00720317 25.0021 9.99719 24.9996 9.99982Z" fill="#F0F0F0"/>
<path d="M14.9993 5.21777L16.0786 8.53917H19.5709L16.7455 10.592L17.8247 13.9134L14.9993 11.8606L12.1739 13.9134L13.2531 10.592L10.4277 8.53917H13.9201L14.9993 5.21777Z" fill="#FFDA44"/>
</svg>
