<svg width="30" height="20" viewBox="0 0 30 20" fill="none" xmlns="http://www.w3.org/2000/svg">
<path d="M30 0H0V19.9994H30V0Z" fill="#F0F0F0"/>
<path d="M30 0H0V6.66643H30V0Z" fill="black"/>
<path d="M30 13.333H0V19.9994H30V13.333Z" fill="#496E2D"/>
<path d="M15 10.0004L0 20V0L15 10.0004Z" fill="#D80027"/>
<path d="M17.9126 10.0001C17.9126 8.83461 18.7317 7.86091 19.8256 7.62203C19.6575 7.58529 19.483 7.56543 19.3039 7.56543C17.9592 7.56543 16.8691 8.65544 16.8691 10.0001C16.8691 11.3449 17.9592 12.4349 19.3039 12.4349C19.4831 12.4349 19.6575 12.415 19.8256 12.3783C18.7317 12.1394 17.9126 11.1657 17.9126 10.0001Z" fill="#D80027"/>
<path d="M19.9278 8.43457L20.2731 9.49745H21.3906L20.4865 10.1543L20.8319 11.2172L19.9278 10.5603L19.0236 11.2172L19.369 10.1543L18.4648 9.49745H19.5823L19.9278 8.43457Z" fill="#D80027"/>
</svg>
