<svg width="30" height="20" viewBox="0 0 30 20" fill="none" xmlns="http://www.w3.org/2000/svg">
<path d="M30 0H0V19.9998H30V0Z" fill="#D80027"/>
<path d="M30 0H0V19.9996" fill="#6DA544"/>
<path d="M26.1726 0H24.4825L0 16.3214V17.4481V19.9996H3.82734H5.51748L30 3.67815V2.55147V0H26.1726Z" fill="#FFDA44"/>
<path d="M30 0H26.1726L0 17.4481V19.9996H3.82734L30 2.55147V0Z" fill="black"/>
<path d="M10.9126 10.582L12.0202 11.4334L13.1721 10.6431L12.7047 11.9595L13.8122 12.8109L12.4158 12.7732L11.9483 14.0896L11.5527 12.7497L10.1562 12.712L11.3082 11.9218L10.9126 10.582Z" fill="#F0F0F0"/>
<path d="M16.9439 6.44434L18.0514 7.29569L19.2033 6.50545L18.7359 7.82185L19.8435 8.6732L18.447 8.63541L17.9795 9.95186L17.5839 8.61203L16.1875 8.57429L17.3395 7.78406L16.9439 6.44434Z" fill="#F0F0F0"/>
</svg>
