<svg width="30" height="20" viewBox="0 0 30 20" fill="none" xmlns="http://www.w3.org/2000/svg">
<path d="M30 0H0V20H30V0Z" fill="#D80027"/>
<path d="M15 0H0V9.99968H15V0Z" fill="#0052B4"/>
<path d="M9.69549 5.65137L9.85744 6.14964H10.3812L9.95746 6.45749L10.1194 6.95571L9.69549 6.6478L9.27168 6.95571L9.43357 6.45749L9.00977 6.14964H9.53359L9.69549 5.65137Z" fill="#F0F0F0"/>
<path d="M7.06475 1.73926L7.33463 2.5697H8.20768L7.50133 3.0828L7.77115 3.91312L7.06475 3.39996L6.35846 3.91312L6.62828 3.0828L5.92188 2.5697H6.79498L7.06475 1.73926Z" fill="#F0F0F0"/>
<path d="M9.67412 2.6084L9.944 3.43878H10.8171L10.1107 3.95188L10.3805 4.78232L9.67412 4.26904L8.96783 4.78232L9.2376 3.95188L8.53125 3.43878H9.4043L9.67412 2.6084Z" fill="#F0F0F0"/>
<path d="M7.61162 6.08691L7.8815 6.9173H8.75455L8.0482 7.43045L8.31797 8.26078L7.61162 7.74756L6.90533 8.26078L7.1751 7.43045L6.46875 6.9173H7.3418L7.61162 6.08691Z" fill="#F0F0F0"/>
<path d="M5.32652 3.91309L5.59635 4.74353H6.46939L5.76305 5.25663L6.03281 6.08707L5.32652 5.57379L4.62018 6.08707L4.88994 5.25663L4.18359 4.74353H5.05664L5.32652 3.91309Z" fill="#F0F0F0"/>
</svg>
