<svg width="30" height="20" viewBox="0 0 30 20" fill="none" xmlns="http://www.w3.org/2000/svg">
<path d="M30 0H0V19.9996H30V0Z" fill="#338AF3"/>
<path d="M30 0V9.76703L0 10.0103V0H30Z" fill="#F0F0F0"/>
<path d="M18.9688 6.90039L14.9994 10.8698L11.03 6.90039C10.5167 7.66241 10.2168 8.57958 10.2168 9.56542V10.8698C10.2168 12.9642 11.5701 14.7483 13.4481 15.394C13.1975 15.8853 13.2398 16.4984 13.607 16.9568C14.0949 16.5658 14.5999 16.1611 15.0284 15.8177C15.4569 16.1611 15.9619 16.5658 16.4498 16.9568C16.8214 16.493 16.8606 15.8708 16.6 15.3766C18.4524 14.7168 19.7821 12.9458 19.7821 10.8698V9.56542C19.782 8.57952 19.482 7.66246 18.9688 6.90039Z" fill="#6DA544"/>
<path d="M14.9997 14.3478C13.0818 14.3478 11.5215 12.7875 11.5215 10.8696V9.56523C11.5215 7.64727 13.0818 6.08691 14.9997 6.08691C16.9176 6.08691 18.478 7.64727 18.478 9.56517V10.8695C18.478 12.7875 16.9176 14.3478 14.9997 14.3478Z" fill="#FFDA44"/>
<path d="M17.1739 10.8699V9.5655C17.1739 8.36678 16.1988 7.3916 15.0001 7.3916C13.8013 7.3916 12.8262 8.36678 12.8262 9.5655V10.8699L15.0001 11.3047L17.1739 10.8699Z" fill="#338AF3"/>
<path d="M12.8262 10.8701C12.8262 12.0688 13.8013 13.044 15.0001 13.044C16.1988 13.044 17.1739 12.0688 17.1739 10.8701H12.8262Z" fill="#6DA544"/>
<path d="M17.608 6.08749C17.608 5.36708 17.024 4.78313 16.3036 4.78313C15.9695 4.78313 15.6649 4.90887 15.4341 5.11548V4.34831H15.8689V3.47877H15.4341V3.04395H14.5646V3.47877H14.1297V4.34831H14.5646V5.11548C14.3337 4.90887 14.0291 4.78313 13.695 4.78313C12.9746 4.78313 12.3906 5.36708 12.3906 6.08749C12.3906 6.47369 12.5586 6.82062 12.8254 7.05951V7.82668H17.1733V7.05951C17.44 6.82062 17.608 6.47374 17.608 6.08749Z" fill="#FFDA44"/>
</svg>
