<svg width="30" height="20" viewBox="0 0 30 20" fill="none" xmlns="http://www.w3.org/2000/svg">
<path d="M30 0H0V19.9994H30V0Z" fill="#FFDA44"/>
<path d="M30 0H0V6.66643H30V0Z" fill="#6DA544"/>
<path d="M30 13.333H0V19.9994H30V13.333Z" fill="#6DA544"/>
<path d="M15 10.0004L0 20V0L15 10.0004Z" fill="#D80027"/>
<path d="M17.6978 8.26074L18.1295 9.58928H19.5265L18.3963 10.4105L18.8279 11.7391L17.6978 10.9179L16.5677 11.7391L16.9993 10.4105L15.8691 9.58928H17.2661L17.6978 8.26074Z" fill="black"/>
<path d="M22.0455 8.26074L22.4771 9.58928H23.8741L22.7439 10.4105L23.1756 11.7391L22.0455 10.9179L20.9153 11.7391L21.347 10.4105L20.2168 9.58928H21.6138L22.0455 8.26074Z" fill="black"/>
</svg>
