<svg width="30" height="20" viewBox="0 0 30 20" fill="none" xmlns="http://www.w3.org/2000/svg">
<path d="M30 0H0V19.9998H30V0Z" fill="#F0F0F0"/>
<path d="M6.7801 1.88867C5.96969 1.88867 5.28877 2.44296 5.0957 3.193L6.7801 3.62782L8.46449 3.193C8.27143 2.44284 7.59045 1.88867 6.7801 1.88867Z" fill="black"/>
<path d="M5.04023 5.80183L7.21412 6.23665V5.31229C7.8252 5.15491 8.30625 4.67381 8.46357 4.06274L6.77936 3.62793H4.60547L5.04029 4.93226L5.04023 5.80183Z" fill="black"/>
<path d="M8.46369 3.19336H4.60547V4.06287V4.93239H5.04029V4.06287H8.46369C8.49949 3.92389 8.51859 3.77823 8.51859 3.62806C8.51848 3.478 8.49943 3.33234 8.46369 3.19336Z" fill="#ACABB1"/>
<path d="M23.6551 1.88867C22.8447 1.88867 22.1638 2.44296 21.9707 3.193L23.6551 3.62782L25.3395 3.193C25.1464 2.44284 24.4654 1.88867 23.6551 1.88867Z" fill="black"/>
<path d="M21.9152 5.80183L24.0891 6.23665V5.31229C24.7002 5.15491 25.1813 4.67381 25.3386 4.06274L23.6544 3.62793H21.4805L21.9153 4.93226L21.9152 5.80183Z" fill="black"/>
<path d="M25.3387 3.19336H21.4805V4.06287V4.93239H21.9153V4.06287H25.3387C25.3745 3.92389 25.3936 3.77823 25.3936 3.62806C25.3935 3.478 25.3745 3.33234 25.3387 3.19336Z" fill="#ACABB1"/>
<path d="M23.6551 13.7627C22.8447 13.7627 22.1638 14.317 21.9707 15.067L23.6551 15.5018L25.3395 15.067C25.1464 14.3169 24.4654 13.7627 23.6551 13.7627Z" fill="black"/>
<path d="M21.9152 17.6759L24.0891 18.1107V17.1863C24.7002 17.0289 25.1813 16.5478 25.3386 15.9368L23.6544 15.502H21.4805L21.9153 16.8063L21.9152 17.6759Z" fill="black"/>
<path d="M25.3387 15.0674H21.4805V15.9369V16.8064H21.9153V15.9369H25.3387C25.3745 15.7979 25.3936 15.6523 25.3936 15.5021C25.3935 15.352 25.3745 15.2064 25.3387 15.0674Z" fill="#ACABB1"/>
<path d="M6.7801 13.7627C5.96969 13.7627 5.28877 14.317 5.0957 15.067L6.7801 15.5018L8.46449 15.067C8.27143 14.3169 7.59045 13.7627 6.7801 13.7627Z" fill="black"/>
<path d="M5.04023 17.6759L7.21412 18.1107V17.1863C7.8252 17.0289 8.30625 16.5478 8.46357 15.9368L6.77936 15.502H4.60547L5.04029 16.8063L5.04023 17.6759Z" fill="black"/>
<path d="M8.46369 15.0674H4.60547V15.9369V16.8064H5.04029V15.9369H8.46369C8.49949 15.7979 8.51859 15.6523 8.51859 15.5021C8.51848 15.352 8.49943 15.2064 8.46369 15.0674Z" fill="#ACABB1"/>
<path d="M16.875 0H13.125V8.1248H0V11.8747H13.125V19.9995H16.875V11.8747H30V8.1248H16.875V0Z" fill="#D80027"/>
</svg>
