<svg width="30" height="20" viewBox="0 0 30 20" fill="none" xmlns="http://www.w3.org/2000/svg">
<path d="M30 0H0V20H30V0Z" fill="#6DA544"/>
<path d="M10.7539 11.9561C10.7539 12.6765 11.3241 13.2604 12.0275 13.2604H15.8483C15.8483 13.8606 16.3235 14.3474 16.9096 14.3474H18.1832C18.7694 14.3474 19.2446 13.8607 19.2446 13.2604V11.9561H10.7539Z" fill="#F0F0F0"/>
<path d="M19.351 5.65234V8.69579C19.351 9.17526 18.9702 9.56531 18.502 9.56531V10.8697C19.6724 10.8697 20.6246 9.89449 20.6246 8.69579V5.65234H19.351Z" fill="#F0F0F0"/>
<path d="M10.2241 8.69579C10.2241 9.17525 9.84322 9.56531 9.375 9.56531V10.8696C10.5455 10.8696 11.4976 9.89448 11.4976 8.69579V5.65234H10.224L10.2241 8.69579Z" fill="#F0F0F0"/>
<path d="M18.715 5.65137H17.4414V8.69481H18.715V5.65137Z" fill="#F0F0F0"/>
<path d="M15.5311 7.39151C15.5311 7.51139 15.4359 7.60889 15.3188 7.60889C15.2017 7.60889 15.1065 7.51139 15.1065 7.39151V5.65234H13.8329V7.39151C13.8329 7.51139 13.7377 7.60889 13.6206 7.60889C13.5036 7.60889 13.4084 7.51139 13.4084 7.39151V5.65234H12.1348V7.39151C12.1348 8.23056 12.8013 8.91323 13.6206 8.91323C13.9361 8.91323 14.2288 8.81168 14.4697 8.63919C14.7105 8.81168 15.0032 8.91323 15.3188 8.91323C15.3823 8.91323 15.4447 8.90866 15.5062 8.90063C15.416 9.28143 15.0812 9.56537 14.682 9.56537V10.8697C15.8524 10.8697 16.8046 9.89454 16.8046 8.69585V7.39151V5.65234H15.531L15.5311 7.39151Z" fill="#F0F0F0"/>
<path d="M14.045 9.56445H12.1348V10.8688H14.045V9.56445Z" fill="#F0F0F0"/>
</svg>
