<svg width="30" height="20" viewBox="0 0 30 20" fill="none" xmlns="http://www.w3.org/2000/svg">
<path d="M30 0H0V20H30V0Z" fill="#0052B4"/>
<path d="M30 0H0V6.66643H30V0Z" fill="#D80027"/>
<path d="M30 13.333H0V19.9994H30V13.333Z" fill="#F0F0F0"/>
<path d="M7.58594 5.65234V10.6407C7.58594 13.4783 11.293 14.3477 11.293 14.3477C11.293 14.3477 14.9999 13.4782 14.9999 10.6407V5.65234H7.58594Z" fill="#D80027"/>
<path d="M9.11914 6.52171H13.4669V4.78261L12.5973 5.21737L11.2929 3.91309L9.98867 5.21737L9.11914 4.78261V6.52171Z" fill="#FFDA44"/>
<path d="M14.1306 11.3348L11.3046 8.50879L8.47852 11.3348L9.40084 12.2571L11.3046 10.3534L13.2083 12.2571L14.1306 11.3348Z" fill="#FFDA44"/>
<path d="M14.1306 8.69577H12.812C12.8862 8.5678 12.9292 8.41962 12.9292 8.26112C12.9292 7.78089 12.5399 7.3916 12.0597 7.3916C11.7279 7.3916 11.4397 7.57746 11.2931 7.85074C11.1465 7.57752 10.8583 7.3916 10.5265 7.3916C10.0464 7.3916 9.65701 7.78089 9.65701 8.26112C9.65701 8.41968 9.70014 8.56786 9.77426 8.69577H8.47852C8.47852 9.176 8.89682 9.56529 9.37699 9.56529H9.34805C9.34805 10.0455 9.73734 10.4348 10.2176 10.4348C10.2176 10.86 10.5229 11.2133 10.9262 11.2889L10.241 12.8358C10.5693 12.9693 10.9281 13.0434 11.3044 13.0434C11.6807 13.0434 12.0395 12.9693 12.3679 12.8358L11.6827 11.2889C12.086 11.2133 12.3913 10.86 12.3913 10.4348C12.8715 10.4348 13.2608 10.0455 13.2608 9.56529H13.2319C13.7123 9.56529 14.1306 9.176 14.1306 8.69577Z" fill="#F0F0F0"/>
</svg>
