<svg width="30" height="20" viewBox="0 0 30 20" fill="none" xmlns="http://www.w3.org/2000/svg">
<path d="M30 0H0V19.9998H30V0Z" fill="#FFDA44"/>
<path d="M0 0H30V19.9995" fill="#D80027"/>
<path d="M17.614 12.6149C17.2032 12.7762 16.726 12.7591 16.3119 12.5267C15.5803 12.1161 15.3191 11.1866 15.7298 10.4549L15.6051 10.385C16.8579 10.0829 17.7847 8.94587 17.7685 7.60398C17.7584 6.76974 17.3856 6.02339 16.8025 5.5127L15.8895 6.44801C16.2347 6.7231 16.4585 7.14503 16.4642 7.61974C16.4744 8.45873 15.8001 9.14966 14.9611 9.15985L14.9628 9.30276C14.0748 8.36897 12.6267 8.13489 11.4727 8.81984C10.7553 9.24575 10.2954 9.94171 10.1445 10.7021L11.4111 11.0251C11.4768 10.5886 11.7303 10.1839 12.1385 9.94148C12.86 9.51322 13.7955 9.7517 14.2238 10.4733L14.3468 10.4004C13.982 11.6362 14.5033 13.0074 15.6736 13.6643C16.4011 14.0727 17.2337 14.123 17.9677 13.8734L17.614 12.6149Z" fill="#FF9811"/>
<path d="M18.7024 6.77206L17.9956 9.29429L15.8749 8.90266L14.5098 6.08887L10.8221 7.39747L10.5312 6.578L9.56641 6.45911L10.2934 8.50786L12.8313 7.85883L13.5525 9.89118L11.7981 12.4802L14.7753 15.0194L14.211 15.6811L14.5904 16.5762L16.0012 14.9222L14.1702 13.049L15.5697 11.4083L18.6892 11.6331L19.3997 7.78512L20.2548 7.94303L20.8404 7.16685L18.7024 6.77206Z" fill="#FFEACF"/>
</svg>
