<svg width="30" height="20" viewBox="0 0 30 20" fill="none" xmlns="http://www.w3.org/2000/svg">
<path d="M30 0H0V20H30V0Z" fill="#F0F0F0"/>
<path d="M30 0H0V10H30V0Z" fill="#D80027"/>
<path d="M4.89219 4.9996C4.89219 3.54263 5.91617 2.3255 7.28352 2.02684C7.07334 1.9809 6.85531 1.95605 6.63137 1.95605C4.95043 1.95605 3.58789 3.31862 3.58789 4.99954C3.58789 6.68045 4.95049 8.04308 6.63137 8.04308C6.85531 8.04308 7.07334 8.01818 7.28352 7.9723C5.91617 7.67376 4.89219 6.45662 4.89219 4.9996Z" fill="#F0F0F0"/>
<path d="M8.80498 2.17383L9.02084 2.83812H9.71934L9.1542 3.2487L9.37006 3.91299L8.80498 3.50247L8.23984 3.91299L8.45576 3.2487L7.89062 2.83812H8.58912L8.80498 2.17383Z" fill="#F0F0F0"/>
<path d="M7.10967 3.47852L7.32547 4.14281H8.02396L7.45883 4.55338L7.67469 5.21767L7.10967 4.80716L6.54453 5.21767L6.76045 4.55338L6.19531 4.14281H6.89381L7.10967 3.47852Z" fill="#F0F0F0"/>
<path d="M10.4983 3.47852L10.7141 4.14281H11.4126L10.8475 4.55338L11.0634 5.21767L10.4983 4.80716L9.9332 5.21767L10.1491 4.55338L9.58398 4.14281H10.2825L10.4983 3.47852Z" fill="#F0F0F0"/>
<path d="M9.84588 5.43457L10.0617 6.09886H10.7602L10.1952 6.50944L10.411 7.17373L9.84588 6.76321L9.28086 7.17373L9.49672 6.50944L8.93164 6.09886H9.63008L9.84588 5.43457Z" fill="#F0F0F0"/>
<path d="M7.76195 5.43457L7.97775 6.09886H8.67625L8.11117 6.50944L8.32703 7.17373L7.76195 6.76321L7.19687 7.17373L7.41273 6.50944L6.84766 6.09886H7.54609L7.76195 5.43457Z" fill="#F0F0F0"/>
</svg>
