<svg width="30" height="20" viewBox="0 0 30 20" fill="none" xmlns="http://www.w3.org/2000/svg">
<path d="M30 0H0V19.9994H30V0Z" fill="#0052B4"/>
<path d="M30 0V9.76689L0 10.0102V0H30Z" fill="#D80027"/>
<path d="M15 10.0004L0 20V0L15 10.0004Z" fill="#F0F0F0"/>
<path d="M3.49373 10C3.48693 10.0884 3.48242 10.1776 3.48242 10.2678C3.48242 12.1909 5.04143 13.7499 6.96459 13.7499C8.88775 13.7499 10.4468 12.1909 10.4468 10.2678C10.4468 10.1776 10.4422 10.0884 10.4354 10H3.49373Z" fill="#FFDA44"/>
<path d="M6.96402 8.39287C7.55577 8.39287 8.03547 7.91317 8.03547 7.32143C8.03547 6.7297 7.55577 6.25 6.96402 6.25C6.37228 6.25 5.89258 6.7297 5.89258 7.32143C5.89258 7.91317 6.37228 8.39287 6.96402 8.39287Z" fill="#FFDA44"/>
<path d="M4.55273 7.05371V10.5358C4.55273 12.3812 6.96352 12.9465 6.96352 12.9465C6.96352 12.9465 9.3743 12.3812 9.3743 10.5358V7.05371H4.55273Z" fill="#D80027"/>
<path d="M6.96539 11.8252C6.5182 11.6643 5.625 11.2529 5.625 10.5358V8.125H8.30361V10.5358C8.30355 11.2553 7.41041 11.6656 6.96539 11.8252Z" fill="#338AF3"/>
<path d="M7.49943 9.46462V8.92896L6.96365 8.66113L6.42799 8.92896V9.46462L6.16016 9.73257V10.8039H7.76727V9.73257L7.49943 9.46462Z" fill="#F3F3F3"/>
</svg>
