<svg width="30" height="20" viewBox="0 0 30 20" fill="none" xmlns="http://www.w3.org/2000/svg">
<path d="M30 0H0V19.9998H30V0Z" fill="#D80027"/>
<path d="M29.348 0.652344H0.652344V19.3478H29.348V0.652344Z" fill="#0052B4"/>
<path d="M7.6875 9.99944L15 5.40332L22.3125 9.99944L15 14.5956L7.6875 9.99944Z" fill="#D80027"/>
<path d="M14.6739 0V9.6737H0V10.3258H14.6739V19.9995H15.3261V10.3258H30V9.6737H15.3261V0H14.6739Z" fill="#D80027"/>
<path d="M8.91211 9.99957L14.9991 6.17383L21.086 9.99957L14.9991 13.8254L8.91211 9.99957Z" fill="#F0F0F0"/>
<path d="M19.0437 11.2837L18.3191 11.7395H11.5215L11.5593 11.6639L12.3908 10.0002L13.2602 10.8695H14.9996L15.8689 9.56521L16.7389 10.0002L17.6083 9.13086L19.0437 11.2837Z" fill="#6DA544"/>
<path d="M15.0002 7.39062L15.2161 8.05495H15.9145L15.3495 8.46539L15.5654 9.12977L15.0002 8.71915L14.4351 9.12977L14.651 8.46539L14.0859 8.05495H14.7844L15.0002 7.39062Z" fill="#FFDA44"/>
</svg>
