<svg width="30" height="20" viewBox="0 0 30 20" fill="none" xmlns="http://www.w3.org/2000/svg">
<path d="M30 0H0V20H30V0Z" fill="#F0F0F0"/>
<path d="M30 6.66699H0V13.3336H30V6.66699Z" fill="#0052B4"/>
<path d="M30 13.333H0V19.9997H30V13.333Z" fill="#D80027"/>
<path d="M13.6888 6.52178V7.39115C13.6888 9.38812 11.0801 9.99992 11.0801 9.99992C11.0801 9.99992 8.47139 9.38818 8.47139 7.39115V6.52178L8.46289 3.93258L13.6803 3.91699L13.6888 6.52178Z" fill="#F0F0F0"/>
<path d="M13.6888 6.52178V7.39115C13.6888 9.38812 11.0801 9.99992 11.0801 9.99992C11.0801 9.99992 8.47139 9.38818 8.47139 7.39115V6.52178L8.46289 3.93258L13.6803 3.91699L13.6888 6.52178Z" fill="#0052B4"/>
<path d="M13.6881 6.52192V7.3913C13.6881 9.38827 11.0794 10.0001 11.0794 10.0001C11.0794 10.0001 8.4707 9.38833 8.4707 7.3913V6.52192L9.3407 7.3913L11.0794 6.08691L12.8188 7.3913L13.6881 6.52192Z" fill="#F0F0F0"/>
</svg>
