<svg width="30" height="20" viewBox="0 0 30 20" fill="none" xmlns="http://www.w3.org/2000/svg">
<path d="M30 0H0V20H30V0Z" fill="#F0F0F0"/>
<path d="M30 6.52148H0V13.4777H30V6.52148Z" fill="#0052B4"/>
<path d="M30 13.4785H0V20.0004H30V13.4785Z" fill="#D80027"/>
<path d="M7.58594 5.65234V10.6409C7.58594 13.4786 11.293 14.348 11.293 14.348C11.293 14.348 14.9999 13.4785 14.9999 10.6409V5.65234H7.58594Z" fill="#F0F0F0"/>
<path d="M8.5625 5.79883V10.6002C8.5625 10.9208 8.63369 11.2236 8.77478 11.5075C10.1746 11.5075 12.2669 11.5075 13.8121 11.5075C13.9532 11.2237 14.0244 10.9209 14.0244 10.6002V5.79883H8.5625Z" fill="#D80027"/>
<path d="M12.9668 9.14654H11.7115V8.30963H12.5484V7.47271H11.7115V6.63574H10.8746V7.47271H10.0377V8.30963H10.8746V9.14654H9.61914V9.98351H10.8746V10.8204H11.7115V9.98351H12.9668V9.14654Z" fill="#F0F0F0"/>
<path d="M9.9168 12.6751C10.4561 13.014 11.0102 13.2109 11.2939 13.2984C11.5776 13.2108 12.1316 13.0141 12.6709 12.6751C13.2148 12.3334 13.5961 11.9424 13.8126 11.5068C13.5738 11.3379 13.2825 11.2383 12.9678 11.2383C12.8532 11.2383 12.7418 11.2519 12.6348 11.2768C12.408 10.7614 11.8932 10.4014 11.294 10.4014C10.6947 10.4014 10.1799 10.7614 9.95313 11.2768C9.84607 11.2519 9.73469 11.2383 9.6202 11.2383C9.30543 11.2383 9.0141 11.3379 8.77539 11.5068C8.99166 11.9424 9.37293 12.3334 9.9168 12.6751Z" fill="#0052B4"/>
</svg>
