<svg width="30" height="20" viewBox="0 0 30 20" fill="none" xmlns="http://www.w3.org/2000/svg">
<path d="M30 0H0V19.9997H30V0Z" fill="#496E2D"/>
<path d="M0 19.9995V0H30" fill="#0052B4"/>
<path d="M0 18.2319V19.9995H2.65166L30 1.76773V0H27.3483L0 18.2319Z" fill="#FFDA44"/>
<path d="M5.02078 1.37402L5.32078 2.2972H6.29145L5.50611 2.86772L5.80611 3.79096L5.02078 3.22038L4.23533 3.79096L4.53533 2.86772L3.75 2.2972H4.72072L5.02078 1.37402Z" fill="#F0F0F0"/>
<path d="M9.97965 1.37402L10.2797 2.2972H11.2504L10.4651 2.86772L10.7651 3.79096L9.97965 3.22038L9.19432 3.79096L9.49432 2.86772L8.70898 2.2972H9.67965L9.97965 1.37402Z" fill="#F0F0F0"/>
<path d="M5.02078 6.20801L5.32078 7.13119H6.29145L5.50611 7.70176L5.80611 8.625L5.02078 8.05437L4.23533 8.625L4.53533 7.70176L3.75 7.13119H4.72072L5.02078 6.20801Z" fill="#F0F0F0"/>
<path d="M9.97965 6.20801L10.2797 7.13119H11.2504L10.4651 7.70176L10.7651 8.625L9.97965 8.05437L9.19432 8.625L9.49432 7.70176L8.70898 7.13119H9.67965L9.97965 6.20801Z" fill="#F0F0F0"/>
<path d="M7.4993 3.79102L7.7993 4.7142H8.77008L7.98463 5.28477L8.28463 6.20806L7.4993 5.63743L6.71397 6.20806L7.01397 5.28477L6.22852 4.7142H7.1993L7.4993 3.79102Z" fill="#F0F0F0"/>
</svg>
