<svg width="30" height="20" viewBox="0 0 30 20" fill="none" xmlns="http://www.w3.org/2000/svg">
<path d="M30 0H0V20H30V0Z" fill="#F0F0F0"/>
<path d="M30 0H0V6.66665H30V0Z" fill="#496E2D"/>
<path d="M30 13.333H0V19.9997H30V13.333Z" fill="#D80027"/>
<path d="M15.0006 7.82617L15.5402 9.48681H17.2864L15.8737 10.5133L16.4134 12.174L15.0006 11.1477L13.5879 12.174L14.1276 10.5133L12.7148 9.48681H14.4611L15.0006 7.82617Z" fill="black"/>
<path d="M17.9704 1.95611V3.98514C17.9704 4.30484 17.7103 4.56488 17.3906 4.56488V5.43443C18.1898 5.43443 18.8399 4.78426 18.8399 3.98508V1.95605L17.9704 1.95611Z" fill="#F0F0F0"/>
<path d="M11.7399 3.98508C11.7399 4.30478 11.4798 4.56482 11.1602 4.56482V5.43443C11.9593 5.43443 12.6094 4.78426 12.6094 3.98508V1.95605H11.7399V3.98508Z" fill="#F0F0F0"/>
<path d="M17.5355 1.95703H16.666V3.986H17.5355V1.95703Z" fill="#F0F0F0"/>
<path d="M15.3618 3.11553C15.3618 3.1954 15.2967 3.2605 15.2169 3.2605C15.137 3.2605 15.072 3.19546 15.072 3.11553V1.95611H14.2024V3.11553C14.2024 3.1954 14.1374 3.2605 14.0575 3.2605C13.9777 3.2605 13.9126 3.19546 13.9126 3.11553V1.95611H13.043V3.11553C13.043 3.675 13.4981 4.13005 14.0575 4.13005C14.2729 4.13005 14.4727 4.06237 14.6372 3.94735C14.8017 4.06231 15.0015 4.13005 15.2169 4.13005C15.2603 4.13005 15.3029 4.127 15.3449 4.12161C15.2833 4.3755 15.0547 4.56482 14.7822 4.56482V5.43437C15.5814 5.43437 16.2315 4.7842 16.2315 3.98502V3.11547V1.95605H15.3619V3.11547L15.3618 3.11553Z" fill="#F0F0F0"/>
<path d="M14.3473 4.56543H13.043V5.43498H14.3473V4.56543Z" fill="#F0F0F0"/>
</svg>
