<svg width="30" height="20" viewBox="0 0 30 20" fill="none" xmlns="http://www.w3.org/2000/svg">
<path d="M30 0H0V20H30V0Z" fill="white"/>
<path d="M18.652 9.99977C18.652 10.9128 17.0168 13.1954 14.9998 13.1954C12.9828 13.1954 11.3477 10.9128 11.3477 9.99977C11.3477 7.98276 12.9828 6.34766 14.9998 6.34766C17.0168 6.34766 18.652 7.98276 18.652 9.99977Z" fill="#D80027"/>
<path d="M18.652 10C18.652 12.017 17.0168 13.6521 14.9998 13.6521C12.9828 13.6521 11.3477 12.017 11.3477 10" fill="#0052B4"/>
<path d="M19.8415 12.2601L18.873 13.2285L19.5186 13.8741L20.4871 12.9057L19.8415 12.2601Z" fill="black"/>
<path d="M18.2282 13.8734L17.2598 14.8418L17.9054 15.4874L18.8738 14.519L18.2282 13.8734Z" fill="black"/>
<path d="M21.779 14.1957L20.8105 15.1641L21.4561 15.8096L22.4246 14.8412L21.779 14.1957Z" fill="black"/>
<path d="M20.1657 15.8099L19.1973 16.7783L19.8429 17.4239L20.8113 16.4555L20.1657 15.8099Z" fill="black"/>
<path d="M20.8102 13.2279L19.8418 14.1963L20.4874 14.8419L21.4558 13.8735L20.8102 13.2279Z" fill="black"/>
<path d="M19.1969 14.8421L18.2285 15.8105L18.8741 16.4561L19.8425 15.4877L19.1969 14.8421Z" fill="black"/>
<path d="M18.2281 4.18908L20.8105 6.77148L21.4561 6.1259L18.8737 3.5435L18.2281 4.18908Z" fill="black"/>
<path d="M17.2601 5.15756L18.2285 6.12598L18.8741 5.48044L17.9056 4.51202L17.2601 5.15756Z" fill="black"/>
<path d="M18.8734 6.77182L19.8418 7.74023L20.4873 7.09469L19.5189 6.12628L18.8734 6.77182Z" fill="black"/>
<path d="M19.1956 3.22104L20.1641 4.18945L20.8097 3.54387L19.8412 2.57546L19.1956 3.22104Z" fill="black"/>
<path d="M20.8109 4.8353L21.7793 5.80371L22.4249 5.15813L21.4565 4.18972L20.8109 4.8353Z" fill="black"/>
<path d="M10.8031 16.7787L8.2207 14.1963L7.57512 14.8419L10.1575 17.4243L10.8031 16.7787Z" fill="black"/>
<path d="M11.7712 15.8102L10.8027 14.8418L10.1572 15.4873L11.1256 16.4557L11.7712 15.8102Z" fill="black"/>
<path d="M10.1579 14.196L9.18945 13.2275L8.54387 13.8731L9.51229 14.8415L10.1579 14.196Z" fill="black"/>
<path d="M12.7406 14.8422L10.1582 12.2598L9.51262 12.9053L12.095 15.4878L12.7406 14.8422Z" fill="black"/>
<path d="M8.22225 5.80213L10.8047 3.21973L10.1591 2.57415L7.57667 5.15655L8.22225 5.80213Z" fill="black"/>
<path d="M9.18905 6.77088L11.7715 4.18848L11.1259 3.5429L8.54346 6.1253L9.18905 6.77088Z" fill="black"/>
<path d="M10.1578 7.73963L12.7402 5.15723L12.0947 4.51169L9.51225 7.09409L10.1578 7.73963Z" fill="black"/>
</svg>
