<svg width="30" height="20" viewBox="0 0 30 20" fill="none" xmlns="http://www.w3.org/2000/svg">
<path d="M30 0H0V20H30V0Z" fill="#F0F0F0"/>
<path d="M6.68108 9.99966L0 3.31543V16.6851L6.68108 9.99966Z" fill="black"/>
<path d="M9.44483 10.0002L0 0.548828V3.31604L6.68108 10.0003L0 16.6857V19.4477L9.44483 10.0002Z" fill="#FFDA44"/>
<path d="M29.873 11.9565C29.8764 11.9308 29.9201 11.9051 30 11.8793V10V8.04345H29.873H13.0431L4.9998 0H0V0.548625L9.44483 10L0 19.4475V20H4.9998L13.0431 11.9565H29.873Z" fill="#6DA544"/>
<path d="M29.4841 13.9131H13.8543L7.76758 19.9999H30.0008V13.9131H29.4841Z" fill="#0052B4"/>
<path d="M29.4841 6.08685H30.0008V0H7.76758L13.8543 6.08685H29.4841Z" fill="#D80027"/>
</svg>
