<svg width="30" height="20" viewBox="0 0 30 20" fill="none" xmlns="http://www.w3.org/2000/svg">
<path d="M0 0V19.9997H30V0H0ZM28.6956 18.6954H13.0435V1.30432H28.6956V18.6954Z" fill="#FFDA44"/>
<path d="M28.6961 1.30469H13.0439V18.6958H28.6961V1.30469Z" fill="#A2001D"/>
<path d="M13.0438 1.30469H1.30469V18.6958H13.0438V1.30469Z" fill="#D80027"/>
<path d="M13.0436 0.000488281H11.7393V20.0002H13.0436V0.000488281Z" fill="#FFDA44"/>
<path d="M6.52205 1.30469H1.30469V18.6958H6.52205V1.30469Z" fill="#6DA544"/>
<path d="M11.7388 1.30469H6.52148V18.6958H11.7388V1.30469Z" fill="#FF9811"/>
<path d="M21.0164 9.67434V7.06569C21.0164 6.6307 20.3643 6.19571 20.3643 6.19571C20.3643 6.19571 19.7121 6.6307 19.7121 7.06569H17.1034V9.67434H18.4078V10.9787C18.4078 11.2643 18.4651 11.5376 18.5695 11.7854L17.9728 12.283H16.234V4.23926C15.5134 4.23926 14.9297 4.8236 14.9297 5.54358V11.1958C14.9297 11.5819 15.0973 11.9289 15.364 12.1675V14.2394H16.234V13.1523H20.1471V14.8916H19.2771V15.7609H21.0164V14.0216L21.8133 13.1523H24.4083V14.8916H23.5383V15.7609H25.2777V14.0216L26.0746 13.1523L26.8101 10.7934L26.1633 9.67428H23.8814C23.0512 9.66713 21.5003 9.67955 21.0164 9.67434Z" fill="#FFDA44"/>
<path d="M21.7119 7.4126V8.89082H25.9021V9.67391H26.163V8.62997H21.9728V7.67345H26.4238V7.4126H21.7119Z" fill="#FFDA44"/>
<path d="M14.3483 1.30469H13.0439V2.60901H14.3483V1.30469Z" fill="#FFDA44"/>
<path d="M28.696 1.30469H27.3916V2.60901H28.696V1.30469Z" fill="#FFDA44"/>
<path d="M14.3483 17.3906H13.0439V18.6949H14.3483V17.3906Z" fill="#FFDA44"/>
<path d="M28.696 17.3906H27.3916V18.6949H28.696V17.3906Z" fill="#FFDA44"/>
</svg>
