<svg width="30" height="20" viewBox="0 0 30 20" fill="none" xmlns="http://www.w3.org/2000/svg">
<path d="M30 0H0V20H30V0Z" fill="#F0F0F0"/>
<path d="M22.8557 8.04302H19.5659C19.5659 7.44279 19.0792 6.95605 18.4789 6.95605L17.6094 8.69522C17.6094 8.69522 18.537 11.3039 18.508 11.3039H19.5949C20.1953 11.3039 20.6819 10.8172 20.6819 10.2169C21.2823 10.2169 21.7689 9.73026 21.7689 9.12998H21.7327C22.3328 9.12998 22.8557 8.64336 22.8557 8.04302Z" fill="#ACABB1"/>
<path d="M7.14453 8.04302H10.4344C10.4344 7.44279 10.9211 6.95605 11.5214 6.95605L12.3909 8.69522C12.3909 8.69522 11.4633 11.3039 11.4923 11.3039H10.4053C9.80498 11.3039 9.31836 10.8172 9.31836 10.2169C8.71801 10.2169 8.23139 9.73026 8.23139 9.12998H8.2676C7.66748 9.12998 7.14453 8.64336 7.14453 8.04302Z" fill="#ACABB1"/>
<path d="M18.4788 13.9126V14.3474H11.5223V13.9126H9.7832V15.6518H11.5223V16.0865H18.4788V15.6518H20.2179V13.9126H18.4788Z" fill="#FFDA44"/>
<path d="M11.5215 6.95625V11.304C11.5215 13.9664 14.9997 14.7822 14.9997 14.7822C14.9997 14.7822 18.478 13.9664 18.478 11.304V6.95625L14.9997 6.52148L11.5215 6.95625Z" fill="#0052B4"/>
<path d="M18.4782 8.69531H11.5215V11.304H18.4782V8.69531Z" fill="#D80027"/>
<path d="M16.7389 4.78261V5.43475L16.3041 5.65213L15.8693 5.21743V3.91309H14.1302V5.21743L13.6954 5.65213L13.2605 5.43475V4.78261H11.5215V6.95647H18.478V4.78261H16.7389Z" fill="#FFDA44"/>
</svg>
