<svg width="30" height="20" viewBox="0 0 30 20" fill="none" xmlns="http://www.w3.org/2000/svg">
<path d="M30 0H0V20H30V0Z" fill="#FFDA44"/>
<path d="M30 0H0V5.30731H30V0Z" fill="black"/>
<path d="M30 14.6929H0V19.9995H30V14.6929Z" fill="#0052B4"/>
<path d="M30 6.63721H0V13.3636H30V6.63721Z" fill="#A2001D"/>
<path d="M21.522 9.56445H8.47852V10.434H21.522V9.56445Z" fill="#FFDA44"/>
<path d="M19.7822 7.82617H10.2168V8.69569H19.7822V7.82617Z" fill="#FFDA44"/>
<path d="M19.8441 9.9998C19.8441 9.9998 17.608 12.6085 14.9993 12.6085C12.3906 12.6085 12.3906 9.9998 12.3906 9.9998C12.3906 9.9998 12.3906 7.39111 14.9993 7.39111C17.608 7.39111 19.8441 9.9998 19.8441 9.9998Z" fill="#F0F0F0"/>
<path d="M14.9991 12.6085C12.3904 12.6085 10.1543 9.9998 10.1543 9.9998C10.1543 9.9998 12.3904 7.39111 14.9991 7.39111" fill="black"/>
<path d="M14.1293 9.13037H13.2598V10.8695H14.1293V9.13037Z" fill="#F0F0F0"/>
<path d="M16.7387 9.13037H15.8691V10.8695H16.7387V9.13037Z" fill="black"/>
<path d="M8.47891 10.8694C8.95913 10.8694 9.34844 10.4801 9.34844 9.99989C9.34844 9.51967 8.95913 9.13037 8.47891 9.13037C7.99868 9.13037 7.60938 9.51967 7.60938 9.99989C7.60938 10.4801 7.99868 10.8694 8.47891 10.8694Z" fill="#0052B4"/>
<path d="M21.5219 10.8694C22.0021 10.8694 22.3914 10.4801 22.3914 9.99989C22.3914 9.51967 22.0021 9.13037 21.5219 9.13037C21.0416 9.13037 20.6523 9.51967 20.6523 9.99989C20.6523 10.4801 21.0416 10.8694 21.5219 10.8694Z" fill="#0052B4"/>
</svg>
