<svg width="30" height="20" viewBox="0 0 30 20" fill="none" xmlns="http://www.w3.org/2000/svg">
<path d="M30 0H0V20H30V0Z" fill="#F0F0F0"/>
<path d="M30 0H0V6.66643H30V0Z" fill="#D80027"/>
<path d="M30 13.333H0V19.9994H30V13.333Z" fill="black"/>
<path d="M10.9752 7.6084L11.5147 9.26899H13.2609L11.8482 10.2954L12.3878 11.9561L10.9752 10.9297L9.5625 11.9561L10.1021 10.2954L8.68945 9.26899H10.4356L10.9752 7.6084Z" fill="#6DA544"/>
<path d="M19.024 7.6084L19.5636 9.26899H21.3098L19.8971 10.2954L20.4367 11.9561L19.024 10.9297L17.6114 11.9561L18.151 10.2954L16.7383 9.26899H18.4845L19.024 7.6084Z" fill="#6DA544"/>
</svg>
