<svg width="30" height="20" viewBox="0 0 30 20" fill="none" xmlns="http://www.w3.org/2000/svg">
<path d="M30 0H0V20H30V0Z" fill="#D80027"/>
<path d="M15 0H0V10H15V0Z" fill="#0052B4"/>
<path d="M10.924 5.00034L9.52498 5.65842L10.2699 7.01343L8.75078 6.72274L8.55824 8.25746L7.5001 7.12875L6.44189 8.25746L6.24941 6.72274L4.73025 7.01337L5.47521 5.65837L4.07617 5.00034L5.47521 4.34226L4.73025 2.98725L6.24941 3.27788L6.44195 1.74316L7.5001 2.87188L8.5583 1.74316L8.75078 3.27788L10.27 2.98725L9.52498 4.34226L10.924 5.00034Z" fill="#F0F0F0"/>
<path d="M7.50035 6.69999C8.439 6.69999 9.19992 5.93905 9.19992 5.00039C9.19992 4.06172 8.439 3.30078 7.50035 3.30078C6.5617 3.30078 5.80078 4.06172 5.80078 5.00039C5.80078 5.93905 6.5617 6.69999 7.50035 6.69999Z" fill="#0052B4"/>
<path d="M7.49947 6.13669C6.87299 6.13669 6.36328 5.62691 6.36328 5.00047C6.36328 4.37398 6.87305 3.86426 7.49947 3.86426C8.12596 3.86426 8.63566 4.37403 8.63566 5.00047C8.63566 5.62691 8.12596 6.13669 7.49947 6.13669Z" fill="#F0F0F0"/>
</svg>
