<svg width="30" height="20" viewBox="0 0 30 20" fill="none" xmlns="http://www.w3.org/2000/svg">
<path d="M30 0H0V20H30V0Z" fill="#F0F0F0"/>
<path d="M30 0H0V6.66665H30V0Z" fill="#D80027"/>
<path d="M30 13.333H0V19.9997H30V13.333Z" fill="#6DA544"/>
<path d="M13.2617 12.6085H16.7401V11.1302L16.0444 11.478L15.0009 10.4346L13.9574 11.478L13.2617 11.1302V12.6085Z" fill="#FFDA44"/>
<path d="M11.2717 10.8691L11.4336 11.3674H11.9574L11.5336 11.6753L11.6955 12.1735L11.2717 11.8656L10.8479 12.1735L11.0097 11.6753L10.5859 11.3674H11.1098L11.2717 10.8691Z" fill="#FFDA44"/>
<path d="M11.7737 9.13086L11.9356 9.62903H12.4594L12.0356 9.93695L12.1975 10.4352L11.7737 10.1273L11.3498 10.4352L11.5117 9.93695L11.0879 9.62903H11.6117L11.7737 9.13086Z" fill="#FFDA44"/>
<path d="M13.2073 7.82617L13.3692 8.32435H13.893L13.4692 8.63226L13.6311 9.13056L13.2073 8.82258L12.7834 9.13056L12.9453 8.63226L12.5215 8.32435H13.0453L13.2073 7.82617Z" fill="#FFDA44"/>
<path d="M18.7287 10.8691L18.5668 11.3674H18.043L18.4668 11.6753L18.3049 12.1735L18.7287 11.8656L19.1526 12.1735L18.9907 11.6753L19.4145 11.3674H18.8906L18.7287 10.8691Z" fill="#FFDA44"/>
<path d="M18.2267 9.13086L18.0648 9.62903H17.541L17.9648 9.93695L17.8029 10.4352L18.2267 10.1273L18.6506 10.4352L18.4887 9.93695L18.9125 9.62903H18.3887L18.2267 9.13086Z" fill="#FFDA44"/>
<path d="M16.7931 7.82617L16.6313 8.32435H16.1074L16.5312 8.63226L16.3693 9.13056L16.7931 8.82258L17.217 9.13056L17.0551 8.63226L17.4789 8.32435H16.9551L16.7931 7.82617Z" fill="#FFDA44"/>
<path d="M15.0002 7.17383L15.1621 7.67206H15.686L15.2621 7.98004L15.424 8.47821L15.0002 8.17035L14.5764 8.47821L14.7383 7.98004L14.3145 7.67206H14.8383L15.0002 7.17383Z" fill="#FFDA44"/>
</svg>
