<svg width="29" height="12" viewBox="0 0 29 12" fill="none" xmlns="http://www.w3.org/2000/svg">
<path d="M0.232955 11V0.818182H3.6733C4.47206 0.818182 5.125 0.962358 5.6321 1.25071C6.14252 1.53575 6.52036 1.92188 6.76562 2.40909C7.01089 2.89631 7.13352 3.43987 7.13352 4.03977C7.13352 4.63968 7.01089 5.1849 6.76562 5.67543C6.52367 6.16596 6.14915 6.55705 5.64205 6.84872C5.13494 7.13707 4.48532 7.28125 3.69318 7.28125H1.22727V6.1875H3.65341C4.20028 6.1875 4.63944 6.09304 4.97088 5.90412C5.30232 5.7152 5.54261 5.45999 5.69176 5.13849C5.84422 4.81368 5.92045 4.44744 5.92045 4.03977C5.92045 3.6321 5.84422 3.26752 5.69176 2.94602C5.54261 2.62453 5.30066 2.37263 4.96591 2.19034C4.63116 2.00473 4.18703 1.91193 3.63352 1.91193H1.46591V11H0.232955ZM12.0803 11.1591C11.3445 11.1591 10.7098 10.9967 10.1761 10.6719C9.64583 10.3438 9.23651 9.88636 8.94815 9.29972C8.66312 8.70975 8.5206 8.02367 8.5206 7.24148C8.5206 6.45928 8.66312 5.76989 8.94815 5.1733C9.23651 4.57339 9.63755 4.10606 10.1513 3.77131C10.6683 3.43324 11.2715 3.2642 11.9609 3.2642C12.3587 3.2642 12.7514 3.33049 13.1392 3.46307C13.527 3.59564 13.88 3.81108 14.1982 4.10938C14.5163 4.40436 14.7699 4.79545 14.9588 5.28267C15.1477 5.76989 15.2422 6.36979 15.2422 7.08239V7.57955H9.35582V6.56534H14.049C14.049 6.13447 13.9628 5.75 13.7905 5.41193C13.6214 5.07386 13.3795 4.80705 13.0646 4.61151C12.7531 4.41596 12.3852 4.31818 11.9609 4.31818C11.4936 4.31818 11.0893 4.43419 10.7479 4.66619C10.4098 4.89489 10.1496 5.19318 9.96733 5.56108C9.78504 5.92898 9.69389 6.32339 9.69389 6.74432V7.42045C9.69389 7.99716 9.79332 8.48603 9.99219 8.88707C10.1944 9.2848 10.4744 9.58807 10.8324 9.79688C11.1903 10.0024 11.6063 10.1051 12.0803 10.1051C12.3885 10.1051 12.6669 10.062 12.9155 9.97585C13.1674 9.88636 13.3845 9.75379 13.5668 9.57812C13.7491 9.39915 13.8899 9.17708 13.9893 8.91193L15.1229 9.23011C15.0036 9.61458 14.803 9.95265 14.5213 10.2443C14.2396 10.5327 13.8916 10.758 13.4773 10.9205C13.063 11.0795 12.5973 11.1591 12.0803 11.1591ZM17.027 11V3.36364H18.1605V4.51705H18.2401C18.3793 4.1392 18.6312 3.83262 18.9957 3.5973C19.3603 3.36198 19.7713 3.24432 20.2287 3.24432C20.3149 3.24432 20.4226 3.24597 20.5518 3.24929C20.6811 3.2526 20.7789 3.25758 20.8452 3.2642V4.45739C20.8054 4.44744 20.7143 4.43253 20.5717 4.41264C20.4325 4.38944 20.285 4.37784 20.1293 4.37784C19.758 4.37784 19.4266 4.45573 19.1349 4.61151C18.8466 4.76397 18.6179 4.97609 18.4489 5.24787C18.2831 5.51634 18.2003 5.82292 18.2003 6.16761V11H17.027ZM27.0485 7.87784V3.36364H28.2218V11H27.0485V9.70739H26.9689C26.79 10.0952 26.5115 10.425 26.1337 10.6967C25.7559 10.9652 25.2786 11.0994 24.7019 11.0994C24.2246 11.0994 23.8004 10.995 23.4292 10.7862C23.0579 10.5741 22.7663 10.2559 22.5542 9.83168C22.342 9.40412 22.236 8.86553 22.236 8.21591V3.36364H23.4093V8.13636C23.4093 8.69318 23.565 9.13731 23.8766 9.46875C24.1915 9.80019 24.5925 9.96591 25.0797 9.96591C25.3714 9.96591 25.668 9.89134 25.9696 9.74219C26.2746 9.59304 26.5298 9.36435 26.7353 9.05611C26.9441 8.74787 27.0485 8.35511 27.0485 7.87784Z" fill="#222222"/>
</svg>
