<svg width="30" height="20" viewBox="0 0 30 20" fill="none" xmlns="http://www.w3.org/2000/svg">
<path d="M30 0H0V20H30V0Z" fill="#FFDA44"/>
<path d="M28.696 1.30469H1.30469V18.696H28.696V1.30469Z" fill="#D80027"/>
<path d="M21.6862 18.6949H28.6956V14.5779L15 10.4609L18.2803 15.8209L21.6862 18.6949Z" fill="#0052B4"/>
<path d="M28.6956 4.78613L15 10.4612H28.6956V4.78613Z" fill="#0052B4"/>
<path d="M18.7945 1.30371L15 10.4609L24.1573 1.30371H18.7945Z" fill="#0052B4"/>
<path d="M11.2051 1.30371L14.9996 10.4609V1.30371H11.2051Z" fill="#0052B4"/>
<path d="M1.30469 1.30371V4.78578L15.0003 10.4609L5.84301 1.30371H1.30469Z" fill="#0052B4"/>
<path d="M1.30469 10.4609V14.5779L15.0003 10.4609H1.30469Z" fill="#0052B4"/>
<path d="M15.1448 10.6029L17.9993 12.5903C18.508 11.8597 18.7379 10.9352 18.5686 9.98973C18.23 8.09882 16.4226 6.84047 14.5318 7.17908C12.6408 7.51769 11.3825 9.32505 11.7211 11.2159C11.8903 12.1614 12.4268 12.9486 13.1574 13.4573L15.1448 10.6029Z" fill="#FFDA44"/>
<path d="M28.8405 18.6894H1.44922L15.1449 10.6025L28.8405 18.6894Z" fill="#F0F0F0"/>
<path d="M16.522 15.6086C16.522 16.4491 15.8407 16.6956 15.0003 16.6956C14.1598 16.6956 13.4785 16.4491 13.4785 15.6086C13.4785 14.7682 14.1598 14.0869 15.0003 14.0869C15.8407 14.087 16.522 14.7682 16.522 15.6086Z" fill="#FFDA44"/>
<path d="M16.522 15.6084C16.522 16.4489 15.8407 17.1301 15.0003 17.1301C14.1598 17.1301 13.4785 16.4488 13.4785 15.6084" fill="#0052B4"/>
</svg>
