<svg width="30" height="20" viewBox="0 0 30 20" fill="none" xmlns="http://www.w3.org/2000/svg">
<path d="M30 0H0V20H30V0Z" fill="#0052B4"/>
<path d="M12.347 5.21777L12.5628 5.88212H13.2612L12.6962 6.29264L12.9121 6.95693L12.347 6.54636L11.7819 6.95693L11.9978 6.29264L11.4326 5.88212H12.1311L12.347 5.21777Z" fill="#F0F0F0"/>
<path d="M6.84502 11.5215L7.11484 12.3519H7.98789L7.28154 12.865L7.55143 13.6955L6.84502 13.1822L6.13867 13.6955L6.40844 12.865L5.70215 12.3519H6.57514L6.84502 11.5215Z" fill="#F0F0F0"/>
<path d="M8.47783 2.0127L8.7476 2.8431H9.6207L8.9143 3.35628L9.18418 4.18663L8.47783 3.67339L7.77143 4.18663L8.04131 3.35628L7.33496 2.8431H8.20801L8.47783 2.0127Z" fill="#F0F0F0"/>
<path d="M4.07451 5.27344L4.34428 6.10385H5.21732L4.51098 6.61702L4.78086 7.44737L4.07451 6.9342L3.36811 7.44737L3.63799 6.61702L2.93164 6.10385H3.80469L4.07451 5.27344Z" fill="#F0F0F0"/>
<path d="M28.3233 15.772H6.90234C6.90234 15.772 13.3028 10.5827 25.1012 2.82617C25.1012 2.82617 19.9189 10.3811 28.3233 15.772Z" fill="#FFDA44"/>
<path d="M6.90271 16.4502C6.2478 16.4502 6.24675 17.468 6.90271 17.468H28.3237C28.9786 17.468 28.9797 16.4502 28.3237 16.4502H6.90271Z" fill="#FFDA44"/>
</svg>
