<svg width="30" height="20" viewBox="0 0 30 20" fill="none" xmlns="http://www.w3.org/2000/svg">
<path d="M30 0H0V20H30V0Z" fill="#D80027"/>
<path d="M15 15.6249C18.1066 15.6249 20.625 13.1065 20.625 9.99994C20.625 6.89337 18.1066 4.375 15 4.375C11.8934 4.375 9.375 6.89337 9.375 9.99994C9.375 13.1065 11.8934 15.6249 15 15.6249Z" fill="#F0F0F0"/>
<path d="M15.6928 7.84961L16.6579 9.17938L18.2207 8.67261L17.2542 10.0013L18.2191 11.331L16.6568 10.8224L15.6903 12.151L15.6913 10.5081L14.1289 9.99939L15.6918 9.49268L15.6928 7.84961Z" fill="#D80027"/>
<path d="M16.2775 13.3238C14.4418 13.3238 12.9537 11.8357 12.9537 9.99998C12.9537 8.16425 14.4418 6.67616 16.2775 6.67616C16.8499 6.67616 17.3884 6.82089 17.8587 7.07571C17.121 6.35443 16.1123 5.90918 14.9991 5.90918C12.7398 5.90918 10.9082 7.74074 10.9082 10C10.9082 12.2593 12.7398 14.0909 14.9991 14.0909C16.1123 14.0909 17.1211 13.6456 17.8587 12.9244C17.3884 13.1791 16.8499 13.3238 16.2775 13.3238Z" fill="#D80027"/>
</svg>
