<svg width="30" height="20" viewBox="0 0 30 20" fill="none" xmlns="http://www.w3.org/2000/svg">
<path d="M30 0H0V20H30V0Z" fill="#D80027"/>
<path d="M14.4851 7.70215L15.516 9.12284L17.1855 8.58148L16.1531 10.0009L17.1838 11.4215L15.5149 10.8781L14.4824 12.2975L14.4834 10.5423L12.8145 9.99884L14.484 9.45748L14.4851 7.70215Z" fill="#F0F0F0"/>
<path d="M11.6715 13.5513C9.71045 13.5513 8.12063 11.9614 8.12063 10.0003C8.12063 8.03919 9.71045 6.44933 11.6715 6.44933C12.283 6.44933 12.8583 6.60397 13.3606 6.87614C12.5726 6.1055 11.495 5.62988 10.3058 5.62988C7.89217 5.62988 5.93555 7.5866 5.93555 10.0003C5.93555 12.4139 7.89223 14.3706 10.3058 14.3706C11.495 14.3706 12.5726 13.895 13.3606 13.1244C12.8583 13.3967 12.283 13.5513 11.6715 13.5513Z" fill="#F0F0F0"/>
</svg>
