<svg width="30" height="20" viewBox="0 0 30 20" fill="none" xmlns="http://www.w3.org/2000/svg">
<path d="M30 0H0V19.9998H30V0Z" fill="#0052B4"/>
<path d="M19.457 6.25V10.8332C19.457 13.0657 22.5005 13.7499 22.5005 13.7499C22.5005 13.7499 25.544 13.0658 25.544 10.8332V6.25H19.457Z" fill="#FFDA44"/>
<path d="M22.0652 7.91631C22.0652 8.37656 21.6759 9.58298 21.1957 9.58298C20.7155 9.58298 20.3262 8.37662 20.3262 7.91631C20.3262 7.45601 21.1957 7.08301 21.1957 7.08301C21.1957 7.08301 22.0652 7.45607 22.0652 7.91631Z" fill="#FF9811"/>
<path d="M24.3731 8.82391C24.5134 8.49579 24.6226 8.01621 24.6226 7.77745C24.6226 7.3939 24.1009 7.08301 24.1009 7.08301C24.1009 7.08301 23.5791 7.3939 23.5791 7.77745C23.5791 8.01621 23.6882 8.49579 23.8286 8.82391L23.5273 9.47564C23.7044 9.54466 23.8979 9.58292 24.1009 9.58292C24.3038 9.58292 24.4973 9.5446 24.6744 9.47564L24.3731 8.82391Z" fill="#A2001D"/>
<path d="M21.8469 10.8327C21.8469 10.8327 21.4121 11.666 21.4121 12.4993C21.4121 12.4993 22.7165 12.4993 23.586 12.4993C23.586 11.666 23.1512 10.8327 23.1512 10.8327L22.499 10.416L21.8469 10.8327Z" fill="#6DA544"/>
<path d="M23.152 10.8332V10.6249C23.152 10.2798 22.86 10 22.4998 10C22.1396 10 21.8477 10.2798 21.8477 10.6249V10.8332H23.152Z" fill="#D80027"/>
<path d="M15 0V1.79018L12.3535 3.2608H15V6.7388H11.5369L15 8.66268V9.99959H13.4367L9.13043 7.60749V9.99959H5.86957V7.15357L0.746719 9.99959H0V8.20935L2.6465 6.7388H0V3.2608H3.46307L0 1.33626V0H1.56328L5.86957 2.39204V0H9.13043V2.84596L14.2533 0H15Z" fill="#F0F0F0"/>
<path d="M8.4375 0H6.5625V4.06234H0V5.93731H6.5625V9.99977H8.4375V5.93731H15V4.06234H8.4375V0Z" fill="#D80027"/>
<path d="M9.13086 6.73926L15.0004 10.0001V9.07798L10.7906 6.73926H9.13086Z" fill="#0052B4"/>
<path d="M9.13086 6.73926L15.0004 10.0001V9.07798L10.7906 6.73926H9.13086Z" fill="#F0F0F0"/>
<path d="M9.13086 6.73926L15.0004 10.0001V9.07798L10.7906 6.73926H9.13086Z" fill="#D80027"/>
<path d="M4.20973 6.73926L0 9.07798V10.0001L5.86957 6.73926H4.20973Z" fill="#D80027"/>
<path d="M5.86957 3.2608L0 0V0.922072L4.20979 3.2608H5.86957Z" fill="#0052B4"/>
<path d="M5.86957 3.2608L0 0V0.922072L4.20979 3.2608H5.86957Z" fill="#F0F0F0"/>
<path d="M5.86957 3.2608L0 0V0.922072L4.20979 3.2608H5.86957Z" fill="#D80027"/>
<path d="M10.7907 3.2608L15.0004 0.922072V0L9.13086 3.2608H10.7907Z" fill="#D80027"/>
</svg>
