<svg width="30" height="20" viewBox="0 0 30 20" fill="none" xmlns="http://www.w3.org/2000/svg">
<path d="M30 0H0V20H30V0Z" fill="#496E2D"/>
<path d="M20.9305 5.76195C21.4225 4.3906 20.8698 2.89912 19.6836 2.15625C19.8969 2.18402 20.1105 2.23424 20.3213 2.30983C21.9034 2.8775 22.7259 4.62011 22.1582 6.20235C21.5905 7.78459 19.848 8.60698 18.2658 8.03931C18.055 7.96366 17.8581 7.86663 17.6758 7.75248C19.0636 7.93319 20.4385 7.13337 20.9305 5.76195Z" fill="#F0F0F0"/>
<path d="M18.2012 1.78125L17.7737 2.33363L17.1162 2.09772L17.5095 2.675L17.082 3.22737L17.7525 3.03178L18.1458 3.60906L18.167 2.91096L18.8375 2.71531L18.18 2.47947L18.2012 1.78125Z" fill="#F0F0F0"/>
<path d="M19.3555 3.58105L18.928 4.13343L18.2705 3.89753L18.6638 4.4748L18.2363 5.02718L18.9068 4.83153L19.3001 5.40887L19.3212 4.71071L19.9918 4.515L19.3343 4.27921L19.3555 3.58105Z" fill="#F0F0F0"/>
<path d="M16.166 2.43652L15.7385 2.9889L15.0812 2.75311L15.4744 3.33033L15.0469 3.88265L15.7174 3.68706L16.1106 4.26434L16.1318 3.56618L16.8023 3.37065L16.1449 3.13468L16.166 2.43652Z" fill="#F0F0F0"/>
<path d="M16.1192 4.49805L15.6917 5.05042L15.0342 4.81452L15.4275 5.3918L15 5.94417L15.6705 5.74858L16.0638 6.32586L16.085 5.6277L16.7555 5.43211L16.098 5.19621L16.1192 4.49805Z" fill="#F0F0F0"/>
<path d="M18.0821 5.20215L17.6546 5.75452L16.9972 5.51862L17.3904 6.09596L16.9629 6.64827L17.6334 6.45268L18.0267 7.02996L18.0478 6.3318L18.7183 6.13621L18.0609 5.90037L18.0821 5.20215Z" fill="#F0F0F0"/>
<path d="M10.108 0H4.89062V20H10.108V0Z" fill="#D80027"/>
<path d="M6.88328 5.2646L6.00977 4.6139V3.69367L6.88328 3.04297H8.11867L8.99219 3.69367V4.6139L8.11867 5.2646H6.88328Z" fill="#F0F0F0"/>
<path d="M7.50098 3.04297H6.88328L6.00977 3.69367V4.14356H7.50098V3.04297Z" fill="#FF9811"/>
<path d="M7.5 5.26469H8.1177L8.99121 4.61399V4.14453H7.5V5.26469Z" fill="#FF9811"/>
<path d="M6.88328 16.957L6.00977 16.3062V15.386L6.88328 14.7354H8.11867L8.99219 15.386V16.3062L8.11867 16.957H6.88328Z" fill="#F0F0F0"/>
<path d="M7.50098 14.7354H6.88328L6.00977 15.386V15.8359H7.50098V14.7354Z" fill="#FF9811"/>
<path d="M7.5 16.9571H8.1177L8.99121 16.3063V15.8369H7.5V16.9571Z" fill="#FF9811"/>
<path d="M6.88328 11.1112L6.00977 10.4605V9.5404L6.88328 8.88965H8.11867L8.99219 9.5404V10.4605L8.11867 11.1112H6.88328Z" fill="#496E2D"/>
<path d="M9.02199 12.5427H8.64154V12.1622H7.97293L7.5002 11.6895L7.02752 12.1622H6.35897V12.5427H5.97852V13.3036H6.35897V13.684H7.02752L7.50025 14.1568L7.97299 13.684H8.64154V13.3036H9.02199V12.5427Z" fill="#496E2D"/>
<path d="M9.02199 6.69695H8.64154V6.31655H7.97293L7.5002 5.84375L7.02752 6.31655H6.35897V6.69695H5.97852V7.45787H6.35897V7.83827H7.02752L7.50025 8.31113L7.97299 7.83827H8.64154V7.45787H9.02199V6.69695Z" fill="#496E2D"/>
<path d="M7.93398 9.56543H7.06445V10.435H7.93398V9.56543Z" fill="#D80027"/>
<path d="M7.49928 7.51127C7.73942 7.51127 7.9341 7.31659 7.9341 7.07644C7.9341 6.83628 7.73942 6.6416 7.49928 6.6416C7.25913 6.6416 7.06445 6.83628 7.06445 7.07644C7.06445 7.31659 7.25913 7.51127 7.49928 7.51127Z" fill="#D80027"/>
<path d="M7.49928 13.3579C7.73942 13.3579 7.9341 13.1633 7.9341 12.9231C7.9341 12.683 7.73942 12.4883 7.49928 12.4883C7.25913 12.4883 7.06445 12.683 7.06445 12.9231C7.06445 13.1633 7.25913 13.3579 7.49928 13.3579Z" fill="#D80027"/>
</svg>
