<svg width="30" height="20" viewBox="0 0 30 20" fill="none" xmlns="http://www.w3.org/2000/svg">
<path d="M30 0H0V19.9998H30V0Z" fill="#338AF3"/>
<path d="M18.8498 14.5645L19.0657 15.2288H19.7642L19.1991 15.6393L19.415 16.3036L18.8498 15.893L18.2848 16.3036L18.5006 15.6393L17.9355 15.2288H18.634L18.8498 14.5645Z" fill="#FFDA44"/>
<path d="M24.4124 10.2168L24.6283 10.8811H25.3267L24.7616 11.2916L24.9775 11.9559L24.4124 11.5454L23.8473 11.9559L24.0632 11.2916L23.498 10.8811H24.1965L24.4124 10.2168Z" fill="#FFDA44"/>
<path d="M25.8049 3.69531L26.0208 4.35958H26.7193L26.1542 4.77014L26.3701 5.4344L25.8049 5.02384L25.2398 5.4344L25.4557 4.77014L24.8906 4.35958H25.5891L25.8049 3.69531Z" fill="#FFDA44"/>
<path d="M26.1507 8.47852L26.3665 9.14284H27.065L26.5 9.55334L26.7158 10.2176L26.1507 9.80705L25.5856 10.2176L25.8015 9.55334L25.2363 9.14284H25.9348L26.1507 8.47852Z" fill="#FFDA44"/>
<path d="M19.8506 13.0029L20.473 13.3201L20.9669 12.8262L20.8576 13.516L21.48 13.8331L20.79 13.9424L20.6808 14.6322L20.3637 14.0099L19.6738 14.1192L20.1678 13.6253L19.8506 13.0029Z" fill="#FFDA44"/>
<path d="M19.8506 10.3936L20.473 10.7107L20.9669 10.2168L20.8576 10.9067L21.48 11.2237L20.79 11.333L20.6808 12.0229L20.3637 11.4005L19.6738 11.5098L20.1678 11.0159L19.8506 10.3936Z" fill="#FFDA44"/>
<path d="M22.0244 12.0665L22.6468 12.3835L23.1407 11.8896L23.0315 12.5795L23.6538 12.8966L22.9638 13.0059L22.8546 13.6958L22.5375 13.0734L21.8477 13.1827L22.3415 12.6889L22.0244 12.0665Z" fill="#FFDA44"/>
<path d="M22.0244 6.48054L22.6468 6.79759L23.1407 6.30371L23.0315 6.99358L23.6538 7.31068L22.9638 7.41996L22.8546 8.10983L22.5375 7.48746L21.8477 7.59679L22.3415 7.10286L22.0244 6.48054Z" fill="#FFDA44"/>
<path d="M24.1318 6.41408L24.7542 6.73112L25.2481 6.2373L25.1388 6.92712L25.7612 7.24422L25.0712 7.35349L24.962 8.04336L24.645 7.42099L23.9551 7.53027L24.449 7.03639L24.1318 6.41408Z" fill="#FFDA44"/>
<path d="M15 0H0V9.99959H15V0Z" fill="#F0F0F0"/>
<path d="M8.4375 0H6.5625V4.0624H0V5.93737H6.5625V9.99977H8.4375V5.93737H15V4.0624H8.4375V0Z" fill="#D80027"/>
<path d="M11.5371 6.73926L15.0005 8.66332V6.73926H11.5371Z" fill="#0052B4"/>
<path d="M9.13086 6.73926L15.0004 10.0001V9.07798L10.7906 6.73926H9.13086Z" fill="#0052B4"/>
<path d="M13.437 9.99988L9.13086 7.60742V9.99988H13.437Z" fill="#0052B4"/>
<path d="M9.13086 6.73926L15.0004 10.0001V9.07798L10.7906 6.73926H9.13086Z" fill="#F0F0F0"/>
<path d="M9.13086 6.73926L15.0004 10.0001V9.07798L10.7906 6.73926H9.13086Z" fill="#D80027"/>
<path d="M2.64674 6.73926L0 8.2097V6.73926H2.64674Z" fill="#0052B4"/>
<path d="M5.86889 7.15332V9.99946H0.746094L5.86889 7.15332Z" fill="#0052B4"/>
<path d="M4.20973 6.73926L0 9.07798V10.0001L5.86957 6.73926H4.20973Z" fill="#D80027"/>
<path d="M3.46336 3.26098L0 1.33691V3.26098H3.46336Z" fill="#0052B4"/>
<path d="M5.86957 3.2608L0 0V0.922072L4.20979 3.2608H5.86957Z" fill="#0052B4"/>
<path d="M1.56445 0L5.87057 2.39245V0H1.56445Z" fill="#0052B4"/>
<path d="M5.86957 3.2608L0 0V0.922072L4.20979 3.2608H5.86957Z" fill="#F0F0F0"/>
<path d="M5.86957 3.2608L0 0V0.922072L4.20979 3.2608H5.86957Z" fill="#D80027"/>
<path d="M12.3535 3.26042L15.0003 1.79004V3.26042H12.3535Z" fill="#0052B4"/>
<path d="M9.13086 2.84614V0H14.2537L9.13086 2.84614Z" fill="#0052B4"/>
<path d="M10.7907 3.2608L15.0004 0.922072V0L9.13086 3.2608H10.7907Z" fill="#D80027"/>
</svg>
