<svg width="30" height="20" viewBox="0 0 30 20" fill="none" xmlns="http://www.w3.org/2000/svg">
<path d="M30 0H0V20H30V0Z" fill="black"/>
<path d="M30 3.33301H0V6.66636H30V3.33301Z" fill="#FFDA44"/>
<path d="M30 6.66699H0V10.0003H30V6.66699Z" fill="#D80027"/>
<path d="M30 13.333H0V16.6664H30V13.333Z" fill="#FFDA44"/>
<path d="M30 16.667H0V20.0003H30V16.667Z" fill="#D80027"/>
<path d="M14.9993 13.3375C16.8423 13.3375 18.3364 11.8434 18.3364 10.0003C18.3364 8.15721 16.8423 6.66309 14.9993 6.66309C13.1562 6.66309 11.6621 8.15721 11.6621 10.0003C11.6621 11.8434 13.1562 13.3375 14.9993 13.3375Z" fill="#F0F0F0"/>
<path d="M16.2232 10.1704L15.0008 9.64065C15.0008 9.64065 15.2868 8.69136 15.302 8.62637C15.3132 8.57891 15.3191 8.5294 15.3191 8.47854C15.3191 8.29842 15.2462 8.13535 15.1281 8.0174L15.4356 7.70995C15.2389 7.51324 14.9672 7.3916 14.667 7.3916C14.3668 7.3916 14.0951 7.51324 13.8984 7.70995L14.2059 8.0174C14.0878 8.13541 14.0148 8.29842 14.0148 8.47854C14.0148 8.5444 14.0248 8.60786 14.043 8.6678L13.5801 9.1307H14.4213C14.4213 9.1307 14.0735 9.65308 13.8837 10.0821C13.6938 10.5111 13.8863 11.0348 14.3251 11.2299L14.5788 11.3426L15.0008 11.7394V12.1742L14.566 12.609H15.4355V11.7395L15.8322 11.3427H16.6528C16.6568 11.3346 16.6609 11.3266 16.6646 11.3183C16.8597 10.8792 16.6621 10.3654 16.2232 10.1704Z" fill="black"/>
</svg>
