<svg width="30" height="20" viewBox="0 0 30 20" fill="none" xmlns="http://www.w3.org/2000/svg">
<path d="M30 0H0V20H30V0Z" fill="#338AF3"/>
<path d="M15.0143 6.5459C13.1025 6.5459 11.5527 8.09563 11.5527 10.0074C11.5527 11.9192 13.1025 13.4689 15.0143 13.4689C16.926 13.4689 18.4758 11.9192 18.4758 10.0074C18.4758 8.09563 16.926 6.5459 15.0143 6.5459ZM14.1488 10.0074C14.1488 9.52952 14.5363 9.14204 15.0142 9.14204C15.4921 9.14204 15.8796 9.52952 15.8796 10.0074C15.8796 10.4854 15.4921 10.8728 15.0142 10.8728C14.5363 10.8728 14.1488 10.4853 14.1488 10.0074ZM15.9115 8.52705C15.7772 8.44549 15.6307 8.38215 15.4757 8.33932V7.45298C15.8661 7.523 16.2259 7.68009 16.5348 7.90368L15.9115 8.52705ZM14.6104 8.32449C14.448 8.36328 14.2946 8.42498 14.1536 8.50601L13.5273 7.87971C13.8439 7.65805 14.212 7.50489 14.6103 7.44261V8.32449H14.6104ZM14.1536 11.5088C14.2946 11.5897 14.448 11.6514 14.6103 11.6903V12.5721C14.212 12.5099 13.844 12.3567 13.5273 12.135L14.1536 11.5088ZM15.4758 11.6755C15.6308 11.6327 15.7772 11.5693 15.9115 11.4878L16.5348 12.1111C16.2259 12.3347 15.866 12.4918 15.4757 12.5618V11.6755H15.4758ZM16.5156 10.868C16.5918 10.7354 16.6513 10.5918 16.6905 10.4401H17.5738C17.5087 10.8273 17.3581 11.1853 17.1418 11.4942L16.5156 10.868ZM16.6905 9.57469C16.6514 9.42294 16.5919 9.27944 16.5156 9.14679L17.1419 8.52049C17.3583 8.82939 17.5088 9.18739 17.5739 9.57463H16.6905V9.57469ZM12.9106 8.4868L13.5339 9.11011C13.4472 9.25272 13.3806 9.40887 13.338 9.57463H12.4547C12.5221 9.17327 12.6815 8.80332 12.9106 8.4868ZM12.4547 10.4401H13.338C13.3807 10.6058 13.4473 10.762 13.534 10.9046L12.9106 11.5279C12.6815 11.2115 12.5221 10.8415 12.4547 10.4401Z" fill="#F0F0F0"/>
<path d="M20.6386 10.0067C20.6386 8.46812 20.0206 7.07401 19.0196 6.05842L18.1017 6.97628C18.8679 7.75691 19.3406 8.82653 19.3406 10.0067C19.3406 12.3964 17.4033 14.3336 15.0137 14.3336C12.6239 14.3336 10.6868 12.3964 10.6868 10.0067C10.6868 8.81183 11.171 7.73014 11.9541 6.94716L11.0362 6.0293C10.0183 7.04718 9.38867 8.45347 9.38867 10.0067C9.38867 12.5808 11.1177 14.7509 13.4778 15.4194C13.2191 15.9109 13.2584 16.5298 13.628 16.991C14.1134 16.6019 14.6161 16.1991 15.0425 15.8574C15.4689 16.1991 15.9715 16.6018 16.457 16.991C16.8303 16.5251 16.8671 15.8984 16.5996 15.4045C18.9338 14.7198 20.6386 12.5625 20.6386 10.0067Z" fill="#F0F0F0"/>
</svg>
