<svg width="30" height="20" viewBox="0 0 30 20" fill="none" xmlns="http://www.w3.org/2000/svg">
<path d="M30 0H0V20H30V0Z" fill="#F0F0F0"/>
<path d="M30 2.5H0V4.99976H30V2.5Z" fill="#D80027"/>
<path d="M30 7.5H0V9.99976H30V7.5Z" fill="#D80027"/>
<path d="M30 12.499H0V14.9988H30V12.499Z" fill="#D80027"/>
<path d="M30 17.5H0V19.9998H30V17.5Z" fill="#D80027"/>
<path d="M15 0H0V10.7692H15V0Z" fill="#2E52B2"/>
<path d="M5.84916 4.41211L5.60758 5.1553H4.82617L5.45846 5.61438L5.21687 6.35752L5.84916 5.89844L6.48104 6.35752L6.23951 5.61438L6.8718 5.1553H6.09033L5.84916 4.41211Z" fill="#F0F0F0"/>
<path d="M6.09033 7.83689L5.84916 7.09375L5.60758 7.83689H4.82617L5.45846 8.29602L5.21687 9.03916L5.84916 8.58002L6.48104 9.03916L6.23951 8.29602L6.8718 7.83689H6.09033Z" fill="#F0F0F0"/>
<path d="M2.78766 7.83689L2.54643 7.09375L2.30484 7.83689H1.52344L2.15572 8.29602L1.91414 9.03916L2.54643 8.58002L3.17836 9.03916L2.93684 8.29602L3.569 7.83689H2.78766Z" fill="#F0F0F0"/>
<path d="M2.54643 4.41211L2.30484 5.1553H1.52344L2.15572 5.61438L1.91414 6.35752L2.54643 5.89844L3.17836 6.35752L2.93684 5.61438L3.569 5.1553H2.78766L2.54643 4.41211Z" fill="#F0F0F0"/>
<path d="M5.84916 1.72949L5.60758 2.47275H4.82617L5.45846 2.93188L5.21687 3.67502L5.84916 3.21588L6.48104 3.67502L6.23951 2.93188L6.8718 2.47275H6.09033L5.84916 1.72949Z" fill="#F0F0F0"/>
<path d="M2.54643 1.72949L2.30484 2.47275H1.52344L2.15572 2.93188L1.91414 3.67502L2.54643 3.21588L3.17836 3.67502L2.93684 2.93188L3.569 2.47275H2.78766L2.54643 1.72949Z" fill="#F0F0F0"/>
<path d="M9.15184 4.41211L8.91031 5.1553H8.12891L8.76113 5.61438L8.51967 6.35752L9.15184 5.89844L9.78383 6.35752L9.54225 5.61438L10.1745 5.1553H9.39312L9.15184 4.41211Z" fill="#F0F0F0"/>
<path d="M9.39312 7.83689L9.15184 7.09375L8.91031 7.83689H8.12891L8.76113 8.29602L8.51967 9.03916L9.15184 8.58002L9.78383 9.03916L9.54225 8.29602L10.1745 7.83689H9.39312Z" fill="#F0F0F0"/>
<path d="M12.6958 7.83689L12.4546 7.09375L12.213 7.83689H11.4316L12.0638 8.29602L11.8223 9.03916L12.4546 8.58002L13.0865 9.03916L12.8449 8.29602L13.4772 7.83689H12.6958Z" fill="#F0F0F0"/>
<path d="M12.4546 4.41211L12.213 5.1553H11.4316L12.0638 5.61438L11.8223 6.35752L12.4546 5.89844L13.0865 6.35752L12.8449 5.61438L13.4772 5.1553H12.6958L12.4546 4.41211Z" fill="#F0F0F0"/>
<path d="M9.15184 1.72949L8.91031 2.47275H8.12891L8.76113 2.93188L8.51967 3.67502L9.15184 3.21588L9.78383 3.67502L9.54225 2.93188L10.1745 2.47275H9.39312L9.15184 1.72949Z" fill="#F0F0F0"/>
<path d="M12.4546 1.72949L12.213 2.47275H11.4316L12.0638 2.93188L11.8223 3.67502L12.4546 3.21588L13.0865 3.67502L12.8449 2.93188L13.4772 2.47275H12.6958L12.4546 1.72949Z" fill="#F0F0F0"/>
</svg>
