<svg width="30" height="20" viewBox="0 0 30 20" fill="none" xmlns="http://www.w3.org/2000/svg">
<path d="M30 0H0V19.9998H30V0Z" fill="#F0F0F0"/>
<path d="M16.875 0H13.125V8.1248H0V11.8747H13.125V19.9995H16.875V11.8747H30V8.1248H16.875V0Z" fill="#D80027"/>
<path d="M23.0742 13.4775L30.0009 17.3257V13.4775H23.0742Z" fill="#0052B4"/>
<path d="M18.2617 13.4775L30.0009 19.9991V18.155L21.5813 13.4775H18.2617Z" fill="#0052B4"/>
<path d="M26.8739 19.9998L18.2617 15.2148V19.9998H26.8739Z" fill="#0052B4"/>
<path d="M18.2617 13.4775L30.0009 19.9991V18.155L21.5813 13.4775H18.2617Z" fill="#F0F0F0"/>
<path d="M18.2617 13.4775L30.0009 19.9991V18.155L21.5813 13.4775H18.2617Z" fill="#D80027"/>
<path d="M5.29341 13.4775L0 16.4183V13.4775H5.29341Z" fill="#0052B4"/>
<path d="M11.7397 14.3076V19.9999H1.49414L11.7397 14.3076Z" fill="#0052B4"/>
<path d="M8.41951 13.4775L0 18.155V19.9991L11.7391 13.4775H8.41951Z" fill="#D80027"/>
<path d="M6.92665 6.52196L0 2.67383V6.52196H6.92665Z" fill="#0052B4"/>
<path d="M11.7391 6.52159L0 0V1.84414L8.41951 6.52159H11.7391Z" fill="#0052B4"/>
<path d="M3.12695 0L11.7392 4.78491V0H3.12695Z" fill="#0052B4"/>
<path d="M11.7391 6.52159L0 0V1.84414L8.41951 6.52159H11.7391Z" fill="#F0F0F0"/>
<path d="M11.7391 6.52159L0 0V1.84414L8.41951 6.52159H11.7391Z" fill="#D80027"/>
<path d="M24.707 6.52182L30.0004 3.58105V6.52182H24.707Z" fill="#0052B4"/>
<path d="M18.2617 5.69233V0H28.5072L18.2617 5.69233Z" fill="#0052B4"/>
<path d="M21.5813 6.52159L30.0009 1.84414V0L18.2617 6.52159H21.5813Z" fill="#D80027"/>
</svg>
