<svg width="30" height="20" viewBox="0 0 30 20" fill="none" xmlns="http://www.w3.org/2000/svg">
<path d="M30 0H0V20H30V0Z" fill="#F0F0F0"/>
<path d="M30 0H0V2.85721H30V0Z" fill="#338AF3"/>
<path d="M30 5.71484H0V8.57205H30V5.71484Z" fill="#338AF3"/>
<path d="M30 11.4287H0V14.2859H30V11.4287Z" fill="#338AF3"/>
<path d="M30 17.1426H0V19.9998H30V17.1426Z" fill="#338AF3"/>
<path d="M15 0H0V11.429H15V0Z" fill="#F0F0F0"/>
<path d="M11.25 5.71387L9.71771 6.43464L10.5336 7.91868L8.86975 7.60033L8.65893 9.28125L7.5 8.04501L6.34102 9.28125L6.13025 7.60033L4.46637 7.91862L5.28229 6.43464L3.75 5.71387L5.28229 4.99309L4.46637 3.50911L6.1302 3.8274L6.34107 2.14648L7.5 3.38278L8.65898 2.14648L8.86975 3.8274L10.5337 3.50911L9.71771 4.99315L11.25 5.71387Z" fill="#FFDA44"/>
</svg>
