<svg width="30" height="20" viewBox="0 0 30 20" fill="none" xmlns="http://www.w3.org/2000/svg">
<path d="M30 0H0V20H30V0Z" fill="#D80027"/>
<path d="M30 13.9131H0V19.9999H30V13.9131Z" fill="#6DA544"/>
<path d="M30 0H0V6.12406H30V0Z" fill="#338AF3"/>
<path d="M30 7.35645H0V12.6098H30V7.35645Z" fill="#F0F0F0"/>
<path d="M30 0H0V6.12406H30V0Z" fill="#338AF3"/>
<path d="M11.0553 3.06201C11.0553 2.12543 11.7135 1.3429 12.5925 1.151C12.4574 1.12152 12.3173 1.10547 12.1733 1.10547C11.0927 1.10547 10.2168 1.98141 10.2168 3.06201C10.2168 4.14262 11.0927 5.01856 12.1733 5.01856C12.3173 5.01856 12.4575 5.00256 12.5925 4.97303C11.7135 4.78113 11.0553 3.9986 11.0553 3.06201Z" fill="#F0F0F0"/>
<path d="M13.7485 3.95117L13.881 4.35882H14.3096L13.9629 4.61083L14.0954 5.01842L13.7485 4.76646L13.4018 5.01842L13.5343 4.61083L13.1875 4.35882H13.6161L13.7485 3.95117Z" fill="#F0F0F0"/>
<path d="M15.1177 3.95117L15.2501 4.35882H15.6787L15.332 4.61083L15.4644 5.01842L15.1177 4.76646L14.7709 5.01842L14.9033 4.61083L14.5566 4.35882H14.9852L15.1177 3.95117Z" fill="#F0F0F0"/>
<path d="M16.4849 3.95117L16.6173 4.35882H17.046L16.6993 4.61083L16.8317 5.01842L16.4849 4.76646L16.1382 5.01842L16.2706 4.61083L15.9238 4.35882H16.3524L16.4849 3.95117Z" fill="#F0F0F0"/>
<path d="M17.854 3.95117L17.9865 4.35882H18.4152L18.0683 4.61083L18.2008 5.01842L17.854 4.76646L17.5072 5.01842L17.6398 4.61083L17.293 4.35882H17.7215L17.854 3.95117Z" fill="#F0F0F0"/>
<path d="M19.2212 3.95117L19.3536 4.35882H19.7822L19.4355 4.61083L19.5679 5.01842L19.2212 4.76646L18.8744 5.01842L19.0069 4.61083L18.6602 4.35882H19.0887L19.2212 3.95117Z" fill="#F0F0F0"/>
<path d="M15.1177 2.52832L15.2501 2.93591H15.6787L15.332 3.18787L15.4644 3.59551L15.1177 3.34361L14.7709 3.59551L14.9033 3.18787L14.5566 2.93591H14.9852L15.1177 2.52832Z" fill="#F0F0F0"/>
<path d="M16.4849 2.52832L16.6173 2.93591H17.046L16.6993 3.18787L16.8317 3.59551L16.4849 3.34361L16.1382 3.59551L16.2706 3.18787L15.9238 2.93591H16.3524L16.4849 2.52832Z" fill="#F0F0F0"/>
<path d="M17.854 2.52832L17.9865 2.93591H18.4152L18.0683 3.18787L18.2008 3.59551L17.854 3.34361L17.5072 3.59551L17.6398 3.18787L17.293 2.93591H17.7215L17.854 2.52832Z" fill="#F0F0F0"/>
<path d="M19.2212 2.52832L19.3536 2.93591H19.7822L19.4355 3.18787L19.5679 3.59551L19.2212 3.34361L18.8744 3.59551L19.0069 3.18787L18.6602 2.93591H19.0887L19.2212 2.52832Z" fill="#F0F0F0"/>
<path d="M16.4849 1.10547L16.6173 1.51306H17.046L16.6993 1.76501L16.8317 2.17266L16.4849 1.9207L16.1382 2.17266L16.2706 1.76501L15.9238 1.51306H16.3524L16.4849 1.10547Z" fill="#F0F0F0"/>
<path d="M17.854 1.10547L17.9865 1.51306H18.4152L18.0683 1.76501L18.2008 2.17266L17.854 1.9207L17.5072 2.17266L17.6398 1.76501L17.293 1.51306H17.7215L17.854 1.10547Z" fill="#F0F0F0"/>
<path d="M19.2212 1.10547L19.3536 1.51306H19.7822L19.4355 1.76501L19.5679 2.17266L19.2212 1.9207L18.8744 2.17266L19.0069 1.76501L18.6602 1.51306H19.0887L19.2212 1.10547Z" fill="#F0F0F0"/>
</svg>
