<svg width="30" height="20" viewBox="0 0 30 20" fill="none" xmlns="http://www.w3.org/2000/svg">
<path d="M30 0H0V20H30V0Z" fill="black"/>
<path d="M30 10V20H0L12.6085 10H30Z" fill="#6DA544"/>
<path d="M30 0V10H12.6085L0 0H30Z" fill="#D80027"/>
<path d="M12.9489 9.0217L1.57395 0H0.524414L12.7218 9.67392H29.9996V9.0217H12.9489Z" fill="black"/>
<path d="M0.524414 20.0001H1.57395L12.9489 10.9784H29.9996V10.3262H12.7218L0.524414 20.0001Z" fill="black"/>
<path d="M0 0.416016V1.24842L11.0342 9.99981L0 18.7512V19.5836L12.0837 9.99981L0 0.416016Z" fill="black"/>
<path d="M0.524766 0H0V0.416201L12.0837 10L0 19.5837V20H0.524766L12.7221 10.3261H30V9.67392H12.7221L0.524766 0Z" fill="#FFDA44"/>
<path d="M3.73322 12.1317V11.2941C4.56906 11.2941 5.24904 10.614 5.24904 9.7783C5.24904 9.18696 4.76793 8.70584 4.17654 8.70584C3.77371 8.70584 3.44594 9.03356 3.44594 9.43646C3.44594 9.6941 3.65553 9.9037 3.91316 9.9037C4.05877 9.9037 4.1773 9.78516 4.1773 9.63955H5.0149C5.0149 10.2471 4.52066 10.7414 3.91322 10.7414C3.19375 10.7413 2.6084 10.1558 2.6084 9.4364C2.6084 8.57166 3.31188 7.86816 4.1766 7.86816C5.22982 7.86816 6.0867 8.725 6.0867 9.7783C6.0867 11.0759 5.03096 12.1317 3.73322 12.1317Z" fill="#FFDA44"/>
</svg>
