<svg width="30" height="20" viewBox="0 0 30 20" fill="none" xmlns="http://www.w3.org/2000/svg">
<path d="M30 0H0V19.9994H30V0Z" fill="#FFDA44"/>
<path d="M30 0H15V20H30V0Z" fill="#F0F0F0"/>
<path d="M18.8295 8.70109L20.7088 11.1872C20.4127 11.6355 20.4143 12.2396 20.7567 12.6926C21.1911 13.2672 22.0091 13.3809 22.5838 12.9466C23.1584 12.5122 23.2721 11.6942 22.8377 11.1195C22.4953 10.6665 21.9145 10.5003 21.4024 10.6628L18.4735 6.78809L17.7798 7.31244L16.7393 8.09899L17.788 9.4863L18.8295 8.70109ZM21.5351 11.5593C21.7267 11.4144 21.9993 11.4524 22.1442 11.6439C22.289 11.8355 22.2511 12.1082 22.0595 12.253C21.868 12.3977 21.5953 12.3599 21.4505 12.1683C21.3057 11.9768 21.3436 11.704 21.5351 11.5593Z" fill="#ACABB1"/>
<path d="M22.0528 9.4863L23.1016 8.09899L22.061 7.31244L21.3674 6.78809L18.4384 10.6628C17.9263 10.5002 17.3456 10.6665 17.0032 11.1195C16.5688 11.6942 16.6825 12.5122 17.2571 12.9466C17.8318 13.381 18.6498 13.2673 19.0842 12.6926C19.4267 12.2396 19.4282 11.6355 19.1321 11.1872L21.0113 8.70109L22.0528 9.4863ZM18.3905 12.1682C18.2457 12.3598 17.973 12.3976 17.7815 12.2529C17.5899 12.108 17.552 11.8354 17.6968 11.6438C17.8416 11.4523 18.1143 11.4144 18.3059 11.5591C18.4974 11.7039 18.5353 11.9767 18.3905 12.1682Z" fill="#FFDA44"/>
</svg>
