<svg width="30" height="20" viewBox="0 0 30 20" fill="none" xmlns="http://www.w3.org/2000/svg">
<path d="M30 0H0V20H30V0Z" fill="#D80027"/>
<path d="M30 5.65137H0V14.3476H30V5.65137Z" fill="#0052B4"/>
<path d="M21.5218 11.7494L21.0511 12.1171L21.2555 12.6783L20.7602 12.3444L20.2896 12.7121L20.4542 12.1379L19.959 11.8039L20.5559 11.7831L20.7206 11.209L20.925 11.7703L21.5218 11.7494Z" fill="#F0F0F0"/>
<path d="M20.317 9.66165L20.0006 10.1682L20.3845 10.6257L19.805 10.4813L19.4885 10.9878L19.4467 10.3919L18.8672 10.2474L19.421 10.0236L19.3794 9.42773L19.7634 9.88536L20.317 9.66165Z" fill="#F0F0F0"/>
<path d="M18.4706 8.1123L18.3465 8.69656L18.8637 8.99516L18.2698 9.05779L18.1455 9.64187L17.9026 9.09629L17.3086 9.15864L17.7524 8.75896L17.5095 8.21338L18.0268 8.51198L18.4706 8.1123Z" fill="#F0F0F0"/>
<path d="M16.2046 7.28809L16.2877 7.87954L16.876 7.98326L16.3391 8.24518L16.4222 8.83663L16.0073 8.40702L15.4704 8.66876L15.7508 8.14135L15.3359 7.71184L15.9242 7.81544L16.2046 7.28809Z" fill="#F0F0F0"/>
<path d="M13.7944 7.28809L14.0749 7.81544L14.663 7.71173L14.2481 8.14146L14.5285 8.66888L13.9917 8.40702L13.5767 8.83658L13.6599 8.24518L13.123 7.98337L13.7113 7.87954L13.7944 7.28809Z" fill="#F0F0F0"/>
<path d="M11.5297 8.1123L11.9737 8.51198L12.4908 8.21338L12.248 8.75914L12.6918 9.15875L12.0978 9.09629L11.8548 9.64187L11.7308 9.05768L11.1367 8.99533L11.654 8.69661L11.5297 8.1123Z" fill="#F0F0F0"/>
<path d="M9.68262 9.66153L10.2365 9.88524L10.6203 9.42773L10.5788 10.0237L11.1325 10.2475L10.5529 10.3919L10.5112 10.9877L10.1948 10.4812L9.61523 10.6257L9.99914 10.1681L9.68262 9.66153Z" fill="#F0F0F0"/>
<path d="M8.47852 11.7493L9.07559 11.7702L9.27973 11.209L9.44455 11.7832L10.0414 11.8041L9.54615 12.1381L9.7108 12.7122L9.24018 12.3444L8.74506 12.6784L8.94932 12.1171L8.47852 11.7493Z" fill="#F0F0F0"/>
<path d="M30 0H0V5.65184H30V0Z" fill="#FFDA44"/>
</svg>
