<svg width="30" height="20" viewBox="0 0 30 20" fill="none" xmlns="http://www.w3.org/2000/svg">
<path d="M30 0H0V20H30V0Z" fill="#F0F0F0"/>
<path d="M16.6977 6.98549C16.6977 6.04753 15.9373 5.28711 14.9993 5.28711C14.0613 5.28711 13.3009 6.04753 13.3009 6.98549H9.56445C9.56445 7.90898 10.3689 8.65762 11.2924 8.65762H11.2368C11.2368 9.58116 11.9854 10.3299 12.909 10.3299C12.909 11.1476 13.4963 11.827 14.2719 11.9723L14.2675 11.9821H15.731L15.7267 11.9723C16.5023 11.827 17.0896 11.1476 17.0896 10.3299C18.0132 10.3299 18.7619 9.58122 18.7619 8.65762H18.7061C19.6296 8.65762 20.4341 7.90892 20.4341 6.98549H16.6977Z" fill="#FFDA44"/>
<path d="M14.2542 11.8096L13.2012 14.187C13.7568 14.4129 14.3641 14.5384 15.0008 14.5384C15.6376 14.5384 16.2449 14.4129 16.8004 14.187L15.7474 11.8096H14.2542Z" fill="#FFDA44"/>
<path d="M12.8262 7.82129V10.7467C12.8262 12.4107 15.0001 12.9206 15.0001 12.9206C15.0001 12.9206 17.1739 12.4107 17.1739 10.7467V7.82129H12.8262Z" fill="#F0F0F0"/>
<path d="M7.42504 10.0703L8.60078 13.3587L9.76428 10.0703H10.6522L8.95592 14.4181H8.24559L6.53711 10.0703H7.42504Z" fill="#338AF3"/>
<path d="M21.0879 14.4181V10.0703H21.933V14.4181H21.0879Z" fill="#338AF3"/>
<path d="M13.6953 8.76562V12.3107C13.9942 12.5306 14.3157 12.682 14.5648 12.7788V8.76562H13.6953Z" fill="#D80027"/>
<path d="M16.3051 8.76562V12.3107C16.0062 12.5306 15.6847 12.682 15.4355 12.7788V8.76562H16.3051Z" fill="#D80027"/>
<path d="M17.1742 7.82129H12.8262V9.20063H17.1742V7.82129Z" fill="#0052B4"/>
</svg>
