<svg width="30" height="20" viewBox="0 0 30 20" fill="none" xmlns="http://www.w3.org/2000/svg">
<path d="M30 0H0V20H30V0Z" fill="#F0F0F0"/>
<path d="M30 10H0V20H30V10Z" fill="#496E2D"/>
<path d="M22.1094 6.68203C21.7215 5.58179 20.6732 4.79299 19.4403 4.79299H17.0145C15.4515 4.79299 14.1845 6.06004 14.1845 7.62307C14.1845 8.13372 14.3204 8.62451 14.557 9.03813C13.6562 9.03075 12.8226 9.04435 12.2978 9.03813C12.2978 7.94669 12.2978 6.55623 12.2978 6.2653L12.4092 6.15385C12.9096 5.65351 12.7427 4.81965 12.7427 4.81965C12.7427 4.81965 11.909 4.65289 11.4087 5.15323L10.8256 5.73637H10.1752C8.7425 5.73637 7.58105 6.89784 7.58105 8.3306H9.46771V10.4531C9.46771 10.7636 9.53035 11.0594 9.64344 11.3287L8.99609 11.8682H8.05273V10.9248H7.10938V12.8115H11.3544V14.6982H10.411V15.6416H12.2977V13.7549L13.1624 12.7172H15.2063L16.0711 13.7549V14.6983H15.1277V15.6417H18.901V10.4532C18.901 9.67166 19.5345 9.03813 20.3161 9.03813C20.3362 9.03813 20.356 9.03884 20.3759 9.03966C20.3369 8.88842 20.3161 8.72987 20.3161 8.56644C20.3161 7.5558 21.1108 6.73084 22.1094 6.68203ZM17.0144 14.6983V12.7173H17.093L17.9578 13.755V14.6984H17.0144V14.6983Z" fill="#D80027"/>
</svg>
