<svg width="30" height="20" viewBox="0 0 30 20" fill="none" xmlns="http://www.w3.org/2000/svg">
<path d="M30 0H0V20H30V0Z" fill="#496E2D"/>
<path d="M28.75 6.45409H25.9375C25.9375 5.93636 25.5177 5.5166 25 5.5166C24.4823 5.5166 24.0625 5.93636 24.0625 6.45409H21.25C21.25 6.97182 21.701 7.39158 22.2187 7.39158H22.1875C22.1875 7.90931 22.6071 8.32907 23.125 8.32907C23.125 8.8468 23.5446 9.26656 24.0625 9.26656H25.9375C26.4552 9.26656 26.875 8.8468 26.875 8.32907C27.3927 8.32907 27.8125 7.90931 27.8125 7.39158H27.7813C28.2991 7.39158 28.75 6.97182 28.75 6.45409Z" fill="#FF9811"/>
<path d="M23.3333 10H20V19.9997H23.3333V10Z" fill="#D80027"/>
<path d="M29.9993 10H26.666V19.9997H29.9993V10Z" fill="#FF9811"/>
<path d="M26.6673 10H23.334V19.9997H26.6673V10Z" fill="black"/>
</svg>
