<svg width="30" height="20" viewBox="0 0 30 20" fill="none" xmlns="http://www.w3.org/2000/svg">
<path d="M30 0H0V19.9998H30V0Z" fill="black"/>
<path d="M30 2.86328H0V5.72658H30V2.86328Z" fill="#FFDA44"/>
<path d="M30 14.3164H0V17.1797H30V14.3164Z" fill="#FFDA44"/>
<path d="M30 0H0V2.8633H30V0Z" fill="#6DA544"/>
<path d="M30 5.72656H0V8.58987H30V5.72656Z" fill="#D80027"/>
<path d="M30 11.4531H0V14.3164H30V11.4531Z" fill="#D80027"/>
<path d="M30 17.1797H0V19.9996H30V17.1797Z" fill="#6DA544"/>
<path d="M16.23 9.99959L6.23021 19.9992H0V0H6.23021L16.23 9.99959Z" fill="#F0F0F0"/>
<path d="M15 9.99977L5 19.9995H6.22971L16.2297 9.99977L6.22971 0H5L15 9.99977Z" fill="black"/>
<path d="M6.00445 6.86914L6.78135 9.26042H9.29602L7.26176 10.7385L8.03871 13.1299L6.00445 11.6519L3.97008 13.1299L4.74715 10.7385L2.71289 9.26042H5.22744L6.00445 6.86914Z" fill="#D80027"/>
<path d="M8.1416 10.1958L6.11666 9.47849C6.11666 9.47849 5.96707 8.07491 5.95799 8.02739C5.88926 7.66529 5.57109 7.3916 5.18906 7.3916C4.75688 7.3916 4.40643 7.74199 4.40643 8.17422C4.40643 8.24588 4.41686 8.31496 4.4349 8.38094L3.86719 8.95251C3.86719 8.95251 4.54154 8.95251 4.8767 8.95251C4.8767 10.0003 4.09482 10.0003 4.09482 11.0437L4.52854 12.0872H7.13725L7.57213 11.0437H7.57189C7.61549 10.9436 7.64186 10.8404 7.65281 10.7372C8.02764 10.5855 8.1416 10.1958 8.1416 10.1958Z" fill="#FFDA44"/>
</svg>
