<svg width="49" height="27" viewBox="0 0 49 27" fill="none" xmlns="http://www.w3.org/2000/svg">
<g clip-path="url(#clip0_221_1915)">
<path fill-rule="evenodd" clip-rule="evenodd" d="M5.33125 12.8536C-3.53325 17.8605 20.3447 20.9015 25.724 20.8523V17.7989L30.1941 22.3953L25.724 27V24.1395C14.9135 24.5622 -10.5315 17.4008 4.77298 11.4583C4.91653 11.922 5.09199 12.3611 5.29137 12.7715L5.33125 12.8536ZM43.2098 3.4104C43.2098 2.33926 43.3972 1.58824 43.772 1.16142C44.1468 0.73461 44.7171 0.521204 45.4867 0.521204C45.8535 0.521204 46.1606 0.570451 46.3959 0.660739C46.6311 0.75513 46.8265 0.874145 46.9741 1.02599C47.1256 1.17373 47.2412 1.33379 47.329 1.49795C47.4167 1.66211 47.4845 1.85499 47.5363 2.07661C47.64 2.49521 47.6879 2.93434 47.6879 3.39398C47.6879 4.41587 47.5204 5.16689 47.1814 5.63885C46.8465 6.11081 46.2683 6.34884 45.4428 6.34884C44.9842 6.34884 44.6094 6.27086 44.3263 6.12312C44.0432 5.97127 43.8079 5.74966 43.6285 5.45828C43.4969 5.24897 43.3932 4.9658 43.3214 4.60876C43.2456 4.2435 43.2098 3.84952 43.2098 3.4104ZM10.555 4.30506L6.96618 3.64843C7.26525 2.47469 7.83548 1.57182 8.68485 0.943912C9.53022 0.316005 10.7305 0 12.2817 0C14.0642 0 15.3482 0.340629 16.1457 1.02599C16.9392 1.71135 17.334 2.57319 17.334 3.60739C17.334 4.21477 17.1705 4.76471 16.8515 5.25308C16.5285 5.74555 16.046 6.17647 15.396 6.54583C15.9224 6.68126 16.3291 6.83721 16.6043 7.01778C17.0589 7.30506 17.4098 7.68673 17.661 8.15458C17.9122 8.62654 18.0398 9.18468 18.0398 9.83721C18.0398 10.658 17.8325 11.4419 17.4178 12.197C16.9991 12.948 16.4009 13.5267 15.6193 13.933C14.8378 14.3393 13.809 14.5404 12.5329 14.5404C11.2928 14.5404 10.3118 14.3885 9.59801 14.0889C8.88024 13.7893 8.29007 13.3502 7.82751 12.7674C7.36494 12.1888 7.01004 11.4583 6.76281 10.58L10.563 10.0588C10.7145 10.8468 10.9418 11.3967 11.2569 11.7045C11.5679 12.0082 11.9667 12.1642 12.4532 12.1642C12.9596 12.1642 13.3823 11.9713 13.7212 11.5896C14.0602 11.2079 14.2277 10.6949 14.2277 10.0547C14.2277 9.40219 14.0642 8.8974 13.7412 8.54036C13.4182 8.18331 12.9755 8.00274 12.4173 8.00274C12.1222 8.00274 11.7115 8.07661 11.1931 8.23256L11.3885 5.43776C11.5958 5.47059 11.7593 5.487 11.875 5.487C12.3654 5.487 12.7762 5.32285 13.1031 4.99863C13.4301 4.67442 13.5976 4.29275 13.5976 3.84542C13.5976 3.4145 13.474 3.07387 13.2268 2.82353C12.9795 2.56908 12.6366 2.44186 12.2099 2.44186C11.7633 2.44186 11.4044 2.5814 11.1253 2.85636C10.8422 3.12722 10.6547 3.61149 10.555 4.30506ZM29.9668 3.39398L26.1866 3.87004C26.0869 3.32832 25.9234 2.95075 25.6921 2.72914C25.4568 2.50752 25.1697 2.39672 24.8308 2.39672C24.2167 2.39672 23.7382 2.71272 23.3992 3.35294C23.152 3.81669 22.9646 4.79754 22.8489 6.30369C23.3035 5.82763 23.7701 5.4788 24.2446 5.25308C24.7231 5.02736 25.2774 4.91245 25.9034 4.91245C27.1236 4.91245 28.1525 5.35978 28.9938 6.25445C29.8352 7.15321 30.2579 8.29001 30.2579 9.66484C30.2579 10.5923 30.0466 11.4378 29.6199 12.2093C29.1932 12.9767 28.6031 13.5595 27.8494 13.9535C27.0917 14.3475 26.1467 14.5445 25.0062 14.5445C23.6385 14.5445 22.5419 14.3064 21.7164 13.8222C20.891 13.342 20.229 12.5787 19.7346 11.528C19.2401 10.4774 18.9929 9.08618 18.9929 7.35021C18.9929 4.81395 19.5113 2.95486 20.552 1.77291C21.5848 0.590971 23.0244 0 24.8666 0C25.9553 0 26.8126 0.127223 27.4427 0.385773C28.0727 0.644323 28.5991 1.02599 29.0138 1.51847C29.4325 2.01915 29.7515 2.64296 29.9668 3.39398ZM22.9765 9.66484C22.9765 10.4282 23.1639 11.0233 23.5348 11.4542C23.9096 11.8851 24.3642 12.1026 24.9065 12.1026C25.405 12.1026 25.8237 11.9056 26.1586 11.5157C26.4936 11.1259 26.6611 10.5431 26.6611 9.76744C26.6611 8.97538 26.4856 8.36799 26.1387 7.95349C25.7878 7.53899 25.3571 7.32969 24.8387 7.32969C24.3124 7.32969 23.8658 7.53078 23.5069 7.93707C23.152 8.33926 22.9765 8.91382 22.9765 9.66484ZM31.0674 7.21067C31.0674 4.53899 31.534 2.66758 32.4711 1.60055C33.4042 0.533516 34.8317 0 36.7418 0C37.663 0 38.4166 0.119015 39.0068 0.348837C39.597 0.582763 40.0795 0.886457 40.4503 1.25992C40.8251 1.63338 41.1202 2.02736 41.3316 2.43776C41.5469 2.85226 41.7184 3.33242 41.85 3.88235C42.1052 4.92886 42.2328 6.02462 42.2328 7.16553C42.2328 9.71819 41.8141 11.5814 40.9727 12.7633C40.1353 13.9453 38.6918 14.5363 36.6381 14.5363C35.4897 14.5363 34.5606 14.3475 33.8508 13.9699C33.141 13.5923 32.5628 13.0383 32.1082 12.3078C31.7812 11.7907 31.522 11.0848 31.3386 10.186C31.1591 9.29138 31.0674 8.29822 31.0674 7.21067ZM34.8277 7.21888C34.8277 9.00821 34.9793 10.2312 35.2903 10.8878C35.5974 11.5445 36.044 11.8687 36.6302 11.8687C37.017 11.8687 37.3479 11.7291 37.6311 11.4542C37.9142 11.1751 38.1215 10.7319 38.2531 10.1327C38.3887 9.52941 38.4525 8.59371 38.4525 7.32148C38.4525 5.45417 38.301 4.20246 37.9899 3.55404C37.6829 2.91382 37.2203 2.5896 36.6062 2.5896C35.9762 2.5896 35.5256 2.91792 35.2425 3.57045C34.9673 4.23119 34.8277 5.44596 34.8277 7.21888ZM44.7171 3.4145C44.7171 4.13269 44.7769 4.62107 44.9005 4.88372C45.0241 5.14637 45.2036 5.2777 45.4388 5.2777C45.5943 5.2777 45.7259 5.22435 45.8416 5.10944C45.9532 4.99863 46.037 4.82216 46.0928 4.58003C46.1446 4.33789 46.1726 3.96443 46.1726 3.45554C46.1726 2.70862 46.1127 2.20383 45.9891 1.94528C45.8655 1.68673 45.6821 1.55951 45.4348 1.55951C45.1836 1.55951 45.0002 1.69083 44.8885 1.95349C44.7729 2.21614 44.7171 2.70451 44.7171 3.4145ZM43.5846 12.4063C47.7955 14.6101 46.7906 17.7373 39.3338 19.6375C37.2203 20.1751 34.8317 20.6635 32.2119 20.8646V23.3475C35.1268 23.1382 37.8384 22.4487 40.211 21.8577C51.4243 19.0629 51.0335 14.0725 43.9435 11.2572C43.8438 11.6635 43.7242 12.0451 43.5846 12.4063Z" fill="white"/>
</g>
<defs>
<clipPath id="clip0_221_1915">
<rect width="49" height="27" fill="white"/>
</clipPath>
</defs>
</svg>
